<svg width="24.000000" height="24.000000" viewBox="0 0 24 24" fill="none" xmlns="http://www.w3.org/2000/svg" xmlns:xlink="http://www.w3.org/1999/xlink">
	<desc>
			Created with Pixso.
	</desc>
	<defs/>
	<rect id="youtube" width="24.000000" height="24.000000" fill="#FFFFFF" fill-opacity="0"/>
	<path id="Subtract" d="M1.68338 7.45581C1.77979 5.9718 2.97296 4.80872 4.45834 4.73511C6.60928 4.62854 9.68359 4.5 12 4.5C14.3164 4.5 17.3907 4.62854 19.5417 4.73511C21.027 4.80872 22.2202 5.9718 22.3166 7.45581C22.409 8.87769 22.5 10.6272 22.5 12C22.5 13.3728 22.409 15.1223 22.3166 16.5442C22.2202 18.0282 21.027 19.1913 19.5417 19.2649C17.3907 19.3715 14.3164 19.5 12 19.5C9.68359 19.5 6.60928 19.3715 4.45834 19.2649C2.97296 19.1913 1.77979 18.0282 1.68338 16.5442C1.59103 15.1223 1.5 13.3728 1.5 12C1.5 10.6272 1.59103 8.87769 1.68338 7.45581ZM15.75 12L9.75 9L9.75 15L15.75 12Z" clip-rule="evenodd" fill="#FFFFFF" fill-opacity="1.000000" fill-rule="evenodd"/>
</svg>
