<svg width="78.000000" height="78.000000" viewBox="0 0 78 78" fill="none" xmlns="http://www.w3.org/2000/svg" xmlns:xlink="http://www.w3.org/1999/xlink">
	<desc>
			Created with Pixso.
	</desc>
	<defs>
		<clipPath id="clip301_562">
			<rect id="Face 5" width="78.000000" height="78.000000" transform=" rotate(0.000000)" fill="white" fill-opacity="0"/>
		</clipPath>
	</defs>
	<rect id="Face 5" width="78.000000" height="78.000000" transform=" rotate(0.000000)" fill="#FFFFFF" fill-opacity="0"/>
	<g clip-path="url(#clip301_562)">
		<path id="Vector" d="M11.2261 26.948C14.8688 22.6687 18.8636 18.5791 23.2782 15.0989C26.3521 12.675 27.4084 12.5532 29.1011 12.0928C29.5615 11.9709 29.9678 11.6865 30.3605 11.4021C46.8407 -0.230225 67.8438 8.0166 71.9063 28.5459C74.6011 42.1687 67.6542 55.697 55.7105 61.2219C55.5209 61.3167 55.2365 61.3438 55.1417 61.4927C52.7719 65.2031 47.9511 66.6387 45.0126 67.3699C44.4167 67.5864 43.9563 68.2095 43.4147 68.6157C42.9949 68.927 42.5751 69.2656 42.1011 69.4824C26.5688 76.6865 9.87195 67.0449 6.2157 51.0928C5.70111 48.8447 3.43964 35.2761 11.2261 26.948ZM43.5771 60.3552C49.1157 60.3281 52.7313 59.4209 55.9678 57.647C71.5407 49.1021 73.8699 25.8916 60.1657 14.5574C52.3115 8.0708 42.2636 6.97388 33.4344 13.1897C22.9397 20.5698 19.1344 35.6958 25.0115 47.125C29.2365 55.3447 35.9397 59.8813 43.5771 60.3552ZM48.8719 63.8625C49.549 63.6189 49.6438 63.4426 49.5355 63.3616C49.5355 63.3616 49.2511 63.3616 48.7772 63.375C36.5897 64.2959 27.4219 59.448 21.9917 48.5198C16.6834 37.8489 17.9698 27.3677 24.2397 17.3333C23.7386 17.5771 23.3324 17.875 22.9667 18.2136C14.5167 25.8645 12.0251 38.824 16.9001 49.9011C21.3959 60.125 30.8344 66.1917 41.4511 65.4333C43.9428 65.2573 46.3938 64.4043 48.8719 63.8625ZM13.0813 28.7354C13.0948 28.3428 12.7292 28.8303 12.6751 28.8979C12.4855 29.1553 12.2959 29.426 12.1334 29.697C9.89902 33.4614 8.50424 37.5376 8.31467 41.9114C7.86777 51.8782 11.3615 60.1387 19.798 65.772C25.4042 69.5229 31.6334 70.2949 38.1469 68.2637C28.6271 67.302 21.2063 62.8875 16.1959 54.7354C11.1855 46.6104 10.3865 37.8896 13.0813 28.7354Z" fill="#000000" fill-opacity="1.000000" fill-rule="nonzero"/>
		<path id="Vector" d="M53.8688 37.4158C55.7375 37.4834 56.347 38.4583 55.7376 40.2188C54.2209 44.552 49.9553 46.6646 45.6084 45.1479C43.0355 44.2407 41.0178 42.5886 39.623 40.2324C38.5532 38.4177 39.0272 37.375 41.1261 37.2395C43.3199 37.0906 51.824 37.3345 53.8688 37.4158ZM53.449 39.5281C49.7115 39.5281 46.0688 39.5281 42.3855 39.5281C46.123 43.875 51.648 43.9563 53.449 39.5281Z" fill="#000000" fill-opacity="1.000000" fill-rule="nonzero"/>
		<path id="Vector" d="M38.6343 29.7378C38.6479 31.8503 36.6166 33.7732 34.3958 33.7598C32.4593 33.7461 31.1051 31.9993 31.0916 30.144C31.0645 28.2888 32.9604 26.4607 35.0458 26.4065C37.0499 26.3389 38.6343 27.8013 38.6343 29.7378ZM34.5718 28.3972C33.5697 28.5596 33.2583 29.5076 33.3395 30.2253C33.4478 31.2681 34.2333 31.5254 34.7208 31.5388C35.1812 31.5525 36.0885 31.092 36.278 30.1982C36.5218 29.291 36.0072 28.0586 34.5718 28.3972Z" fill="#CD4631" fill-opacity="1.000000" fill-rule="nonzero"/>
		<path id="Vector" d="M64.5124 30.3064C64.4854 32.3511 63.0364 33.8542 61.0999 33.8408C59.0145 33.8271 57.5114 32.1345 57.5791 29.873C57.6333 27.9094 59.0958 26.3928 60.9103 26.4333C62.7926 26.4875 64.5395 28.3564 64.5124 30.3064ZM62.6437 30.2522C62.6437 29.2095 62.0885 28.5054 61.2218 28.5054C60.6937 28.5054 59.7999 28.9116 59.7999 30.022C59.7999 31.9585 61.2218 31.8501 61.2218 31.8501C61.9801 31.823 62.6437 31.5115 62.6437 30.2522Z" fill="#81ADC8" fill-opacity="1.000000" fill-rule="nonzero"/>
	</g>
</svg>
