<svg width="78.000000" height="78.000000" viewBox="0 0 78 78" fill="none" xmlns="http://www.w3.org/2000/svg" xmlns:xlink="http://www.w3.org/1999/xlink">
	<desc>
			Created with Pixso.
	</desc>
	<defs>
		<clipPath id="clip301_579">
			<rect id="Star" width="78.000000" height="78.000000" transform=" rotate(0.000000)" fill="white" fill-opacity="0"/>
		</clipPath>
	</defs>
	<rect id="Star" width="78.000000" height="78.000000" transform=" rotate(0.000000)" fill="#FFFFFF" fill-opacity="0"/>
	<g clip-path="url(#clip301_579)">
		<path id="Vector" d="M29.1146 29.1958C27.7604 28.2209 26.7719 27.5032 25.7833 26.7991C21.8021 23.9417 17.7937 21.0979 13.8396 18.2C12.8917 17.5093 11.9979 16.6562 11.3344 15.7083C10.9552 15.1396 10.8334 14.124 11.0906 13.5281C11.2396 13.176 12.4584 12.9866 13.0406 13.1897C14.4625 13.6636 15.8438 14.3135 17.1438 15.0583C21.1927 17.4011 25.201 19.825 29.3854 22.3167C29.7646 19.825 30.0896 17.3469 30.55 14.8958C30.9021 13 31.3896 11.1042 31.9177 9.24902C32.2562 8.0437 32.974 7.00098 34.423 7.2041C35.926 7.40723 36.4136 8.59888 36.3865 9.9397C36.3323 13.9343 36.1969 17.9155 36.1156 21.9104C36.0885 22.8584 36.1156 23.8062 36.1156 24.7542C36.2646 24.8896 37.5375 23.7522 38.1333 23.1699C43.225 18.1865 48.3167 13.2302 53.4625 8.30103C54.1802 7.61035 55.0875 7.02808 56.0083 6.64893C56.4958 6.4458 57.4166 6.59473 57.7417 6.94678C58.0667 7.29907 58.1344 8.21973 57.9042 8.69385C57.4708 9.60107 56.8208 10.427 56.1302 11.1719C51.5938 16.1553 47.0303 21.1116 42.4802 26.0813C41.9791 26.623 41.4781 27.1917 40.7334 28.0178C44.1459 27.7739 47.2198 27.5032 50.2937 27.3406C56.4823 27.0293 62.6843 26.772 68.8729 26.501C69.2521 26.4875 69.6583 26.4875 69.9834 26.5552C72.1094 27.0022 71.9198 29.1282 70.3219 29.3989C68.3719 29.7375 66.4083 30.1572 64.4313 30.3604C57.349 31.0647 50.2667 31.6875 43.1843 32.3511C43.0354 32.3645 42.9 32.4187 42.4531 32.5405C44.4031 34.0708 46.2042 35.4792 48.0052 36.874C51.4042 39.5281 54.8438 42.1416 58.1886 44.8501C59.0823 45.5813 59.8677 46.5427 60.4365 47.5449C61.0459 48.6011 60.4094 49.5083 59.2448 49.2239C57.8229 48.8584 56.3605 48.2761 55.1553 47.45C49.2781 43.4417 43.4823 39.3115 37.6594 35.2219C37.0094 34.7615 36.3594 34.301 35.4115 33.6104C35.2084 36.6843 35.0459 39.4468 34.8292 42.2095C34.1792 50.4292 33.5292 58.6489 32.8521 66.8687C32.7709 67.7761 32.5948 68.6968 32.324 69.5635C31.9584 70.7551 31.1459 71.5405 29.8323 71.4458C28.6 71.3511 27.8823 70.5249 27.6656 69.3604C27.4625 68.25 27.3541 67.1125 27.3677 65.9885C27.449 58.6489 27.5708 51.323 27.6792 43.9834C27.6927 43.4417 27.6792 42.9136 27.6792 41.9792C27.0563 42.575 26.6229 42.9678 26.2031 43.3875C21.5177 48.073 16.8323 52.772 12.1333 57.4573C11.6052 57.9854 11.0094 58.5137 10.3323 58.8115C9.87183 59.0146 9.05933 59.001 8.70728 58.7168C8.35522 58.4324 8.27393 57.6333 8.27393 57.1594C8.28748 55.6699 9.08643 55.0063 9.79065 54.1531C13.9343 49.1292 18.1459 44.1458 22.3844 39.1897C23.9146 37.4021 25.5802 35.7366 27.5437 33.6511C23.874 34.0708 20.6917 34.4771 17.5094 34.7749C14.449 35.0593 11.3885 35.2354 8.31458 35.4521C7.98962 35.4792 7.651 35.425 7.35315 35.3843C5.7959 35.1948 6.67603 33.5427 7.12292 33.4343C10.1969 32.676 13.298 31.9448 16.4125 31.376C20.1094 30.7395 28.275 29.4802 29.1146 29.1958Z" fill="#000000" fill-opacity="1.000000" fill-rule="nonzero"/>
	</g>
</svg>
