<svg width="78.000000" height="78.000000" viewBox="0 0 78 78" fill="none" xmlns="http://www.w3.org/2000/svg" xmlns:xlink="http://www.w3.org/1999/xlink">
	<desc>
			Created with Pixso.
	</desc>
	<defs>
		<clipPath id="clip301_572">
			<rect id="Fire" width="78.000000" height="78.000000" transform=" rotate(0.000000)" fill="white" fill-opacity="0"/>
		</clipPath>
	</defs>
	<rect id="Fire" width="78.000000" height="78.000000" transform=" rotate(0.000000)" fill="#FFFFFF" fill-opacity="0"/>
	<g clip-path="url(#clip301_572)">
		<path id="Vector" d="M53.6792 22.8176C53.3406 26.1624 53.0969 28.9519 52.7584 31.728C52.5688 33.2446 51.9459 34.5583 50.2396 34.9238C48.8177 35.2217 47.3417 34.4363 46.4886 32.6895C45.6625 31.0103 45.0667 29.2092 44.4438 27.4353C42.6427 22.3438 39.8667 17.8208 36.4271 13.6904C35.3573 12.4041 34.3011 11.1177 33.0688 9.62793C32.7979 10.5354 32.5813 11.2666 32.3646 11.9978C30.0625 19.9468 29.2771 28.0447 29.6292 36.2915C29.7375 38.9592 29.4261 41.6812 29.0469 44.3354C28.8032 46.0415 28.1667 47.7749 26.1083 48.1541C24.6323 48.4248 23.1698 47.2061 22.2761 44.9854C21.6802 43.4958 21.2875 41.9114 20.7458 40.3948C20.4479 39.5415 20.0146 38.7427 19.6219 37.8489C14.6521 43.8884 18.4438 63.8083 25.0656 66.7197C25.0927 61.3843 27.5438 56.9697 30.4417 52.7988C34.5448 46.8948 36.7792 40.3677 37.524 33.2717C37.5781 32.7437 37.6865 32.2019 37.7812 31.6875C38.2417 29.2771 39.2302 28.8843 41.0312 30.6719C42.1959 31.8228 43.225 33.2446 43.9021 34.7207C47.2604 41.9519 48.6552 49.4541 46.3802 57.3352C46.1229 58.2019 45.5406 59.4207 45.974 60.0437C46.7323 60.9917 47.924 59.3665 48.1813 58.7031C48.8583 56.9561 49.2781 55.1279 49.8198 53.3269C50.1583 52.2031 50.3615 50.9707 50.9708 49.9958C51.4448 49.2373 52.474 48.303 53.1782 48.3708C53.9094 48.4385 54.925 49.4812 55.1688 50.2937C56.9563 56.3467 56.1167 61.8853 50.5375 66.5842C47.6667 69.0083 44.1323 69.7937 40.5167 70.2676C36.4406 70.7957 32.4188 70.9583 28.3292 70.0239C26.3792 69.5769 24.348 69.2791 23.1698 68.8457C21.9917 68.4124 20.9896 67.5322 20.5156 66.801C14.4896 57.4978 13.501 47.6936 17.7396 37.4155C18.6198 35.2896 20.3125 34.8425 21.8021 36.603C22.899 37.9031 23.5219 39.6499 24.2125 41.2749C24.6865 42.4124 24.9438 43.6448 25.2687 44.8364C25.675 46.3259 26.2709 46.5562 26.6771 46.2988C27.1782 46.1499 27.4761 44.3489 27.4219 42.5479C27.3271 39.5823 27.3813 36.603 27.0698 33.6646C26.1625 25.052 28.2615 16.9812 31.3219 9.07275C32.0802 7.0957 32.9469 6.85205 34.5719 8.23315C41.2344 13.8801 46.0417 20.7593 48.2219 29.3176C48.5604 30.6177 48.6688 32.0801 50.3209 33.1094C50.4833 31.8499 50.6188 30.8071 50.7677 29.7781C51.1469 27.2322 51.3906 24.6592 51.9594 22.1677C52.3115 20.6646 53.3542 20.353 54.451 21.4363C55.8865 22.8582 57.2948 24.429 58.2292 26.2031C61.7094 32.8384 62.9011 40.0427 62.874 47.4634C62.8469 53.2998 61.7635 58.9602 59.0823 64.1738C58.175 65.9478 56.6448 67.4104 55.3448 68.9675C54.7625 69.6719 53.4354 69.4417 54.0448 67.8708C54.099 67.7354 54.1667 67.5728 54.2615 67.4375C59.299 60.6802 59.8 52.7717 59.8677 44.8093C59.9219 38.4583 59.001 32.229 56.0355 26.4873C55.4125 25.3093 54.6136 24.2529 53.6792 22.8176ZM52.9479 50.5916C52.149 53.2458 51.5261 55.4395 50.8083 57.6196C50.2396 59.3396 49.3729 60.8967 47.6667 61.75C45.6896 62.752 43.7667 61.6416 43.6583 59.4207C43.6177 58.5134 43.6583 57.5791 43.8344 56.699C45.2156 49.6301 44.5657 42.7781 41.8032 36.1292C41.3292 34.9915 40.6385 33.949 39.9479 32.7031C39.7042 33.1094 39.5281 34.5852 39.501 35.2217C39.325 40.0427 38.7833 44.8093 36.251 49.0613C34.7344 51.5938 33.0281 54.0176 31.376 56.4822C29.5479 59.2312 27.9229 62.075 27.3271 65.3792C26.9208 67.6406 27.0969 67.7488 29.2635 68.304C33.8542 69.4688 38.35 68.7239 42.8323 67.8301C47.9375 66.8145 51.1198 63.4561 53.0156 58.825C54.0583 56.2927 53.7604 53.6655 52.9479 50.5916Z" fill="#CD4631" fill-opacity="1.000000" fill-rule="nonzero"/>
	</g>
</svg>
