<svg width="78.000000" height="78.000000" viewBox="0 0 78 78" fill="none" xmlns="http://www.w3.org/2000/svg" xmlns:xlink="http://www.w3.org/1999/xlink">
	<desc>
			Created with Pixso.
	</desc>
	<defs>
		<clipPath id="clip301_537">
			<rect id="Scribble" width="78.000000" height="78.000000" transform=" rotate(0.000000)" fill="white" fill-opacity="0"/>
		</clipPath>
	</defs>
	<rect id="Scribble" width="78.000000" height="78.000000" transform=" rotate(0.000000)" fill="#FFFFFF" fill-opacity="0"/>
	<g clip-path="url(#clip301_537)">
		<path id="Vector" d="M20.1094 35.926C18.3625 37.5105 16.6698 38.8917 15.0448 40.5979C12.6615 43.0896 10.4407 45.7302 8.15213 48.3031C7.5563 48.9667 7.08234 49.9417 5.94482 49.4271C5.20004 49.0886 5.20004 48.2355 5.91776 46.8271C6.33755 46.0146 6.81149 45.2292 7.3667 44.4979C10.5084 40.3407 14.2188 36.7521 18.498 33.7729C19.2292 33.2719 20.0282 32.8115 20.8678 32.5271C22.4657 31.999 23.698 32.9198 23.549 34.599C23.4542 35.6824 23.075 36.7656 22.7501 37.8219C22.1271 39.826 21.4094 41.7896 20.8136 43.8074C20.6511 44.3625 20.448 45.324 20.7865 45.7438C21.3688 46.3667 23.1021 44.5792 23.874 43.7532C26.2438 41.2479 28.5323 38.6615 30.8751 36.1292C33.2177 33.5834 35.8042 31.2948 38.824 29.5751C39.7042 29.074 40.6521 28.6406 41.6271 28.3833C43.198 27.9635 44.4438 29.0062 44.3355 30.6448C44.2813 31.4302 44.0511 32.2427 43.7126 32.9604C42.8459 34.7615 41.8573 36.4949 40.95 38.2688C40.0021 40.124 39.0136 41.9792 38.6615 44.4979C39.325 43.9021 39.7584 43.5636 40.124 43.1573C42.5073 40.5844 44.8365 37.9708 47.2469 35.425C49.4407 33.1094 51.7834 30.9427 54.6136 29.426C55.6834 28.8573 56.8886 28.4104 58.0803 28.2479C59.7323 28.0312 60.8698 29.2906 60.5449 30.9292C60.3011 32.1344 59.7865 33.299 59.2719 34.4094C58.2834 36.5083 57.2 38.5531 56.1844 40.625C55.9542 41.0854 55.2501 42.1688 55.8865 42.2771C56.5636 41.5594 57.2407 40.8281 57.9313 40.124C59.7594 38.2146 61.5469 36.2782 63.4292 34.423C65.1219 32.7438 67.0042 31.2948 69.4146 30.7532C71.4459 30.2927 72.8813 31.5521 72.5563 33.6105C72.3938 34.599 72.0688 35.6146 71.6084 36.5083C69.6042 40.449 67.5323 44.349 65.474 48.2626C65.2438 48.6824 64.9865 49.1292 64.6209 49.4271C64.2823 49.698 63.7136 50.0094 63.3886 49.8876C63.0636 49.7656 62.4678 49.3323 62.5355 48.4792C62.6032 47.6937 62.8334 47.1115 63.1448 46.4073C64.5803 43.1573 66.0969 39.948 67.5865 36.725C67.9928 35.8584 68.4261 35.0052 68.8459 34.1385C68.9948 33.8812 68.9542 33.8407 68.873 33.7458C68.4803 33.5427 67.3969 34.3688 66.95 34.8021C64.3907 37.2667 61.8719 39.7583 59.3667 42.2635C58.3782 43.2521 57.4709 44.3354 56.4823 45.324C55.6698 46.1365 54.6678 46.5969 53.5438 46.0552C52.4198 45.5135 52.1084 44.3761 52.298 43.2927C52.5688 41.7084 52.9073 40.0969 53.5573 38.6479C54.5323 36.4407 55.8053 34.3552 56.9427 32.2157C57.1324 31.85 57.2949 31.4573 57.6063 30.7532C56.9021 31.051 56.4688 31.173 56.0761 31.3896C53.5032 32.8251 51.323 34.7615 49.3594 36.9146C47.0032 39.5011 44.7959 42.2229 42.4667 44.85C41.5459 45.8927 40.598 46.9625 39.5011 47.8021C37.3751 49.4542 35.249 48.574 34.9782 45.9062C34.8563 44.6469 35.0459 43.3198 35.3438 42.0875C36.0886 38.9594 37.7813 36.2375 39.3792 33.4885C39.7177 32.9062 40.0563 32.324 40.2729 31.6604C37.6594 32.6219 35.5469 34.2739 33.6375 36.1427C30.6719 39.0406 27.8688 42.1146 24.9709 45.0667C24.2261 45.8251 23.4001 46.5563 22.4928 47.1115C20.949 48.0459 19.2698 47.3281 18.8907 45.5677C18.6063 44.2812 18.5927 42.8594 18.7959 41.5594C19.0803 39.65 20.3261 36.1427 20.2719 35.926C20.2719 35.7229 20.1094 35.926 20.1094 35.926Z" fill="#81ADC8" fill-opacity="1.000000" fill-rule="nonzero"/>
	</g>
</svg>
