<svg width="78.000000" height="78.000000" viewBox="0 0 78 78" fill="none" xmlns="http://www.w3.org/2000/svg" xmlns:xlink="http://www.w3.org/1999/xlink">
	<desc>
			Created with Pixso.
	</desc>
	<defs>
		<clipPath id="clip301_553">
			<rect id="Face 1" width="78.000000" height="78.000000" transform=" rotate(0.000000)" fill="white" fill-opacity="0"/>
		</clipPath>
	</defs>
	<rect id="Face 1" width="78.000000" height="78.000000" transform=" rotate(0.000000)" fill="#FFFFFF" fill-opacity="0"/>
	<g clip-path="url(#clip301_553)">
		<path id="Vector" d="M13.5415 44.6738C13.0811 44.105 11.903 45.6624 11.0498 44.9175C10.1967 44.1863 11.3749 43.1707 11.8623 42.5342C12.7019 41.4238 13.7175 40.4218 14.8009 39.5686C15.2207 39.23 16.1957 38.729 16.6832 39.3519C16.9946 39.7446 17.0759 40.0967 16.5748 41.0447C16.304 41.5457 16.1686 41.8165 15.4509 42.6831C15.4509 42.954 15.8572 43.252 16.1686 43.5227C22.6821 49.1967 30.0353 53.0425 38.8239 53.4623C47.6123 53.8956 55.1686 51.1738 60.9103 44.2405C61.4248 43.6311 62.129 43.0624 62.2238 42.3582C62.2915 41.8301 62.0613 41.5592 61.3436 40.5571C61.1134 40.2456 61.005 39.4873 61.4248 39.0134C62.1155 38.2009 62.8602 38.6207 63.1176 38.8644C64.8644 40.5707 66.2186 42.5748 67.2072 44.3759C67.3967 44.9717 67.0852 45.4592 66.7738 45.7571C66.5165 46.0009 65.8394 45.9738 65.4331 45.8248C64.9592 45.6488 64.5665 45.229 63.9436 44.7686C57.6603 53.002 49.1697 56.929 38.8779 56.5498C28.7488 56.2113 19.879 51.8915 13.5415 44.6738Z" fill="#000000" fill-opacity="1.000000" fill-rule="nonzero"/>
		<path id="Vector" d="M50.3478 29.7919C50.3071 26.2303 52.8259 23.3595 55.9675 23.373C58.703 23.3866 61.1405 26.1763 61.1676 29.3314C61.1812 32.3241 58.527 35.1002 55.5884 35.1407C52.6228 35.1678 50.3749 32.8794 50.3478 29.7919ZM52.9613 29.4127C52.9884 31.1189 54.153 32.3512 55.7373 32.3241C57.1187 32.297 58.4457 30.9429 58.3779 29.5887C58.3103 27.9231 57.4301 26.2032 55.2905 26.447C54.0718 26.5825 52.9342 27.4355 52.9613 29.4127Z" fill="#CD4631" fill-opacity="1.000000" fill-rule="nonzero"/>
		<path id="Vector" d="M26.2302 27.056C26.2031 30.2247 23.6167 32.906 20.5563 32.9196C17.6449 32.9331 15.3292 30.3602 15.4646 27.0425C15.6136 22.9664 17.875 21.707 21.1927 21.4092C23.7927 21.179 26.2438 24.131 26.2302 27.056ZM18.0105 26.7716C17.9969 28.7758 19.0802 30.2789 20.5292 30.2925C22.1406 30.306 23.6438 28.7352 23.6438 27.0154C23.6438 25.431 22.2084 23.9143 20.7458 23.955C18.8906 24.0092 18.0105 24.9164 18.0105 26.7716Z" fill="#81ADC8" fill-opacity="1.000000" fill-rule="nonzero"/>
	</g>
</svg>
