<svg width="62.021912" height="66.515625" viewBox="0 0 62.0219 66.5156" fill="none" xmlns="http://www.w3.org/2000/svg" xmlns:xlink="http://www.w3.org/1999/xlink">
	<desc>
			Created with Pixso.
	</desc>
	<defs/>
	<path id="Vector" d="M61.663 18.9952C62.0828 19.4557 62.1369 20.1327 61.8119 20.6744C61.514 21.1754 61.2567 21.6088 60.9588 22.015C57.8713 26.2942 56.1786 28.5286 53.1317 32.8348C52.3599 33.9181 50.4911 37.2358 49.7734 38.3734C49.7598 38.3868 49.7598 38.4004 49.7463 38.4139C49.0963 39.3889 47.4984 39.3213 46.9838 38.2515C46.9838 38.2515 46.9838 38.2379 46.9703 38.2379C46.2119 36.5723 45.6025 34.8525 44.8984 33.1598C42.9619 28.4879 40.2672 24.439 35.7849 21.7848C34.1599 20.8234 34.1328 20.1191 35.3922 18.7244C35.8661 18.2098 36.34 17.6816 36.8546 17.2213C41.8244 12.7931 45.2505 7.32227 47.8098 1.22852C47.9724 0.849365 48.2974 0.551514 48.6494 0.25354C49.1099 -0.12561 49.7734 -0.0714111 50.1796 0.361938C50.5182 0.713989 50.8297 1.09314 51.0192 1.51294C51.439 2.48792 51.5474 3.58484 51.8046 4.62756C53.1859 10.3015 56.2598 14.8243 60.9317 18.3046C61.189 18.4941 61.4192 18.7379 61.663 18.9952ZM49.2181 5.39941C47.6067 8.08069 46.2526 10.8431 44.4109 13.2535C42.5286 15.7046 40.1724 17.79 38.0192 20.0515C43.4901 23.3286 46.6588 28.515 48.5682 34.8796C51.3713 29.0837 55.2442 24.4796 59.4963 20.1733C52.7796 15.0546 51.1817 12.739 49.2181 5.39941Z" fill="#000000" fill-opacity="1.000000" fill-rule="nonzero"/>
	<path id="Vector" d="M10.5974 65.7275C9.36505 62.2336 8.29523 58.6724 6.9411 55.2327C5.61401 51.9015 3.6369 48.9358 0.793152 46.6472C-0.249573 45.8077 -0.222473 45.0493 0.630676 44.1014C5.42438 38.8879 9.10773 32.9838 11.7484 26.416C12.0327 25.7118 12.7911 24.5879 13.3192 24.5879C14.7546 24.2494 15.2692 27.0525 15.3234 27.3098C16.5286 33.9181 20.6182 38.7253 25.2088 43.2212C26.6984 44.6837 26.8203 45.1306 25.3577 46.5389C19.8463 51.8202 16.1901 58.3203 13.0483 65.1587C12.0598 67.542 10.7463 66.1472 10.5974 65.7275ZM2.44525 45.0358C5.37024 46.891 7.3067 49.3691 8.71503 52.1722C10.0828 54.9211 11.0848 57.8328 12.2224 60.6223C14.8494 54.7451 18.3973 49.3149 23.7869 45.1848C18.5734 41.0817 14.4567 36.3962 13.1973 29.6796C10.9359 35.7191 7.34735 40.7432 2.44525 45.0358Z" fill="#81ADC8" fill-opacity="1.000000" fill-rule="nonzero"/>
	<path id="Vector" d="M47.6066 51.1567C44.614 55.1787 42.7858 59.7693 41.1066 64.4412C40.9983 64.739 40.6462 66.4319 39.3597 66.4182C38.9941 66.4182 38.3848 65.8359 38.1545 65.3755C37.1389 63.3037 36.5025 60.988 35.216 59.1194C33.6993 56.8984 31.614 55.0703 29.8535 53.0255C29.5963 52.7277 29.5014 52.0505 29.6639 51.6849C29.9754 51.0078 30.5306 50.4662 30.9639 49.8433C33.1712 46.5933 35.3379 43.3162 37.6129 40.1204C38.0869 39.4568 39.0212 38.6578 39.5764 38.6578C40.9577 38.6443 41.2285 39.7277 41.4723 40.4995C42.5827 44.0475 44.4921 47.0131 47.2681 49.4641C48.2567 50.3849 47.7285 50.9943 47.6066 51.1567ZM32.3994 52.0912C35.6223 54.3796 37.816 57.6838 39.1431 61.3809C41.1066 57.7786 43.1108 54.1089 45.1691 50.3173C42.4066 48.4078 40.4837 44.8464 39.6035 42.2192C37.1931 45.5234 34.8098 48.787 32.3994 52.0912Z" fill="#CD4631" fill-opacity="1.000000" fill-rule="nonzero"/>
</svg>
