<svg width="74.000000" height="74.000000" viewBox="0 0 74 74" fill="none" xmlns="http://www.w3.org/2000/svg" xmlns:xlink="http://www.w3.org/1999/xlink">
	<desc>
			Created with Pixso.
	</desc>
	<defs>
		<clipPath id="clip301_54">
			<rect id="logo" width="74.000000" height="74.000000" fill="white" fill-opacity="0"/>
		</clipPath>
	</defs>
	<g clip-path="url(#clip301_54)">
		<path id="Ellipse" d="M32 68C23.7729 68 16.2653 64.8862 10.5928 59.7742C4.47391 54.2756 0.97821 46.938 0.183342 39.3435C-0.684669 31.1628 1.62733 23.3708 6.11842 17.1951C10.9472 10.5349 17.8792 6.2915 25.3491 4.70703C33.3941 2.98877 41.3851 4.47363 47.9965 8.29443C55.1249 12.4006 60.0697 18.8511 62.4338 26.1116L59.3904 27.1003C57.1023 20.0583 52.3491 14.4983 46.3958 11.0645C39.9876 7.3562 32.7348 6.40479 26.0131 7.83667C18.7696 9.3689 12.743 13.5149 8.70592 19.0767C4.34813 25.062 2.64378 32.1758 3.36513 39.0103C4.13174 46.3743 7.62511 52.801 12.7344 57.3975C18.2316 62.3572 25.1281 64.7957 32 64.8L32 68Z" fill="#000000" fill-opacity="1.000000" fill-rule="evenodd"/>
		<path id="POD OF CAST" d="M40.404 32.719C41.272 32.719 42.0233 32.8637 42.658 33.153C43.302 33.4423 43.7967 33.853 44.142 34.385C44.4873 34.917 44.66 35.547 44.66 36.275C44.66 36.9937 44.4873 37.6237 44.142 38.165C43.7967 38.697 43.302 39.1077 42.658 39.397C42.0233 39.677 41.272 39.817 40.404 39.817L38.43 39.817L38.43 42.519L36.162 42.519L36.162 32.719L40.404 32.719ZM40.278 37.969C40.9593 37.969 41.4773 37.8243 41.832 37.535C42.1867 37.2363 42.364 36.8163 42.364 36.275C42.364 35.7243 42.1867 35.3043 41.832 35.015C41.4773 34.7163 40.9593 34.567 40.278 34.567L38.43 34.567L38.43 37.969L40.278 37.969ZM50.6019 42.687C49.5846 42.687 48.6652 42.4677 47.8439 42.029C47.0319 41.5903 46.3926 40.9883 45.9259 40.223C45.4686 39.4483 45.2399 38.5803 45.2399 37.619C45.2399 36.6577 45.4686 35.7943 45.9259 35.029C46.3926 34.2543 47.0319 33.6477 47.8439 33.209C48.6652 32.7703 49.5846 32.551 50.6019 32.551C51.6192 32.551 52.5339 32.7703 53.3459 33.209C54.1579 33.6477 54.7972 34.2543 55.2639 35.029C55.7306 35.7943 55.9639 36.6577 55.9639 37.619C55.9639 38.5803 55.7306 39.4483 55.2639 40.223C54.7972 40.9883 54.1579 41.5903 53.3459 42.029C52.5339 42.4677 51.6192 42.687 50.6019 42.687ZM50.6019 40.755C51.1806 40.755 51.7032 40.6243 52.1699 40.363C52.6366 40.0923 53.0006 39.719 53.2619 39.243C53.5326 38.767 53.6679 38.2257 53.6679 37.619C53.6679 37.0123 53.5326 36.471 53.2619 35.995C53.0006 35.519 52.6366 35.1503 52.1699 34.889C51.7032 34.6183 51.1806 34.483 50.6019 34.483C50.0232 34.483 49.5006 34.6183 49.0339 34.889C48.5672 35.1503 48.1986 35.519 47.9279 35.995C47.6666 36.471 47.5359 37.0123 47.5359 37.619C47.5359 38.2257 47.6666 38.767 47.9279 39.243C48.1986 39.719 48.5672 40.0923 49.0339 40.363C49.5006 40.6243 50.0232 40.755 50.6019 40.755ZM57.1084 32.719L61.5604 32.719C62.6244 32.719 63.5624 32.9243 64.3744 33.335C65.1957 33.7363 65.8304 34.3057 66.2784 35.043C66.7357 35.7803 66.9644 36.639 66.9644 37.619C66.9644 38.599 66.7357 39.4577 66.2784 40.195C65.8304 40.9323 65.1957 41.5063 64.3744 41.917C63.5624 42.3183 62.6244 42.519 61.5604 42.519L57.1084 42.519L57.1084 32.719ZM61.4484 40.657C62.4284 40.657 63.2077 40.3863 63.7864 39.845C64.3744 39.2943 64.6684 38.5523 64.6684 37.619C64.6684 36.6857 64.3744 35.9483 63.7864 35.407C63.2077 34.8563 62.4284 34.581 61.4484 34.581L59.3764 34.581L59.3764 40.657L61.4484 40.657Z" fill="#CD4631" fill-opacity="1.000000" fill-rule="evenodd"/>
		<path id="POD OF CAST" d="M40.908 55.687C39.8907 55.687 38.9713 55.4677 38.15 55.029C37.338 54.5903 36.6987 53.9883 36.232 53.223C35.7747 52.4483 35.546 51.5803 35.546 50.619C35.546 49.6577 35.7747 48.7943 36.232 48.029C36.6987 47.2543 37.338 46.6477 38.15 46.209C38.9713 45.7703 39.8907 45.551 40.908 45.551C41.9253 45.551 42.84 45.7703 43.652 46.209C44.464 46.6477 45.1033 47.2543 45.57 48.029C46.0367 48.7943 46.27 49.6577 46.27 50.619C46.27 51.5803 46.0367 52.4483 45.57 53.223C45.1033 53.9883 44.464 54.5903 43.652 55.029C42.84 55.4677 41.9253 55.687 40.908 55.687ZM40.908 53.755C41.4867 53.755 42.0093 53.6243 42.476 53.363C42.9427 53.0923 43.3067 52.719 43.568 52.243C43.8387 51.767 43.974 51.2257 43.974 50.619C43.974 50.0123 43.8387 49.471 43.568 48.995C43.3067 48.519 42.9427 48.1503 42.476 47.889C42.0093 47.6183 41.4867 47.483 40.908 47.483C40.3293 47.483 39.8067 47.6183 39.34 47.889C38.8733 48.1503 38.5047 48.519 38.234 48.995C37.9727 49.471 37.842 50.0123 37.842 50.619C37.842 51.2257 37.9727 51.767 38.234 52.243C38.5047 52.719 38.8733 53.0923 39.34 53.363C39.8067 53.6243 40.3293 53.755 40.908 53.755ZM51.9785 47.483C51.1945 47.483 50.6018 47.6557 50.2005 48.001C49.7992 48.337 49.5985 48.8457 49.5985 49.527L49.5985 50.129L53.6305 50.129L53.6305 51.949L49.5985 51.949L49.5985 55.519L47.3305 55.519L47.3305 49.541C47.3305 48.281 47.7225 47.301 48.5065 46.601C49.2998 45.901 50.4058 45.551 51.8245 45.551C52.3845 45.551 52.9118 45.6117 53.4065 45.733C53.9012 45.845 54.3305 46.013 54.6945 46.237L53.9945 48.029C53.4345 47.665 52.7625 47.483 51.9785 47.483ZM40.852 68.687C39.8533 68.687 38.948 68.4723 38.136 68.043C37.3333 67.6043 36.6987 67.0023 36.232 66.237C35.7747 65.4623 35.546 64.5897 35.546 63.619C35.546 62.6483 35.7747 61.7803 36.232 61.015C36.6987 60.2403 37.3333 59.6383 38.136 59.209C38.948 58.7703 39.858 58.551 40.866 58.551C41.7153 58.551 42.4807 58.7003 43.162 58.999C43.8527 59.2977 44.4313 59.727 44.898 60.287L43.442 61.631C42.7793 60.8657 41.958 60.483 40.978 60.483C40.3713 60.483 39.83 60.6183 39.354 60.889C38.878 61.1503 38.5047 61.519 38.234 61.995C37.9727 62.471 37.842 63.0123 37.842 63.619C37.842 64.2257 37.9727 64.767 38.234 65.243C38.5047 65.719 38.878 66.0923 39.354 66.363C39.83 66.6243 40.3713 66.755 40.978 66.755C41.958 66.755 42.7793 66.3677 43.442 65.593L44.898 66.937C44.4313 67.5063 43.8527 67.9403 43.162 68.239C42.4713 68.5377 41.7013 68.687 40.852 68.687ZM50.2796 58.551C51.1849 58.551 51.9736 58.7283 52.6456 59.083C53.3176 59.4377 53.8402 59.9603 54.2136 60.651C54.5869 61.3417 54.7736 62.177 54.7736 63.157L54.7736 68.519L52.5056 68.519L52.5056 66.167L48.0256 66.167L48.0256 68.519L45.7856 68.519L45.7856 63.157C45.7856 62.177 45.9722 61.3417 46.3456 60.651C46.7189 59.9603 47.2416 59.4377 47.9136 59.083C48.5856 58.7283 49.3742 58.551 50.2796 58.551ZM52.5056 64.347L52.5056 62.947C52.5056 62.135 52.3049 61.5237 51.9036 61.113C51.5022 60.693 50.9562 60.483 50.2656 60.483C49.5656 60.483 49.0149 60.693 48.6136 61.113C48.2216 61.5237 48.0256 62.135 48.0256 62.947L48.0256 64.347L52.5056 64.347ZM59.6722 68.687C58.8975 68.687 58.1462 68.5843 57.4182 68.379C56.6995 68.1643 56.1208 67.889 55.6822 67.553L56.4522 65.845C56.8722 66.153 57.3715 66.4003 57.9502 66.587C58.5288 66.7737 59.1075 66.867 59.6862 66.867C60.3302 66.867 60.8062 66.7737 61.1142 66.587C61.4222 66.391 61.5762 66.1343 61.5762 65.817C61.5762 65.5837 61.4828 65.3923 61.2962 65.243C61.1188 65.0843 60.8855 64.9583 60.5962 64.865C60.3162 64.7717 59.9335 64.669 59.4482 64.557C58.7015 64.3797 58.0902 64.2023 57.6142 64.025C57.1382 63.8477 56.7275 63.563 56.3822 63.171C56.0462 62.779 55.8782 62.2563 55.8782 61.603C55.8782 61.0337 56.0322 60.5203 56.3402 60.063C56.6482 59.5963 57.1102 59.2277 57.7262 58.957C58.3515 58.6863 59.1122 58.551 60.0082 58.551C60.6335 58.551 61.2448 58.6257 61.8422 58.775C62.4395 58.9243 62.9622 59.139 63.4102 59.419L62.7102 61.141C61.8048 60.6277 60.8995 60.371 59.9942 60.371C59.3595 60.371 58.8882 60.4737 58.5802 60.679C58.2815 60.8843 58.1322 61.155 58.1322 61.491C58.1322 61.827 58.3048 62.079 58.6502 62.247C59.0048 62.4057 59.5415 62.5643 60.2602 62.723C61.0068 62.9003 61.6182 63.0777 62.0942 63.255C62.5702 63.4323 62.9762 63.7123 63.3122 64.095C63.6575 64.4777 63.8302 64.9957 63.8302 65.649C63.8302 66.209 63.6715 66.7223 63.3542 67.189C63.0462 67.6463 62.5795 68.0103 61.9542 68.281C61.3288 68.5517 60.5682 68.687 59.6722 68.687ZM71.8642 61.463C71.0242 60.9777 70.1235 60.665 69.1622 60.525L69.1622 68.519L66.8942 68.519L66.8942 60.525C65.9329 60.665 65.0275 60.9777 64.1782 61.463L63.4082 59.769C64.0802 59.3677 64.8082 59.0643 65.5922 58.859C66.3762 58.6537 67.1835 58.551 68.0142 58.551C68.8542 58.551 69.6662 58.6537 70.4502 58.859C71.2435 59.0643 71.9715 59.3677 72.6342 59.769L71.8642 61.463Z" fill="#000000" fill-opacity="1.000000" fill-rule="evenodd"/>
	</g>
</svg>
