<svg width="24.000000" height="24.000000" viewBox="0 0 24 24" fill="none" xmlns="http://www.w3.org/2000/svg" xmlns:xlink="http://www.w3.org/1999/xlink">
	<desc>
			Created with Pixso.
	</desc>
	<defs>
		<radialGradient id="paint_radial_301_2765_0" cx="0.000000" cy="0.000000" r="1.000000" gradientUnits="userSpaceOnUse" gradientTransform="translate(8.99999 17.25) rotate(-55.3758) scale(19.1397 19.1397)">
			<stop stop-color="#B13589"/>
			<stop offset="0.793090" stop-color="#C62F94"/>
			<stop offset="1.000000" stop-color="#8A3AC8"/>
		</radialGradient>
		<radialGradient id="paint_radial_301_2766_0" cx="0.000000" cy="0.000000" r="1.000000" gradientUnits="userSpaceOnUse" gradientTransform="translate(8.24999 23.25) rotate(-65.1363) scale(16.9457 16.9457)">
			<stop stop-color="#E0E8B7"/>
			<stop offset="0.444662" stop-color="#FB8A2E"/>
			<stop offset="0.714740" stop-color="#E2425C"/>
			<stop offset="1.000000" stop-color="#E2425C" stop-opacity="0.000000"/>
		</radialGradient>
		<radialGradient id="paint_radial_301_2767_0" cx="0.000000" cy="0.000000" r="1.000000" gradientUnits="userSpaceOnUse" gradientTransform="translate(0.374998 2.25) rotate(-8.13009) scale(29.1682 6.23877)">
			<stop offset="0.156701" stop-color="#406ADC"/>
			<stop offset="0.467799" stop-color="#6A45BE"/>
			<stop offset="1.000000" stop-color="#6A45BE" stop-opacity="0.000000"/>
		</radialGradient>
	</defs>
	<rect id="instagram" width="24.000000" height="24.000000" fill="#FFFFFF" fill-opacity="0"/>
	<path id="instagram" d="M3.27704 5.72461C2.66667 6.92236 2.66667 8.49072 2.66667 11.627L2.66667 12.3735C2.66667 15.5098 2.66667 17.0781 3.27704 18.2759C3.81392 19.3296 4.67062 20.1865 5.72432 20.7231C6.92223 21.3335 8.49037 21.3335 11.6267 21.3335L12.3733 21.3335C15.5096 21.3335 17.0778 21.3335 18.2757 20.7231C19.3294 20.1865 20.1861 19.3296 20.723 18.2759C21.3333 17.0781 21.3333 15.5098 21.3333 12.3735L21.3333 11.627C21.3333 8.49072 21.3333 6.92236 20.723 5.72461C20.1861 4.6709 19.3294 3.81445 18.2757 3.27734C17.0778 2.66699 15.5096 2.66699 12.3733 2.66699L11.6267 2.66699C8.49037 2.66699 6.92223 2.66699 5.72432 3.27734C4.67062 3.81445 3.81392 4.6709 3.27704 5.72461ZM12.3733 4.53369L11.6267 4.53369C10.0277 4.53369 8.94078 4.53516 8.10062 4.60352C7.28223 4.67041 6.86372 4.79199 6.57178 4.94043C5.86931 5.29834 5.29817 5.86963 4.94025 6.57227C4.79149 6.86426 4.6703 7.28271 4.60344 8.10107C4.53479 8.94092 4.53334 10.0278 4.53334 11.627L4.53334 12.3735C4.53334 13.9727 4.53479 15.0596 4.60344 15.8999C4.6703 16.7183 4.79149 17.1367 4.94025 17.4287C5.29817 18.1309 5.86931 18.7021 6.57178 19.0601C6.86372 19.209 7.28223 19.3301 8.10062 19.397C8.94078 19.4653 10.0277 19.4668 11.6267 19.4668L12.3733 19.4668C13.9723 19.4668 15.0592 19.4653 15.8994 19.397C16.7178 19.3301 17.1363 19.209 17.4282 19.0601C18.1307 18.7021 18.7018 18.1309 19.0598 17.4287C19.2085 17.1367 19.3297 16.7183 19.3966 15.8999C19.4652 15.0596 19.4667 13.9727 19.4667 12.3735L19.4667 11.627C19.4667 10.0278 19.4652 8.94092 19.3966 8.10107C19.3297 7.28271 19.2085 6.86426 19.0598 6.57227C18.7018 5.86963 18.1307 5.29834 17.4282 4.94043C17.1363 4.79199 16.7178 4.67041 15.8994 4.60352C15.0592 4.53516 13.9723 4.53369 12.3733 4.53369ZM18.5333 6.86719C18.5333 7.64014 17.9065 8.26709 17.1333 8.26709C16.3601 8.26709 15.7333 7.64014 15.7333 6.86719C15.7333 6.09375 16.3601 5.4668 17.1333 5.4668C17.9065 5.4668 18.5333 6.09375 18.5333 6.86719ZM12 16.667C14.5773 16.667 16.6667 14.5776 16.6667 12.0005C16.6667 9.42285 14.5773 7.3335 12 7.3335C9.42267 7.3335 7.33334 9.42285 7.33334 12.0005C7.33334 14.5776 9.42267 16.667 12 16.667ZM12 14.8003C13.5464 14.8003 14.8 13.5469 14.8 12.0005C14.8 10.4541 13.5464 9.2002 12 9.2002C10.4536 9.2002 9.20001 10.4541 9.20001 12.0005C9.20001 13.5469 10.4536 14.8003 12 14.8003Z" fill="#000000" fill-opacity="1.000000" fill-rule="evenodd"/>
</svg>
