<svg width="24.000000" height="24.000000" viewBox="0 0 24 24" fill="none" xmlns="http://www.w3.org/2000/svg" xmlns:xlink="http://www.w3.org/1999/xlink">
	<desc>
			Created with Pixso.
	</desc>
	<defs>
		<clipPath id="clip301_2769">
			<rect id="tiktok" width="24.000000" height="24.000000" fill="white" fill-opacity="0"/>
		</clipPath>
	</defs>
	<rect id="tiktok" width="24.000000" height="24.000000" fill="#FFFFFF" fill-opacity="0"/>
	<g clip-path="url(#clip301_2769)">
		<path id="vector" d="M6.33812 14.8447C6.45532 13.8745 6.85333 13.3311 7.60335 12.7739C8.6765 12.0195 10.017 12.4463 10.017 12.4463L10.017 9.91504C10.3429 9.90674 10.6689 9.92627 10.9913 9.97266L10.9913 13.2305C10.9913 13.2305 9.65115 12.8037 8.57802 13.5586C7.8284 14.1152 7.42958 14.6587 7.31279 15.6294C7.30913 16.1562 7.40802 16.8452 7.8634 17.4404C7.75081 17.3828 7.63605 17.3169 7.51912 17.2432C6.51596 16.5698 6.33324 15.5591 6.33812 14.8447ZM16.5263 5.23438C15.7881 4.42578 15.5089 3.60889 15.408 3.03516L16.3366 3.03516C16.3366 3.03516 16.1515 4.53955 17.5009 6.01904L17.5197 6.03906C17.1559 5.81006 16.8224 5.54004 16.5263 5.23438ZM20.9999 7.52783L20.9999 10.7202C20.9999 10.7202 19.8149 10.6738 18.9379 10.4507C17.7134 10.1387 16.9263 9.66016 16.9263 9.66016C16.9263 9.66016 16.3826 9.31885 16.3387 9.29492L16.3387 15.8867C16.3387 16.2539 16.2381 17.1704 15.9317 17.9346C15.5317 18.9351 14.9143 19.5913 14.8008 19.7256C14.8008 19.7256 14.0499 20.6128 12.7253 21.2104C11.5313 21.7495 10.483 21.7358 10.1696 21.7495C10.1696 21.7495 8.35744 21.8213 6.72676 20.7612C6.37415 20.5278 6.04498 20.2632 5.74356 19.9712L5.75169 19.9771C7.38278 21.0366 9.19455 20.9648 9.19455 20.9648C9.50832 20.9512 10.5566 20.9648 11.7502 20.4258C13.0737 19.8286 13.8257 18.9409 13.8257 18.9409C13.938 18.8071 14.5582 18.1504 14.9566 17.1499C15.2623 16.3857 15.3636 15.4688 15.3636 15.1021L15.3636 8.51074C15.4075 8.53516 15.9508 8.87646 15.9508 8.87646C15.9508 8.87646 16.7383 9.35547 17.9628 9.66699C18.8402 9.89014 20.0249 9.93652 20.0249 9.93652L20.0249 7.43506C20.4302 7.52588 20.7757 7.55078 20.9999 7.52783Z" fill="#000000" fill-opacity="1.000000" fill-rule="nonzero"/>
		<path id="vector" d="M20.0253 7.43506L20.0253 9.93555C20.0253 9.93555 18.8407 9.88916 17.9633 9.66602C16.7387 9.354 15.9513 8.87549 15.9513 8.87549C15.9513 8.87549 15.408 8.53418 15.364 8.51025L15.364 15.1025C15.364 15.4697 15.2635 16.3867 14.9571 17.1509C14.557 18.1514 13.9397 18.8076 13.8261 18.9419C13.8261 18.9419 13.0749 19.8291 11.7507 20.4268C10.5571 20.9658 9.50874 20.9521 9.19498 20.9658C9.19498 20.9658 7.38321 21.0376 5.75214 19.978L5.74399 19.9722C5.57178 19.8052 5.40968 19.6289 5.25848 19.4448C4.73799 18.8101 4.41895 18.0596 4.33878 17.8452C4.33862 17.8447 4.33862 17.8438 4.33878 17.8428C4.20976 17.4707 3.93874 16.5771 3.97577 15.7114C4.04129 14.1846 4.57846 13.2471 4.72049 13.0122C5.09665 12.3721 5.58588 11.7993 6.16641 11.3193C6.6787 10.9053 7.25937 10.5757 7.88458 10.3442C8.56047 10.0723 9.28421 9.92676 10.017 9.91504L10.017 12.4463C10.017 12.4463 8.67651 12.0215 7.60378 12.7739C6.85376 13.3311 6.45575 13.8745 6.33855 14.8447C6.33366 15.5591 6.51639 16.5698 7.51872 17.2437C7.63567 17.3179 7.75043 17.3833 7.86301 17.4409C8.03812 17.6685 8.25125 17.8667 8.49379 18.0278C9.47293 18.6479 10.2934 18.6909 11.3425 18.2886C12.0421 18.0195 12.5686 17.4131 12.8128 16.7407C12.9662 16.3213 12.9642 15.8989 12.9642 15.4619L12.9642 3.03516L15.4059 3.03516C15.5069 3.60889 15.786 4.42578 16.5243 5.23438C16.8204 5.54004 17.1539 5.81006 17.5176 6.03906C17.6251 6.1499 18.1745 6.69971 18.8797 7.03711C19.2444 7.21143 19.6288 7.34521 20.0253 7.43506Z" fill="#000000" fill-opacity="1.000000" fill-rule="nonzero"/>
		<path id="vector" d="M3.36691 17.0674L3.36691 17.0693L3.42751 17.2334C3.42055 17.2144 3.39803 17.1562 3.36691 17.0674Z" fill="#000000" fill-opacity="1.000000" fill-rule="nonzero"/>
		<path id="vector" d="M7.88461 10.3433C7.2594 10.5747 6.67873 10.9043 6.16644 11.3184C5.58572 11.7998 5.09662 12.3735 4.72093 13.0151C4.5789 13.2495 4.04172 14.1875 3.97621 15.7144C3.93918 16.5801 4.21021 17.4736 4.3392 17.8457C4.33907 17.8467 4.33907 17.8472 4.3392 17.8481C4.42059 18.0605 4.73843 18.811 5.25893 19.4473C5.41013 19.6318 5.57222 19.8081 5.74443 19.9746C5.19267 19.6089 4.70059 19.167 4.28427 18.6626C3.76825 18.0337 3.45001 17.291 3.36699 17.0718C3.3669 17.0703 3.3669 17.0684 3.36699 17.0669L3.36699 17.0645C3.23758 16.6924 2.96573 15.7988 3.00359 14.9321C3.06911 13.4048 3.60628 12.4678 3.74831 12.2329C4.12387 11.5913 4.61301 11.0171 5.19382 10.5361C5.70601 10.1221 6.28668 9.79248 6.91199 9.56104C7.30202 9.40576 7.70833 9.2915 8.1239 9.21973C8.7502 9.11523 9.38985 9.10596 10.0191 9.19287L10.0191 9.91455C9.2856 9.92578 8.56113 10.0718 7.88461 10.3433Z" fill="#000000" fill-opacity="1.000000" fill-rule="nonzero"/>
		<path id="vector" d="M15.408 3.03467L12.9662 3.03467L12.9662 15.4619C12.9662 15.8989 12.9662 16.3198 12.8148 16.7407C12.5682 17.4126 12.0437 18.019 11.3445 18.2881C10.295 18.6924 9.47455 18.6475 8.49582 18.0278C8.25285 17.8672 8.03917 17.6694 7.8634 17.4424C8.69725 17.8687 9.44362 17.8613 10.3682 17.5059C11.067 17.2368 11.5923 16.6299 11.8382 15.958C11.992 15.5386 11.9899 15.1157 11.9899 14.6797L11.9899 2.25L15.3616 2.25C15.3616 2.25 15.3237 2.55908 15.408 3.03467ZM20.0253 6.74316L20.0253 7.43506C19.6295 7.34424 19.2458 7.21094 18.8817 7.03662C18.1765 6.69922 17.6271 6.14941 17.5197 6.03857C17.6443 6.1167 17.7737 6.18848 17.9071 6.25244C18.7645 6.6626 19.609 6.78516 20.0253 6.74316Z" fill="#000000" fill-opacity="1.000000" fill-rule="nonzero"/>
	</g>
</svg>
