<svg width="24.000000" height="24.000000" viewBox="0 0 24 24" fill="none" xmlns="http://www.w3.org/2000/svg" xmlns:xlink="http://www.w3.org/1999/xlink">
	<desc>
			Created with Pixso.
	</desc>
	<defs/>
	<rect id="twitter" width="24.000000" height="24.000000" fill="#FFFFFF" fill-opacity="0"/>
	<path id="twitter" d="M8.84155 21C6.41531 21 4.15363 20.2944 2.25 19.0767C3.86624 19.1812 6.71855 18.9307 8.49269 17.2388C5.82381 17.1162 4.62019 15.0693 4.46321 14.1943C4.68997 14.2817 5.77147 14.3867 6.382 14.1421C3.31192 13.3721 2.84094 10.6782 2.94561 9.85596C3.52124 10.2583 4.49809 10.3979 4.88185 10.3633C2.0211 8.31641 3.05026 5.2373 3.55614 4.57227C5.60912 7.4165 8.6859 9.01416 12.4923 9.10254C12.4205 8.78809 12.3826 8.46045 12.3826 8.12354C12.3826 5.70801 14.3351 3.75 16.7435 3.75C18.0019 3.75 19.1358 4.28467 19.9318 5.13965C20.7727 4.94238 22.0382 4.48145 22.6569 4.08252C22.3451 5.20215 21.3742 6.13623 20.7869 6.48242C21.3028 6.4043 22.6986 6.13623 23.25 5.76172C22.9773 6.39111 21.948 7.43701 21.1033 8.02246C21.2605 14.9536 15.9574 21 8.84155 21Z" fill="#000000" fill-opacity="1.000000" fill-rule="nonzero"/>
</svg>
