<svg width="146.324951" height="151.263672" viewBox="0 0 146.325 151.264" fill="none" xmlns="http://www.w3.org/2000/svg" xmlns:xlink="http://www.w3.org/1999/xlink">
	<desc>
			Created with Pixso.
	</desc>
	<defs/>
	<path id="Star 4" d="M61.7821 4.59082L65.3777 39.5063C65.7762 43.3765 70.1793 45.4014 73.3768 43.1851L109.61 18.0713C114.151 14.9238 119.764 20.2158 116.89 24.9341L99.3354 53.7461C97.5337 56.7031 99.1306 60.5586 102.496 61.3755L142.418 71.0688C147.326 72.2603 147.718 79.0898 142.979 80.8359L101.746 96.0225C98.5758 97.1899 97.3892 101.056 99.3585 103.801L114.792 125.312C118.039 129.838 112.734 135.558 107.976 132.66L80.0233 115.628C77.0662 113.827 73.2109 115.424 72.3939 118.789L65.4578 147.356C64.1122 152.897 56.0769 152.411 55.4106 146.747L50.4567 104.639C49.9841 100.622 45.2567 98.7178 42.1322 101.285L15.0981 123.499C10.5436 127.241 4.31702 121.578 7.61218 116.689L32.8214 79.2939C35.1803 75.7944 32.524 71.1055 28.3098 71.3296L5.39075 72.5488C-0.712891 72.874 -2.13953 64.1538 3.74939 62.5166L23.282 57.0859C26.8773 56.0864 28.2255 51.6968 25.8112 48.8511L8.52844 28.4824C4.77234 24.0557 10.1299 17.7866 15.0878 20.8076L37.453 34.4341C40.4102 36.2358 44.2654 34.6387 45.0824 31.2739L51.7268 3.9082C53.0823 -1.6748 61.1937 -1.12402 61.7821 4.59082Z" fill="#000000" fill-opacity="1.000000" fill-rule="nonzero"/>
</svg>
