<svg width="16.000000" height="16.000000" viewBox="0 0 16 16" fill="none" xmlns="http://www.w3.org/2000/svg" xmlns:xlink="http://www.w3.org/1999/xlink">
	<desc>
			Created with Pixso.
	</desc>
	<defs/>
	<path id="Vector" d="M9.57568 9.59644C9.35339 9.40955 9.09235 9.26526 8.80804 9.17224C8.52368 9.07922 8.22186 9.03918 7.92029 9.05481C7.62189 9.04163 7.32355 9.08264 7.0426 9.17566C6.76172 9.26855 6.50378 9.41162 6.28381 9.59644C6.10883 9.75476 6.00201 9.96533 5.98285 10.1897C5.92352 10.71 5.92352 11.2344 5.98285 11.7546C6.03925 12.3909 6.15216 13.2335 6.30261 14.0934C6.36169 14.4908 6.44965 14.8844 6.56592 15.2712C6.67035 15.5057 6.85516 15.7029 7.09259 15.8331C7.33002 15.9634 7.6073 16.0197 7.88269 15.9935C8.15942 16.0201 8.43811 15.9642 8.67712 15.834C8.91626 15.7039 9.10272 15.5065 9.20886 15.2712C9.32513 14.8844 9.41315 14.4908 9.47223 14.0934C9.61328 13.2335 9.72614 12.3737 9.78259 11.7546C9.84192 11.2344 9.84192 10.71 9.78259 10.1897C9.78961 9.9762 9.71655 9.76685 9.57568 9.59644ZM6.0957 6.68164C6.0957 7.02173 6.20605 7.35425 6.41272 7.63708C6.61938 7.9198 6.91321 8.14026 7.2569 8.27039C7.60065 8.40051 7.97882 8.43457 8.34375 8.36829C8.70862 8.30188 9.04382 8.13806 9.30682 7.89758C9.56995 7.6571 9.74908 7.35071 9.82166 7.01721C9.89423 6.68359 9.85699 6.33777 9.71466 6.02356C9.57227 5.70935 9.33112 5.4408 9.02179 5.25183C8.71252 5.06287 8.34882 4.96204 7.97675 4.96204C7.47784 4.96204 6.99939 5.14319 6.64661 5.4657C6.29388 5.78821 6.0957 6.22559 6.0957 6.68164ZM7.92029 0.000854492C6.04553 0.00866699 4.23401 0.62146 2.80524 1.7312C1.3764 2.84094 0.422119 4.3761 0.110657 6.06628C-0.200928 7.75635 0.150452 9.4928 1.1026 10.9692C2.05475 12.4456 3.54657 13.5673 5.31506 14.1364C5.33282 14.1406 5.3515 14.1409 5.36945 14.1371C5.38745 14.1333 5.40405 14.1256 5.41797 14.1146C5.43188 14.1035 5.44263 14.0896 5.44928 14.0739C5.45593 14.0582 5.45825 14.0413 5.45612 14.0245C5.40912 13.7751 5.37146 13.5259 5.33386 13.2852C5.33014 13.2417 5.31317 13.2002 5.28491 13.1653C5.25665 13.1302 5.2182 13.1033 5.17395 13.0873C3.7171 12.4961 2.52728 11.4646 1.8042 10.1659C1.08124 8.86731 0.86908 7.38074 1.20361 5.95593C1.53815 4.53125 2.3988 3.25525 3.64105 2.34216C4.8833 1.4292 6.4314 0.934814 8.02533 0.942139C9.61926 0.949585 11.1619 1.45825 12.3939 2.38269C13.6259 3.30725 14.4724 4.59119 14.7911 6.01892C15.1098 7.44666 14.8813 8.93115 14.1439 10.223C13.4065 11.515 12.2053 12.5354 10.7419 13.1132C10.6976 13.1292 10.6592 13.156 10.6309 13.191C10.6027 13.2261 10.5858 13.2676 10.582 13.3109C10.582 13.5516 10.5068 13.801 10.4597 14.0503C10.4576 14.067 10.46 14.084 10.4666 14.0997C10.4733 14.1154 10.484 14.1293 10.4979 14.1404C10.5118 14.1514 10.5285 14.1592 10.5464 14.163C10.5643 14.1667 10.583 14.1664 10.6008 14.1621C12.3964 13.6049 13.9152 12.4799 14.8837 10.9895C15.8522 9.49927 16.2068 7.74182 15.8835 6.03381C15.5601 4.32568 14.5802 2.7793 13.1202 1.67322C11.6603 0.567139 9.81622 -0.0258789 7.92029 0.000854492ZM7.7793 3.33691C8.65704 3.30542 9.52441 3.5199 10.2651 3.9519C11.0057 4.38379 11.5842 5.01233 11.923 5.75342C12.2617 6.49438 12.3445 7.31238 12.1604 8.09766C11.9761 8.88281 11.5337 9.5979 10.8924 10.1467C10.8586 10.1786 10.832 10.2163 10.8143 10.2577C10.7965 10.299 10.7878 10.3431 10.7889 10.3875C10.8092 10.6738 10.8092 10.9609 10.7889 11.2473C10.7896 11.2651 10.7953 11.2825 10.8054 11.2977C10.8156 11.313 10.8298 11.3254 10.8469 11.3341C10.864 11.3428 10.8832 11.3473 10.9026 11.3472C10.9222 11.3469 10.9413 11.3422 10.9583 11.3334C11.9009 10.7468 12.613 9.89966 12.9904 8.91602C13.3676 7.93237 13.3901 6.86414 13.0544 5.8678C12.7189 4.8717 12.0428 4.00012 11.1256 3.38098C10.2083 2.76172 9.09814 2.42773 7.95795 2.42773C6.81775 2.42773 5.70758 2.76172 4.79034 3.38098C3.87305 4.00012 3.19702 4.8717 2.86139 5.8678C2.52576 6.86414 2.54828 7.93237 2.92554 8.91602C3.3028 9.89966 4.01501 10.7468 4.9577 11.3334C4.97375 11.3429 4.99255 11.3483 5.0119 11.3488C5.03113 11.3491 5.05023 11.3446 5.06683 11.3357C5.08344 11.3268 5.09705 11.3137 5.10596 11.2981C5.11493 11.2825 5.11896 11.2649 5.11755 11.2473C5.11755 10.955 5.11755 10.6885 5.11755 10.3875C5.12238 10.3428 5.11554 10.2975 5.0976 10.2557C5.07959 10.2139 5.05096 10.1765 5.0141 10.1467C4.396 9.61157 3.96472 8.92139 3.7746 8.16272C3.58447 7.40405 3.64386 6.61108 3.94543 5.88318C4.24707 5.15552 4.77722 4.52539 5.46942 4.07239C6.16162 3.61926 6.98486 3.3634 7.83569 3.33691L7.7793 3.33691Z" fill="#000000" fill-opacity="1.000000" fill-rule="nonzero"/>
</svg>
