<svg width="105.000000" height="105.000000" viewBox="0 0 105 105" fill="none" xmlns="http://www.w3.org/2000/svg" xmlns:xlink="http://www.w3.org/1999/xlink">
	<desc>
			Created with Pixso.
	</desc>
	<defs>
		<clipPath id="clip301_521">
			<rect id="Sparkle" width="105.000000" height="105.000000" fill="white" fill-opacity="0"/>
		</clipPath>
	</defs>
	<rect id="Sparkle" width="105.000000" height="105.000000" fill="#FFFFFF" fill-opacity="0"/>
	<g clip-path="url(#clip301_521)">
		<path id="Vector" d="M89.9246 62.3433C85.8777 61.3042 79.06 60.1922 76.5443 58.4787C75.5053 57.7678 75.6329 56.9839 75.8152 56.437C75.9975 55.9266 77.0365 55.3979 77.6746 55.4344C79.1147 55.4891 80.5547 55.799 81.9402 56.1818C85.0209 57.0203 88.0834 57.8953 91.1094 58.8979C92.7136 59.4266 93.224 60.6479 92.2943 61.4318C91.7475 61.8875 91.2371 62.3433 89.9246 62.3433Z" fill="#CD4631" fill-opacity="1.000000" fill-rule="nonzero"/>
		<path id="Vector" d="M26.1224 90.5073C26.3047 89.5411 26.6693 89.0308 27.1979 88.2833C29.2578 85.4031 31.4088 82.5776 33.5234 79.7521C33.651 79.588 33.7969 79.4058 33.9609 79.2781C34.6901 78.6583 35.5104 77.9292 36.4583 78.6036C37.4062 79.2964 37.0781 80.3172 36.5677 81.1375C34.4531 84.5828 32.3021 88.0099 30.1146 91.4188C29.7865 91.9474 29.2213 92.4031 28.6562 92.6766C27.2526 93.3511 26.013 92.4214 26.1224 90.5073Z" fill="#CD4631" fill-opacity="1.000000" fill-rule="nonzero"/>
		<path id="Vector" d="M71.6772 89.87C71.6772 90.6903 71.0391 91.2737 70.5652 91.3648C69.9272 91.4924 69.3803 91.3831 68.4688 90.7632C68.1589 90.5627 67.9766 90.0706 67.7943 89.6877C66.4636 86.8075 65.1146 83.9456 63.8204 81.0471C63.4922 80.3362 63.1641 79.5159 63.2188 78.7684C63.2735 78.094 63.6928 77.1278 64.2397 76.8909C64.7683 76.6539 65.4792 76.5809 66.3178 77.4012C66.6277 77.6929 66.9193 78.1851 67.1198 78.6409C68.4323 81.6851 69.7448 84.7294 71.0209 87.7919C71.2579 88.3752 71.4037 89.0132 71.6772 89.87Z" fill="#CD4631" fill-opacity="1.000000" fill-rule="nonzero"/>
		<path id="Vector" d="M13.8177 64.7499C12.9792 64.5129 12.4323 64.1119 12.3047 63.5651C12.1407 62.8723 12.487 61.9426 12.888 61.2864C13.1979 60.7942 13.9089 60.4843 14.5104 60.2838C17.5182 59.2812 20.5443 58.2968 23.5886 57.3671C24.099 57.2031 24.7552 57.1484 25.2474 57.3124C26.0495 57.5859 26.3958 58.2239 25.7396 58.9895C25.375 59.427 24.9557 59.8828 24.4636 60.1198C21.6198 61.5416 18.7578 62.9088 15.8776 64.2578C15.349 64.4948 14.638 65.0051 13.8177 64.7499Z" fill="#CD4631" fill-opacity="1.000000" fill-rule="nonzero"/>
		<path id="Vector" d="M75.5782 33.4689C75.1771 33.3049 74.8307 32.6486 74.8125 32.2111C74.7943 31.6096 74.9766 30.8804 75.3412 30.3882C77.0365 28.0549 78.8229 25.758 80.5912 23.4793C80.8464 23.133 81.1927 22.8596 81.5391 22.5861C82.3229 21.9846 83.3438 21.4559 84.0365 22.3674C84.4375 22.896 84.5651 24.2449 84.1823 24.7007C81.849 27.5444 79.3333 30.2606 76.836 32.9767C76.6354 33.2137 76.2344 33.5965 75.5782 33.4689Z" fill="#CD4631" fill-opacity="1.000000" fill-rule="nonzero"/>
		<path id="Vector" d="M17.1354 29.5129C18.1562 29.8228 18.9401 30.0051 19.6875 30.2786C21.8568 31.0624 24.026 31.8645 26.1771 32.6848C26.7786 32.9218 27.4167 33.1588 27.9088 33.5416C28.2552 33.815 28.638 34.5078 28.5104 34.7629C28.2917 35.1822 27.9635 35.7109 27.2161 35.6562C26.9062 35.6379 26.5052 35.6197 26.1588 35.5286C23.7161 34.8723 21.2734 34.2525 18.8489 33.5234C18.0286 33.2864 17.1719 32.94 16.5156 32.4114C16.0417 32.0286 15.6042 31.1718 15.7318 30.6614C15.8411 30.1874 16.2422 29.5129 17.1354 29.5129Z" fill="#CD4631" fill-opacity="1.000000" fill-rule="nonzero"/>
		<path id="Vector" d="M50.4949 21.9661C50.4767 22.1848 50.4584 22.4036 50.3855 22.6041C50.0756 23.4973 49.8751 24.4999 48.6173 24.4088C47.2866 24.3176 47.2319 23.2239 47.2501 22.3306C47.3048 20.1796 47.5053 18.0286 47.6694 15.8593C47.7423 15.0754 47.8334 14.2733 48.0522 13.5259C48.2709 12.7603 48.5808 11.9764 49.6381 12.1041C50.6225 12.2317 50.9506 12.8879 50.9689 13.7629C50.9689 14.7108 50.6772 20.1796 50.4949 21.9661Z" fill="#CD4631" fill-opacity="1.000000" fill-rule="nonzero"/>
	</g>
</svg>
