<svg width="16.000000" height="16.000000" viewBox="0 0 16 16" fill="none" xmlns="http://www.w3.org/2000/svg" xmlns:xlink="http://www.w3.org/1999/xlink">
	<desc>
			Created with Pixso.
	</desc>
	<defs>
		<clipPath id="clip301_467">
			<rect id="google podcast" width="16.000000" height="16.000000" fill="white" fill-opacity="0"/>
		</clipPath>
	</defs>
	<g clip-path="url(#clip301_467)">
		<path id="Vector" d="M7 5.09106L7 7.51562L7 8.48474L7 10.9093L9.00006 10.9093L9.00006 8.48474L9.00006 7.51562L9.00006 5.09106L7 5.09106Z" fill="#FAB908" fill-opacity="1.000000" fill-rule="nonzero"/>
		<path id="Vector" d="M1 8.45459C1.55231 8.45459 2 8.00684 2 7.45459C2 6.90234 1.55231 6.45459 1 6.45459C0.447693 6.45459 0 6.90234 0 7.45459C0 8.00684 0.447693 8.45459 1 8.45459Z" fill="#0066D9" fill-opacity="1.000000" fill-rule="nonzero"/>
		<path id="Vector" d="M1 9.54541C1.55231 9.54541 2 9.09766 2 8.54541C2 7.99316 1.55231 7.54541 1 7.54541C0.447693 7.54541 0 7.99316 0 8.54541C0 9.09766 0.447693 9.54541 1 9.54541Z" fill="#0066D9" fill-opacity="1.000000" fill-rule="nonzero"/>
		<path id="Vector" d="M2 7.45459L0 7.45459L0 8.54553L2 8.54553L2 7.45459Z" fill="#0066D9" fill-opacity="1.000000" fill-rule="nonzero"/>
		<path id="Vector" d="M15 9.54541C15.5523 9.54541 16 9.09766 16 8.54541C16 7.99316 15.5523 7.54541 15 7.54541C14.4478 7.54541 14 7.99316 14 8.54541C14 9.09766 14.4478 9.54541 15 9.54541Z" fill="#4285F4" fill-opacity="1.000000" fill-rule="nonzero"/>
		<path id="Vector" d="M15 8.45459C15.5523 8.45459 16 8.00684 16 7.45459C16 6.90234 15.5523 6.45459 15 6.45459C14.4478 6.45459 14 6.90234 14 7.45459C14 8.00684 14.4478 8.45459 15 8.45459Z" fill="#4285F4" fill-opacity="1.000000" fill-rule="nonzero"/>
		<path id="Vector" d="M14 8.54553L16 8.54553L16 7.45459L14 7.45459L14 8.54553Z" fill="#4285F4" fill-opacity="1.000000" fill-rule="nonzero"/>
		<path id="Vector" d="M4.45435 11.7273C5.00665 11.7273 5.45435 11.2795 5.45435 10.7273C5.45435 10.175 5.00665 9.72729 4.45435 9.72729C3.90204 9.72729 3.45435 10.175 3.45435 10.7273C3.45435 11.2795 3.90204 11.7273 4.45435 11.7273Z" fill="#EA4335" fill-opacity="1.000000" fill-rule="nonzero"/>
		<path id="Vector" d="M4.45435 12.8184C5.00665 12.8184 5.45435 12.3707 5.45435 11.8184C5.45435 11.2661 5.00665 10.8184 4.45435 10.8184C3.90204 10.8184 3.45435 11.2661 3.45435 11.8184C3.45435 12.3707 3.90204 12.8184 4.45435 12.8184Z" fill="#EA4335" fill-opacity="1.000000" fill-rule="nonzero"/>
		<path id="Vector" d="M5.45435 10.7275L3.45435 10.7275L3.45435 11.8185L5.45435 11.8185L5.45435 10.7275Z" fill="#EA4335" fill-opacity="1.000000" fill-rule="nonzero"/>
		<path id="Vector" d="M4.45435 5.18188C5.00665 5.18188 5.45435 4.73413 5.45435 4.18188C5.45435 3.62964 5.00665 3.18188 4.45435 3.18188C3.90204 3.18188 3.45435 3.62964 3.45435 4.18188C3.45435 4.73413 3.90204 5.18188 4.45435 5.18188Z" fill="#EA4335" fill-opacity="1.000000" fill-rule="nonzero"/>
		<path id="Vector" d="M4.45435 8.72705C5.00665 8.72705 5.45435 8.2793 5.45435 7.72705C5.45435 7.1748 5.00665 6.72705 4.45435 6.72705C3.90204 6.72705 3.45435 7.1748 3.45435 7.72705C3.45435 8.2793 3.90204 8.72705 4.45435 8.72705Z" fill="#EA4335" fill-opacity="1.000000" fill-rule="nonzero"/>
		<path id="Vector" d="M5.45435 4.18164L3.45435 4.18164L3.45435 7.74988L5.45435 7.74988L5.45435 4.18164Z" fill="#EA4335" fill-opacity="1.000000" fill-rule="nonzero"/>
		<path id="Vector" d="M11.5457 6.27295C12.0979 6.27295 12.5457 5.8252 12.5457 5.27295C12.5457 4.7207 12.0979 4.27295 11.5457 4.27295C10.9934 4.27295 10.5457 4.7207 10.5457 5.27295C10.5457 5.8252 10.9934 6.27295 11.5457 6.27295Z" fill="#34A853" fill-opacity="1.000000" fill-rule="nonzero"/>
		<path id="Vector" d="M11.5457 5.18188C12.0979 5.18188 12.5457 4.73413 12.5457 4.18188C12.5457 3.62964 12.0979 3.18188 11.5457 3.18188C10.9934 3.18188 10.5457 3.62964 10.5457 4.18188C10.5457 4.73413 10.9934 5.18188 11.5457 5.18188Z" fill="#34A853" fill-opacity="1.000000" fill-rule="nonzero"/>
		<path id="Vector" d="M10.5454 5.27258L12.5455 5.27258L12.5455 4.18164L10.5454 4.18164L10.5454 5.27258Z" fill="#34A853" fill-opacity="1.000000" fill-rule="nonzero"/>
		<path id="Vector" d="M8 3.09106C8.55231 3.09106 9.00006 2.64331 9.00006 2.09106C9.00006 1.53882 8.55231 1.09106 8 1.09106C7.44775 1.09106 7 1.53882 7 2.09106C7 2.64331 7.44775 3.09106 8 3.09106Z" fill="#FAB908" fill-opacity="1.000000" fill-rule="nonzero"/>
		<path id="Vector" d="M7.99994 2C8.55225 2 9 1.55225 9 1C9 0.447754 8.55225 0 7.99994 0C7.44769 0 6.99994 0.447754 6.99994 1C6.99994 1.55225 7.44769 2 7.99994 2Z" fill="#FAB908" fill-opacity="1.000000" fill-rule="nonzero"/>
		<path id="Vector" d="M7 2.09094L9.00006 2.09094L9.00006 1L7 1L7 2.09094Z" fill="#FAB908" fill-opacity="1.000000" fill-rule="nonzero"/>
		<path id="Vector" d="M8 16C8.55231 16 9.00006 15.5522 9.00006 15C9.00006 14.4478 8.55231 14 8 14C7.44775 14 7 14.4478 7 15C7 15.5522 7.44775 16 8 16Z" fill="#FAB908" fill-opacity="1.000000" fill-rule="nonzero"/>
		<path id="Vector" d="M8 14.9092C8.55231 14.9092 9.00006 14.4614 9.00006 13.9092C9.00006 13.3569 8.55231 12.9092 8 12.9092C7.44775 12.9092 7 13.3569 7 13.9092C7 14.4614 7.44775 14.9092 8 14.9092Z" fill="#FAB908" fill-opacity="1.000000" fill-rule="nonzero"/>
		<path id="Vector" d="M7 15.0001L9.00006 15.0001L9.00006 13.9092L7 13.9092L7 15.0001Z" fill="#FAB908" fill-opacity="1.000000" fill-rule="nonzero"/>
		<path id="Vector" d="M11.5457 12.8184C12.0979 12.8184 12.5457 12.3707 12.5457 11.8184C12.5457 11.2661 12.0979 10.8184 11.5457 10.8184C10.9934 10.8184 10.5457 11.2661 10.5457 11.8184C10.5457 12.3707 10.9934 12.8184 11.5457 12.8184Z" fill="#34A853" fill-opacity="1.000000" fill-rule="nonzero"/>
		<path id="Vector" d="M11.5457 9.27295C12.0979 9.27295 12.5457 8.8252 12.5457 8.27295C12.5457 7.7207 12.0979 7.27295 11.5457 7.27295C10.9934 7.27295 10.5457 7.7207 10.5457 8.27295C10.5457 8.8252 10.9934 9.27295 11.5457 9.27295Z" fill="#34A853" fill-opacity="1.000000" fill-rule="nonzero"/>
		<path id="Vector" d="M10.5454 11.8182L12.5455 11.8182L12.5455 8.27271L10.5454 8.27271L10.5454 11.8182Z" fill="#34A853" fill-opacity="1.000000" fill-rule="nonzero"/>
		<path id="Vector" d="M8 6.09082C8.55231 6.09082 9.00006 5.64307 9.00006 5.09082C9.00006 4.53857 8.55231 4.09082 8 4.09082C7.44775 4.09082 7 4.53857 7 5.09082C7 5.64307 7.44775 6.09082 8 6.09082Z" fill="#FAB908" fill-opacity="1.000000" fill-rule="nonzero"/>
		<path id="Vector" d="M8 11.9092C8.55231 11.9092 9.00006 11.4614 9.00006 10.9092C9.00006 10.3569 8.55231 9.90918 8 9.90918C7.44775 9.90918 7 10.3569 7 10.9092C7 11.4614 7.44775 11.9092 8 11.9092Z" fill="#FAB908" fill-opacity="1.000000" fill-rule="nonzero"/>
	</g>
</svg>
