<svg width="157.043457" height="167.036743" viewBox="0 0 157.043 167.037" fill="none" xmlns="http://www.w3.org/2000/svg" xmlns:xlink="http://www.w3.org/1999/xlink">
	<desc>
			Created with Pixso.
	</desc>
	<defs/>
	<path id="Vector 563" d="M111.924 91.3725C111.424 87.7724 111.195 84.4112 110.459 80.9006C109.415 75.927 105.858 71.4554 103.395 67.0674C98.577 58.4847 93.5234 48.7859 84.3846 44.249C75.7357 39.9553 68.5336 41.642 59.9055 44.7015C54.6124 46.5785 51.0217 56.9835 49.4888 61.7668C46.9789 69.5992 45.4918 76.1255 46.8846 84.4236C47.949 90.7642 50.1364 100.316 54.5018 105.335C56.551 107.691 57.7045 109.62 60.3287 111.411C62.0808 112.607 64.0872 113.769 65.6346 115.225C68.5159 117.935 72.9176 118.384 75.8885 121.334C78.5028 123.929 82.281 124.879 83.1803 128.897C83.7517 131.45 85.0686 136.562 88.4862 136.751C96.963 137.218 107.517 133.9 114.235 128.897C117.184 126.701 117.524 121.86 115.146 118.974C112.328 115.554 112.248 108.485 111.924 104.301C111.644 100.689 109.731 96.7579 111.468 93.1178C114.236 87.3167 114.897 80.591 113.974 74.1779C112.646 64.942 113.927 56.8836 107.529 49.1941C105.076 46.2458 102.088 43.4681 99.3586 40.7584C95.9452 37.3692 92.6276 33.8629 87.4446 33.7771C79.6069 33.6474 70.0436 33.6786 64.0071 39.4656C61.4175 41.9481 57.7578 44.8969 56.5526 48.3538C54.3741 54.6024 55.2579 60.6255 55.9667 67.0997C57.318 79.4434 57.2244 94.5928 66.8065 104.107C69.4795 106.761 70.9294 102.646 71.3639 100.681C72.0784 97.4491 70.8221 93.9198 70.4524 90.7261C69.9421 86.3184 68.7738 82.2159 67.3925 77.9918C66.6378 75.6838 63.1952 60.2377 58.343 63.7707C52.5876 67.9613 53.9106 83.6067 55.4784 88.9808C57.1359 94.6622 61.5518 105.499 69.5084 103.46C76.9573 101.552 79.3025 92.727 74.9446 87.0092C72.894 84.3189 65.4768 77.7135 64.593 84.8438C63.6953 92.0851 69.5098 100.899 74.6842 105.303C77.9875 108.114 84.9105 110.463 86.5983 104.43C87.5913 100.88 81.0769 95.4769 77.8092 96.156C70.1243 97.753 78.991 112.738 80.804 115.645C82.9524 119.091 95.5977 126.543 93.0436 117.552C92.353 115.121 86.2615 108.182 83.2454 110.054C77.8883 113.378 89.3436 125.226 92.1971 126.473C96.4664 128.338 96.2214 123.851 94.3456 121.495C92.7112 119.443 89.145 116.807 90.5696 121.657C91.5477 124.987 94.6862 132.869 99.3586 131.967C104.3 131.013 101.561 119.237 100.531 116.583C99.6678 114.36 97.8801 109.805 95.5175 108.632C93.4252 107.593 95.0883 112.714 95.2897 113.221C96.5619 116.428 99.8326 124.275 104.176 124.275C109.468 124.275 104.738 112.079 104.046 110.409C103.296 108.6 102.541 105.434 100.531 104.527C98.87 103.778 100.335 109.792 100.531 110.409C101.027 111.978 104.45 126.173 108.408 124.404C113.232 122.249 110.119 112.497 109.255 108.987C108.37 105.396 107.18 101.911 106.195 98.3538C105.642 96.3577 105.44 96.9589 105.934 98.677C106.188 99.5602 107.222 101.464 108.408 100.875C110.517 99.8279 110.258 95.2809 110.459 93.4087C111.237 86.1454 110.564 78.4129 110.036 71.1398C109.683 66.2781 109.238 62.519 106.683 58.5024C102.882 52.5273 102.192 46.7678 95.6477 42.633C90.7788 39.5566 85.068 35.5628 79.4042 38.7545C72.077 42.8836 66.5972 52.0014 63.4211 59.5044C62.1696 62.461 60.8905 71.9899 66.6438 67.3583C70.5369 64.2242 73.0153 60.2216 75.0422 55.7229C77.1329 51.0829 79.8671 46.0972 79.3391 40.8554C78.3007 30.545 67.4043 47.4477 66.3508 49.7435C64.3427 54.1198 56.8564 71.7393 64.4628 74.4365C67.2341 75.4192 70.2225 72.345 71.8846 70.4934C76.0402 65.8642 79.4097 59.7959 80.153 53.5574C80.5786 49.9835 79.9468 44.9348 76.3118 43.0208C71.5559 40.5167 66.2709 49.6946 64.6581 52.717C61.3536 58.9098 59.2443 65.6149 58.701 72.6265C58.3884 76.6622 57.8616 82.9831 62.119 85.3609C65.4985 87.2483 69.8619 82.2809 71.6893 80.1249C76.2968 74.6892 79.2059 68.5188 81.6503 61.8961C83.4742 56.9541 84.3401 51.1001 82.9198 45.9297C81.6898 41.4518 76.9497 48.0388 76.149 49.291C71.1472 57.1129 68.9623 66.9357 67.5227 75.9879C66.7578 80.7977 65.2625 88.5602 68.5969 92.7623C76.1722 102.309 86.4897 76.3887 87.5096 72.7558C89.2452 66.5743 90.1686 59.7018 89.3326 53.2988C88.5281 47.1365 84.6263 55.4591 83.8639 57.4682C81.3336 64.1351 80.485 71.713 79.9576 78.7675C79.5852 83.7478 78.6287 90.7802 80.5436 95.6388C82.3081 100.116 86.0045 97.7511 87.9003 94.9278C91.9972 88.826 93.0886 81.3871 93.7596 74.2426C94.3273 68.1998 94.3008 61.7786 93.4342 55.7552C92.4309 48.7824 89.9039 63.1616 89.7233 64.2878C88.276 73.3083 87.3516 82.5608 87.3143 91.6957C87.2948 96.4975 85.6608 109.717 91.0905 112.769C94.1362 114.481 96.8313 110.258 98.0891 108.082C102.161 101.041 102.168 91.4182 101.605 83.5832C101.205 78.0286 100.512 72.5043 99.6516 67.0027C99.2734 64.586 99.0594 61.7462 97.8612 59.5367C96.2064 56.4853 95.6027 70.6674 95.6151 71.463C95.6571 74.154 98.0479 109.04 102.419 106.951C104.728 105.847 104.967 99.3966 105.153 97.4165C106.031 88.0776 104.515 78.2848 102.842 69.1036C102.717 68.4216 100.938 61.4499 100.921 61.5083C99.4553 66.5214 100.205 72.864 100.205 77.9918C100.205 83.8958 99.9031 89.9275 101.377 95.7035C101.974 98.0445 103.268 100.785 104.437 97.1256C108.081 85.7139 104.776 71.6187 101.67 60.3124C100.848 57.322 100.724 59.4864 100.921 61.185C101.44 65.653 102.076 70.6257 103.721 74.8243C103.996 75.5273 106.002 79.9603 107.464 78.1857C108.876 76.4721 107.362 71.5547 106.878 69.7823C105.165 63.5034 101.921 57.6853 98.4797 52.1999C96.6228 49.2402 94.4829 45.6853 90.8625 44.6369C81.6429 41.967 82.6278 69.5191 82.7571 73.2083C82.9705 79.3004 83.7145 85.3072 85.524 91.1463C85.7994 92.0352 87.5651 97.6193 89.0397 95.0571C91.2019 91.2999 87.5665 84.0573 85.8821 80.7713C84.3453 77.7737 78.9397 67.1825 74.7493 67.326C70.2889 67.4787 70.3315 76.0428 70.4524 78.7675C70.7949 86.493 72.5516 94.119 76.0514 101.069C77.7466 104.435 80.7211 108.147 84.6125 109.02C86.2152 109.379 89.7905 108.926 89.235 106.499C88.6799 104.074 85.434 102.733 83.6034 101.521C79.9587 99.1087 76.5192 96.5133 72.6008 94.5399C65.9215 91.176 72.3409 102.424 73.61 104.85C75.6628 108.776 78.4501 113.74 82.8547 115.451C84.7166 116.175 85.23 114.877 83.701 113.738C80.7285 111.525 77.7826 109.281 74.7493 107.145C73.5432 106.296 69.2089 101.731 67.5227 102.103C67.429 102.124 75.0889 112.087 76.4745 113.157C81.203 116.808 66.8706 106.039 61.9237 102.685C58.0697 100.071 60.2161 101.409 62.4446 103.59C64.5198 105.62 66.4219 107.785 68.4342 109.86C70.1008 111.578 72.3644 110.656 74.7493 111.508C78.1322 112.717 81.6473 116.736 85.5565 113.932C89.3306 111.226 88.989 110.361 90.83 115.322C93.0425 121.285 94.1349 127.6 95.5175 133.777C95.9888 135.883 96.6832 133.344 97.0149 132.484C97.8981 130.195 98.9852 127.585 99.0331 125.115C99.1195 120.653 95.4685 119.351 92.6204 123.079C91.7766 124.183 88.2484 131.739 92.5878 129.769C94.7632 128.782 95.5967 127.371 96.1034 125.051C97.6433 118.001 97.6237 110.284 97.0149 103.137C96.8541 101.251 96.6268 92.06 93.7272 91.3402C90.3467 90.5011 88.696 103.835 88.4862 105.788C87.9148 111.106 86.8745 116.5 87.9003 121.819C88.8226 126.601 91.0662 124.964 92.4576 121.237C94.663 115.33 94.8361 108.34 94.5735 102.135C94.3912 97.8282 93.8718 93.6608 92.8807 89.4656C92.5602 88.1086 92.2493 84.8397 90.7975 83.9388C88.3267 82.4055 87.9574 92.7322 87.9003 93.6673C87.7207 96.6087 86.816 105.39 87.3469 102.491C89.4148 91.1986 85.6558 77.5368 79.567 67.9724C72.0643 56.1869 63.942 76.1629 63.942 82.8399C63.942 83.9982 64.0726 88.0774 66.2206 87.0415C70.0223 85.2081 69.512 78.1719 69.4758 74.889C69.4392 71.5595 68.8176 61.7986 65.0487 59.8922C60.4988 57.5908 60.4027 73.8059 60.3612 75.0829" stroke="#FFD700" stroke-opacity="1.000000" stroke-width="7.023809" stroke-linejoin="round" stroke-linecap="round"/>
	<path id="Vector 564" d="M91.4154 146.059C94.5118 145.459 97.7399 144.664 100.823 144.281C103.571 143.94 107.348 140.716 109.807 139.401C112.067 138.193 114.894 137.93 117.066 136.492C117.921 135.926 120.851 131.949 120.712 134.423C120.627 135.949 118.424 138.565 117.75 140.015C116.546 142.605 113.813 145.132 111.598 146.932C109.197 148.882 106.83 150.494 104.046 151.877C101.396 153.192 98.035 153.943 95.7773 155.949C94.177 157.371 96.869 157.424 98.1863 157.662C100.682 158.113 103.22 157.635 105.25 156.24C107.663 154.581 111.022 152.929 113.811 152.006C116.299 151.183 117.901 149.62 120.126 148.515C120.996 148.083 124.151 147.4 122.177 148.968C121.232 149.719 121.234 151.746 120.712 152.782C120.054 154.089 118.537 155.338 117.425 156.272C114.993 158.315 112.35 160.672 109.579 162.219C108.396 162.88 113.509 163.398 113.681 163.512" stroke="#4D4D4D" stroke-opacity="1.000000" stroke-width="7.023809" stroke-linejoin="round" stroke-linecap="round"/>
	<path id="Vector 565" d="M87.8999 131.514C87.8999 125.547 88.4858 119.751 88.4858 113.803C88.4858 106.45 86.1968 99.1957 84.254 92.148C82.2379 84.8338 79.6996 77.5427 75.0093 71.4628C72.2235 67.8517 69.3068 61.702 64.0067 61.702C60.8665 61.702 60.3608 64.5309 60.3608 66.9379C60.3608 71.4983 62.9141 75.457 66.6759 77.9915C70.8257 80.7874 76.1389 81.4404 80.7384 83.2275C84.5646 84.714 88.4572 86.4938 91.2853 82.6457C96.8563 75.0657 98.214 66.0356 97.8608 56.9185C97.826 56.0204 96.4429 52.9611 95.3868 54.0096C93.3381 56.0438 92.064 59.8165 92.0015 62.6716C91.7219 75.4365 93.4431 89.3053 98.577 101.068C99.7269 103.703 100.892 106.338 102.288 108.858C103.368 110.808 103.722 113.115 105.022 114.902C105.76 115.916 111.289 122.336 108.994 119.297" stroke="#4D4D4D" stroke-opacity="1.000000" stroke-width="7.023809" stroke-linejoin="round" stroke-linecap="round"/>
	<path id="Vector 566" d="M39.2672 140.241C42.6082 136.924 45.3986 133.304 48.1865 129.511C49.9824 127.067 49.3416 127.78 48.6422 125.697" stroke="#FFD700" stroke-opacity="1.000000" stroke-width="7.023809" stroke-linejoin="round" stroke-linecap="round"/>
	<path id="Vector 567" d="M12.3139 92.5358C15.4755 91.4467 19.6648 89.9154 22.405 88.0109C22.809 87.7301 21.8037 90.4367 21.103 89.0451" stroke="#FFD700" stroke-opacity="1.000000" stroke-width="7.023809" stroke-linejoin="round" stroke-linecap="round"/>
	<path id="Vector 568" d="M3.52478 37.8494C7.55664 40.5454 11.5084 43.0853 16.5456 43.0853C17.6646 43.0853 21.3311 42.9567 20.517 41.34" stroke="#FFD700" stroke-opacity="1.000000" stroke-width="7.023809" stroke-linejoin="round" stroke-linecap="round"/>
	<path id="Vector 569" d="M48.056 6.43387C48.9075 10.379 50.4124 13.3341 52.7109 16.6149C53.1044 17.1764 55.9315 20.1994 54.5013 18.0693" stroke="#FFD700" stroke-opacity="1.000000" stroke-width="7.023809" stroke-linejoin="round" stroke-linecap="round"/>
	<path id="Vector 570" d="M100.791 12.8331C103.359 11.116 106.254 9.26704 108.408 7.01543C109.029 6.36583 111.338 3.28957 111.338 3.5248" stroke="#FFD700" stroke-opacity="1.000000" stroke-width="7.023809" stroke-linejoin="round" stroke-linecap="round"/>
	<path id="Vector 571" d="M135.947 41.34C141.818 39.4364 153.525 35.5222 153.525 35.5222" stroke="#FFD700" stroke-opacity="1.000000" stroke-width="7.023809" stroke-linejoin="round" stroke-linecap="round"/>
	<path id="Vector 572" d="M136.532 89.0453C140.035 92.421 143.375 91.9473 147.665 93.5702C149.56 94.2868 150.274 93.6358 147.665 93.1177" stroke="#FFD700" stroke-opacity="1.000000" stroke-width="7.023809" stroke-linejoin="round" stroke-linecap="round"/>
</svg>
