<svg width="167.999268" height="135.000000" viewBox="0 0 167.999 135" fill="none" xmlns="http://www.w3.org/2000/svg" xmlns:xlink="http://www.w3.org/1999/xlink">
	<desc>
			Created with Pixso.
	</desc>
	<defs/>
	<path id="Vector 1547" d="M48.1952 26.2354C41.6794 17.9079 30.3171 20.4846 23.3072 26.9844C16.4813 33.3136 12.2863 49.1851 18.5804 57.0669C20.3312 59.2593 21.873 61.6948 23.9375 63.6002C24.6739 64.2799 22.0463 64.305 21.0555 64.4521C17.9888 64.9075 16.4786 68.2226 17.3163 71.0761C17.7558 72.573 18.984 73.6017 20.4659 73.937C21.4883 74.1683 21.7123 74.5294 20.5367 74.6471C17.7803 74.9229 15.819 75.0707 13.9292 77.3831C11.1396 80.7965 12.3995 83.7444 15.7051 85.9652C19.0466 88.2102 18.4294 89.2 15.3191 91.0754C12.8543 92.5615 11.9292 95.5771 11.0758 98.2877C9.59982 102.976 7.49762 110.043 11.6499 113.803C16.8487 118.512 24.6314 118.694 31.0975 117.492C33.2458 117.093 35.8033 116.91 37.482 115.342C37.9352 114.919 39.1654 113.401 37.8749 113.126C35.5741 112.634 34.7396 116.759 34.6198 118.19C33.771 128.328 48.9068 131.789 56.2079 130.527C60.9509 129.707 65.0998 127.417 68.8253 124.449C71.757 122.113 75.8823 119.522 77.8245 116.197C78.7617 114.592 78.419 116.464 78.9688 117.927C80.2841 121.425 84.0795 120.755 86.9401 119.895C90.8058 118.733 94.2701 116.248 96.605 112.934C96.9473 112.449 98.6759 109.238 98.9659 109.676C102.514 115.025 104.638 107.499 107.673 105.679C108.181 105.375 109.131 108.833 109.424 109.397C111.64 113.66 113.951 117.489 118.949 118.741C129.648 121.42 140.852 116.884 148.253 109.174C151.37 105.927 153.091 101.438 149.144 97.8407C148.19 96.9704 151.2 97.9781 151.763 97.9372C154.856 97.7119 159.336 97.3228 161.589 94.9047C164.156 92.1488 165.539 89.705 164.523 85.8512C163.813 83.1557 162.254 81.5544 159.698 80.5454C158.573 80.1014 156.31 80.019 157.956 78.978C159.608 77.9333 160.375 75.2996 160.525 73.4444C160.76 70.5164 158.75 68.5222 156.15 67.53C154.978 67.0827 151.374 67.547 151.977 67.4866C153.983 67.2858 155.086 59.4204 154.937 57.9182C154.271 51.242 147.586 46.0399 140.804 46.4745C139.68 46.5465 138.529 47.2146 139.38 46.0534C140.358 44.7205 140.408 42.3304 140.8 40.7887C143.007 32.1054 139.441 24.7698 132.665 19.2163C127.089 14.6454 118.499 12.1316 111.787 15.2865C111.354 15.4903 108.536 18.7623 109.388 18.6771C110.688 18.547 110.272 15.4255 110.096 14.7386C109.268 11.5198 105.481 8.85159 102.718 7.4342C98.6472 5.34586 92.7568 6.06586 88.4787 7.24554C84.7086 8.28519 81.8679 10.7445 79.923 14.0442C78.8923 15.7927 79.7658 17.2536 78.4892 16.0831C76.4191 14.1849 75.6589 12.9412 72.4224 13.2068C68.6084 13.5197 65.1288 14.5186 62.0998 16.9036C60.5488 18.1248 59.1606 20.7753 59.3636 22.8125C59.3666 22.8436 58.9374 20.8828 58.6348 20.1191C57.0045 16.0046 51.5503 16.1445 48.6551 19.0432C47.4354 20.2643 46.738 22.1222 46.6003 23.8336C46.5283 24.7289 46.0271 27.5779 45.7796 25.094" stroke="#4D4D4D" stroke-opacity="1.000000" stroke-width="2.500000" stroke-linejoin="round" stroke-linecap="round"/>
</svg>
