<svg width="67.000061" height="102.903358" viewBox="0 0 67.0001 102.903" fill="none" xmlns="http://www.w3.org/2000/svg" xmlns:xlink="http://www.w3.org/1999/xlink">
	<desc>
			Created with Pixso.
	</desc>
	<defs/>
	<path id="Vector 2814" d="M15.3517 51.4931C8.9039 42.7544 2.48724 54.5067 5.4281 61.3006C6.60172 64.0118 6.71509 67.2785 9.83267 68.1931C10.7975 68.4761 11.6587 69.6369 12.7249 69.6369C14.5228 69.6369 15.1914 69.2014 16.7845 68.6562" stroke="#4D4D4D" stroke-opacity="1.000000" stroke-width="3.000000" stroke-linejoin="round" stroke-linecap="round"/>
	<path id="Vector 2815" d="M17.7396 70.1273C19.0501 77.0234 19.559 84.5723 22.8871 90.7231C25.4056 95.3777 30.5639 99.8778 35.862 100.558C39.3066 101 42.1386 101.967 45.706 101.13C48.4449 100.487 50.9531 99.3494 53.613 98.5691C55.8148 97.9232 57.722 96.3467 59.2912 94.6461C61.2961 92.4732 62.1123 89.6349 63.6958 87.3994C64.7678 85.886 65.0225 82.4951 65.0225 80.6432C65.0225 78.1657 65.5001 75.9307 65.5001 73.451C65.5001 68.0985 63.5896 62.9203 63.5896 57.6228C63.5896 56.0729 62.7225 54.5917 62.6344 52.9642C62.5192 50.834 62.0304 48.0139 61.6527 45.881C61.3042 43.9131 60.724 41.8692 60.724 39.8331C60.724 36.4783 59.4526 39.8346 57.8584 38.7434" stroke="#4D4D4D" stroke-opacity="1.000000" stroke-width="3.000000" stroke-linejoin="round" stroke-linecap="round"/>
	<path id="Vector 2816" d="M11.0529 44.6278C9.88416 40.2777 10.7184 35.7047 8.90372 31.6057C7.80222 29.1175 9.0799 25.3393 9.51401 22.8879C9.82684 21.1212 9.62012 19.2057 9.62012 17.412C9.62012 15.8592 10.8024 14.9841 11.0264 13.489C11.2426 12.0464 10.4359 10.5842 9.14252 9.9202C7.89758 9.28108 8.46826 9.69014 9.3548 8.83047C9.85239 8.34796 11.7397 7.49786 11.504 6.65103C11.3427 6.07133 10.6012 6.33032 12.5388 5.88823C14.1469 5.52135 16.1727 3.92673 17.7394 3.92673C19.4004 3.92673 20.4204 3.57521 22.144 2.94598C24.015 2.26292 24.8824 4.0768 26.124 3.845C27.5926 3.57085 28.6835 1.52934 30.3694 1.52934C30.5513 1.52934 31.3079 2.42268 32.1737 2.45561C33.495 2.50586 35.0381 3.39841 36.366 2.83701C37.2503 2.46315 36.5038 4.14886 37.56 4.38986C39.9136 4.92686 42.2021 2.5206 44.2465 1.74728C46.2117 1.00392 45.3777 1.80942 44.8568 2.94598C44.529 3.66118 48.8086 3.66389 49.6328 3.81776C51.8488 4.23143 50.7866 4.09427 49.5267 5.15266C47.8427 6.56732 50.2939 6.86897 51.4371 6.86897C53.7355 6.86897 53.1476 6.70186 53.0822 8.44908C53.0126 10.3062 53.4045 10.1422 54.515 11.2823C55.2605 12.0478 55.3282 13.2667 56.1866 13.9522C57.0084 14.6084 58.8139 13.2424 58.2828 15.0146C57.7609 16.756 56.5386 18.2231 56.054 20.0001C55.7388 21.1557 58.2404 20.9918 58.8134 21.5802C60.3348 23.1423 58.6973 23.7106 58.3624 25.258C58.1042 26.4507 59.0118 26.8292 59.2645 27.7372C59.5601 28.7993 57.8633 29.2846 58.442 30.407C59.0721 31.629 59.2945 31.3825 58.3358 32.8588" stroke="#4D4D4D" stroke-opacity="1.000000" stroke-width="3.000000" stroke-linejoin="round" stroke-linecap="round"/>
	<path id="Vector 2817" d="M6.27713 9.81123C5.21338 10.4506 1.50806 12.3757 4.3667 13.8432C5.56192 14.4568 4.09717 13.6338 4.39325 15.9137C4.74316 18.6083 5.55188 18.2915 3.6503 20.8447C2.11914 22.9005 3.57571 23.7972 2.56241 25.9936C1.98679 27.2413 1.55283 28.9161 1.50107 30.298C1.42041 32.4517 6.18222 33.3568 5.03006 35.0655C4.5303 35.8067 3.07736 36.8476 3.14615 37.8716C3.25635 39.512 5.90347 41.1575 6.94046 42.176C7.44992 42.6763 8.92007 44.0016 8.08142 44.6278C7.12964 45.3385 8.0831 45.2683 8.55902 46.099C8.95212 46.7851 9.88568 48.0605 9.88568 48.0605C9.88568 48.0605 9.43195 44.5415 8.85089 42.8843C8.33313 41.4076 7.47003 40.3664 6.48938 39.2337C6.10324 38.7877 7.22464 38.2846 7.49768 37.9533C9.42535 35.6142 10.0451 29.3718 6.75473 27.6827C6.16122 27.378 6.94736 29.1714 7.47113 29.5897C8.45221 30.3731 8.60196 26.167 8.55902 25.7757C8.29846 23.4015 7.47339 21.8277 5.8526 20.1636C4.74496 19.0264 5.11316 19.2539 6.30365 19.1011C7.81775 18.9068 9.60861 17.2937 7.94873 15.9682C6.78568 15.0394 8.45267 19.4006 9.14276 20.1091" stroke="#4D4D4D" stroke-opacity="1.000000" stroke-width="3.000000" stroke-linejoin="round" stroke-linecap="round"/>
	<path id="Vector 2818" d="M14.3964 47.5701C15.0829 48.4724 16.1967 49.2081 16.7844 50.131C17.3238 50.9779 17.3 52.0615 17.7396 52.9642C18.8496 55.2436 19.6501 51.4371 19.6501 50.4034C19.6501 49.5134 18.7592 45.8629 17.8458 48.4419C17.6413 49.0192 18.2081 47.3939 18.2173 46.9708C18.2507 45.4261 18.2122 43.8763 17.7396 42.394C16.9886 40.0378 15.1469 37.28 13.4412 35.5287C13.0133 35.0894 14.2841 36.5345 14.874 36.6729C16.1953 36.983 16.7618 36.0499 16.7844 34.8204C16.8002 33.9601 14.9127 26.9161 13.0697 29.0449C12.9824 29.1457 16.3068 30.5842 16.3068 27.7099C16.3068 26.5177 14.13 24.9668 16.3068 26.4568C18.4208 27.9038 20.9886 26.501 22.2238 24.5498C23.8058 22.0508 20.7336 21.6575 23.2586 24.2501C25.5407 26.5932 29.0215 25.0913 30.8207 22.8334C31.2825 22.2539 33.0718 24.5641 34.9334 24.2228C35.9328 24.0396 39.4571 21.379 40.1871 22.3158C42.4252 25.1883 47.2194 24.6409 50.2168 24.5225C51.3694 24.477 56.4064 20.9413 54.5152 19.7277C53.3344 18.97 53.0673 22.4927 54.9928 20.9809C57.6347 18.9066 56.0742 16.1594 54.0376 14.606C51.9796 13.0364 54.3102 14.1953 53.9315 12.1542C53.4447 9.53018 50.356 5.86 47.4573 7.68631C43.6347 10.0947 49.0493 12.5705 49.0493 9.59332C49.0493 5.63707 41.7999 4.01741 39.0727 5.50687C36.3499 6.99385 40.2835 7.18701 38.8869 6.59659C37.1063 5.84378 35.0135 5.54056 33.1026 5.42514C32.3338 5.37871 30.8337 5.70865 30.1839 5.15271C29.2007 4.31148 26.8315 3.58568 25.5936 3.19121C21.3254 1.83118 21.8365 5.69489 23.4444 8.72154C24.9845 11.6205 18.4988 9.8033 17.2886 9.62057C14.0452 9.13084 12.1202 13.6798 15.5374 13.6798C16.8062 13.6798 15.8298 13.1419 15.272 12.9987C13.4805 12.5388 11.8987 13.2647 10.6021 14.5516C7.64337 17.4881 8.8479 23.9105 13.8127 22.2886C15.5179 21.7315 13.4789 20.7085 12.6452 20.7085C10.0936 20.7085 6.96841 22.3192 6.11792 24.9039C4.54388 29.6876 16.3875 23.5879 17.7396 22.452C18.6397 21.6959 19.604 20.9145 18.4826 20.0002C17.6008 19.2812 14.9155 17.6028 16.0415 17.6028C16.6757 17.6028 19.288 20.0407 20.1277 20.3816C21.5051 20.9407 23.9157 21.6316 25.169 20.3816C28.0878 17.4704 22.3814 16.119 22.6218 16.7855C24.4251 21.7845 33.2896 18.8151 36.0478 16.7855C37.1172 15.9986 37.2236 14.6913 35.6764 15.5323C33.9957 16.4459 32.6151 18.6204 33.3414 20.5995C35.0579 25.2765 45.5198 22.9217 46.2898 18.4746C46.5274 17.1023 44.0536 16.4815 43.1588 17.0034C40.8666 18.3406 42.8607 20.8964 44.6447 21.2261C49.3103 22.0884 57.4142 16.5316 50.1902 13.3529C48.625 12.6641 45.7089 12.286 44.5916 14.0067C43.2239 16.1131 47.3265 16.0155 48.2798 15.832C56.5994 14.2303 46.8204 9.52101 44.2998 8.09496C42.2745 6.94913 37.1467 3.5661 38.94 8.72154C39.1687 9.37901 37.7717 7.38577 37.5337 7.14145C36.1469 5.71761 34.1803 4.65863 32.2801 4.25369C30.0336 3.77498 27.2162 3.78075 25.514 5.61584C24.3947 6.82249 25.7469 7.23253 26.8141 7.33215C27.1756 7.36589 29.3538 7.44293 28.3796 6.59659C26.944 5.3494 24.7807 5.35815 23.0198 5.15271C21.7294 5.00215 18.8082 4.57816 18.3499 6.46037C17.8744 8.41319 19.675 11.5713 21.189 12.6445C22.8132 13.796 21.4296 12.7573 20.4991 12.3721C19.031 11.7643 16.6852 10.9809 15.0863 11.3914C13.1897 11.8782 17.4112 13.5671 17.6335 13.6253C20.8479 14.4672 24.6329 13.8932 27.7163 12.7535C28.4604 12.4785 31.5872 10.9779 30.5288 9.7023C30.119 9.20831 28.7878 8.3725 28.3531 9.32089C27.2604 11.7049 35.387 10.5856 36.2601 10.0292C37.151 9.46144 32.7311 8.08656 33.3414 11.2824C34.0011 14.737 39.5581 14.8069 41.5138 12.6445C43.4877 10.4619 39.6947 10.1817 40.877 12.1542C42.2207 14.3961 43.2729 11.8438 39.8687 11.0372C34.7829 9.8322 31.5198 12.0101 26.6549 12.699C23.3313 13.1697 23.6144 14.635 21.5605 16.8945C19.5461 19.1105 17.5941 18.1483 15.3781 19.4281C13.2131 20.6785 14.6305 26.2773 14.3699 28.4183C14.1197 30.4735 10.1444 28.8988 9.46115 31.9054C9.05444 33.6951 10.2612 35.5912 11.5573 36.7001C12.1552 37.2117 14.2036 37.5574 14.5291 38.2258C14.9683 39.1277 12.5425 38.0887 11.5838 38.3075C10.3126 38.5975 10.5635 40.45 10.8409 41.386C11.6456 44.1006 13.4515 46.1626 13.9188 49.0412" stroke="#4D4D4D" stroke-opacity="1.000000" stroke-width="3.000000" stroke-linejoin="round" stroke-linecap="round"/>
	<path id="Vector 2819" d="M14.8739 62.2814C13.8983 60.9041 13.3765 60.1271 13.4411 58.4674C13.4833 57.3857 14.0891 57.9884 13.2289 57.1052C12.5762 56.4351 11.0809 56.3398 10.5755 57.3777" stroke="#4D4D4D" stroke-opacity="1.000000" stroke-width="3.000000" stroke-linejoin="round" stroke-linecap="round"/>
	<path id="Vector 2820" d="M28.2469 45.6086C29.7732 43.6028 31.5301 42.972 33.872 42.285C35.1364 41.9141 37.5108 42.0746 37.3214 41.6856" stroke="#4D4D4D" stroke-opacity="1.000000" stroke-width="3.000000" stroke-linejoin="round" stroke-linecap="round"/>
	<path id="Vector 2821" d="M51.6495 40.7049C53.5786 40.3184 55.7725 39.6358 57.3807 41.1952C57.9518 41.749 60.9363 43.1567 59.2912 43.1567" stroke="#4D4D4D" stroke-opacity="1.000000" stroke-width="3.000000" stroke-linejoin="round" stroke-linecap="round"/>
	<path id="Vector 2822" d="M36.3663 51.9835C36.3663 51.9835 36.3664 51.9834 36.3664 51.9835L36.3663 51.9835Z" stroke="#4D4D4D" stroke-opacity="1.000000" stroke-width="3.000000" stroke-linejoin="round" stroke-linecap="round"/>
	<path id="Vector 2823" d="M54.9927 51.4931C54.9927 51.4931 54.9928 51.4931 54.9928 51.4931L54.9927 51.4931Z" stroke="#4D4D4D" stroke-opacity="1.000000" stroke-width="3.000000" stroke-linejoin="round" stroke-linecap="round"/>
	<path id="Vector 2824" d="M46.8734 48.0605C46.8734 54.1125 51.0911 59.9073 52.6312 65.4416C53.2867 67.7974 52.4387 68.1659 49.9778 68.1659C47.5819 68.1659 46.3579 67.9789 44.963 70.1274" stroke="#4D4D4D" stroke-opacity="1.000000" stroke-width="3.000000" stroke-linejoin="round" stroke-linecap="round"/>
</svg>
