<svg width="20.978088" height="34.657654" viewBox="0 0 20.9781 34.6577" fill="none" xmlns="http://www.w3.org/2000/svg" xmlns:xlink="http://www.w3.org/1999/xlink">
	<desc>
			Created with Pixso.
	</desc>
	<defs/>
	<path id="Vector 2098" d="M2.5007 8.52928C5.24255 4.9697 10.1804 1.24518 15.0095 1.51385C17.1603 1.63353 18.2125 6.4765 18.9011 8.02818C21.3434 13.5317 9.04163 14.2486 11.507 19.8041C11.975 20.8585 13.3779 21.257 14.2868 21.8363C16.2159 23.0658 16.5106 22.486 16.5106 20.5557C16.5106 19.0616 13.2725 15.176 15.0095 14.1528C19.7231 11.3759 18.7073 4.01936 12.7579 4.01936C8.18542 4.01936 1.5 4.85999 1.5 10.7842C1.5 13.7366 3.99594 12.8677 5.22485 11.2853C6.70844 9.37502 7.7634 7.02597 10.5063 7.02597C12.4324 7.02597 16.2056 6.28136 16.5106 9.03038C16.5623 9.4967 17.5679 11.7096 17.4001 11.9256C16.7043 12.8215 16.0078 14.1721 15.5099 15.2941C14.675 17.1753 12.0074 16.927 12.0074 19.303C12.0074 20.8899 12.093 21.164 13.0081 22.3096C13.3108 22.6886 15.0786 23.7007 14.5091 22.5601" stroke="#CD4631" stroke-opacity="1.000000" stroke-width="3.000000" stroke-linejoin="round" stroke-linecap="round"/>
	<path id="Vector 2099" d="M18.0126 29.5755C18.1166 33.7439 20.1547 31.1915 18.6241 29.9652C17.6107 29.1532 17.3273 31.3759 18.5129 31.9696C19.8449 32.6366 19.537 29.2736 19.1245 29.6868C18.0513 30.7616 20.3295 33.6633 18.0126 33.0832" stroke="#CD4631" stroke-opacity="1.000000" stroke-width="3.000000" stroke-linejoin="round" stroke-linecap="round"/>
</svg>
