<svg width="27.307953" height="51.668320" viewBox="0 0 27.308 51.6683" fill="none" xmlns="http://www.w3.org/2000/svg" xmlns:xlink="http://www.w3.org/1999/xlink">
	<desc>
			Created with Pixso.
	</desc>
	<defs/>
	<path id="Vector 2092" d="M5.96515 8.51685C5.23053 4.31299 9.86993 3.84839 13.1928 3.00473C15.8305 2.33508 18.3429 1.77805 20.8653 3.22745C22.5066 4.1705 24.8141 6.58725 24.9518 8.51685C25.4639 15.6966 19.1807 20.0422 12.2755 20.0422C9.38351 20.0422 9.49289 25.2484 9.4678 27.0576C9.42725 29.9801 8.74014 32.8057 9.07861 35.7434C9.17172 36.5516 9.65106 41.0099 10.9689 39.5016C13.1519 37.0032 13.4708 31.6894 13.4708 28.5609C13.4708 25.582 12.6394 22.9836 15.7225 21.796C18.45 20.7455 21.7656 19.5387 23.5896 17.0356C26.2112 13.4379 26.7246 8.43201 23.951 4.78644C21.6072 1.70581 15.0507 1.56784 11.4693 1.50143C6.77435 1.41437 4.61826 4.11856 2.24008 8.01575C0.81662 10.3484 1.5347 14.2752 4.96439 13.4165C8.62933 12.499 11.1791 10.3665 13.7488 7.79303C15.1237 6.41614 18.9409 7.3584 20.4761 8.12711C22.3037 9.04221 21.2137 12.2011 20.6985 13.5279C18.6372 18.836 11.7838 18.6591 10.0794 23.4385C8.79172 27.0492 8.96741 30.771 8.96741 34.5463C8.96741 35.7122 8.21002 39.4768 10.4685 38.4716C14.7751 36.5548 12.7567 28.4044 12.9705 24.5521C13.0929 22.3447 16.0074 22.0293 17.4739 21.2949C19.2481 20.4065 21.7054 17.8028 22.5888 16.0334C23.7877 13.6321 24.007 9.97122 22.2275 7.79303C20.0094 5.07812 16.241 6.741 13.9712 5.00916C11.9997 3.50488 7.85657 8.62711 6.46552 10.0201C5.91861 10.5678 5.30716 11.0484 4.71417 11.5235C4.44498 11.7391 3.65979 13.3051 3.46323 13.3051C2.84607 13.3051 4.18918 12.2793 4.6864 11.9132C6.36279 10.6788 7.93628 9.26993 9.16202 7.57031C10.5268 5.67783 12.7382 6.51245 14.972 6.51245C16.2551 6.51245 19.1532 5.95526 20.226 6.79083C21.8516 8.05707 22.4437 9.19632 19.9758 10.0201" stroke="#CD4631" stroke-opacity="1.000000" stroke-width="3.000000" stroke-linejoin="round" stroke-linecap="round"/>
	<path id="Vector 2093" d="M11.4687 47.6028C4.17184 49.2471 14.7152 52.2374 13.3589 47.9926C12.8987 46.552 10.8402 47.0715 11.4965 48.605C11.7856 49.2805 14.417 50.4244 11.9691 49.6073" stroke="#CD4631" stroke-opacity="1.000000" stroke-width="3.000000" stroke-linejoin="round" stroke-linecap="round"/>
</svg>
