<svg width="28.788971" height="23.702682" viewBox="0 0 28.789 23.7027" fill="none" xmlns="http://www.w3.org/2000/svg" xmlns:xlink="http://www.w3.org/1999/xlink">
	<desc>
			Created with Pixso.
	</desc>
	<defs/>
	<path id="Vector 1550" d="M11.7499 8.922C8.61069 6.6534 6.66357 6.95906 3.80087 9.61032C1.12668 12.087 0.265045 16.6797 2.66876 19.631C6.39777 24.2093 14.8277 22.8265 17.5937 18.0223C18.9359 15.6911 18.5254 17.5063 19.4096 18.2213C21.61 20.0008 22.7412 20.1331 24.9514 18.0383C27.6088 15.5196 29.7679 5.36169 23.215 6.70264C22.4865 6.85172 20.1473 8.4716 21.2484 8.24626C22.7054 7.94812 22.675 6.1539 22.3134 5.02318C21.3488 2.00725 17.1297 0.536148 14.473 1.65701C12.4879 2.49455 11.9833 4.93156 10.3865 5.85345C8.84311 6.74454 2.72498 11.962 7.46329 11.3969" stroke="#4D4D4D" stroke-opacity="1.000000" stroke-width="2.500000" stroke-linejoin="round" stroke-linecap="round"/>
</svg>
