<svg width="18.000427" height="18.000427" viewBox="0 0 18.0004 18.0004" fill="none" xmlns="http://www.w3.org/2000/svg" xmlns:xlink="http://www.w3.org/1999/xlink">
	<desc>
			Created with Pixso.
	</desc>
	<defs/>
	<path id="Vector" d="M9.00043 1C7.41815 1 5.87146 1.46918 4.55585 2.34821C3.2403 3.22729 2.2149 4.47675 1.60938 5.93851C1.00391 7.40036 0.845459 9.00888 1.15417 10.5607C1.46283 12.1126 2.22473 13.538 3.34357 14.6569C4.4624 15.7757 5.88788 16.5376 7.4397 16.8463C8.99158 17.1549 10.6001 16.9966 12.0619 16.391C13.5237 15.7855 14.7731 14.7602 15.6522 13.4445C16.5312 12.129 17.0004 10.5823 17.0004 9C17.0004 6.87827 16.1576 4.84344 14.6573 3.34317C13.157 1.84283 11.1222 1 9.00043 1ZM12.6716 12.5371C12.6376 12.5937 12.5927 12.6429 12.5394 12.6819C12.4862 12.7209 12.4257 12.7489 12.3616 12.7643C12.2974 12.7798 12.2308 12.7823 12.1656 12.7718C12.1005 12.7613 12.0381 12.738 11.9821 12.7031C10.105 11.5539 7.74268 11.2985 4.95892 11.9306C4.89557 11.9457 4.82996 11.9481 4.76562 11.9376C4.70142 11.9271 4.63983 11.904 4.58466 11.8695C4.52942 11.8351 4.48157 11.79 4.44385 11.7369C4.40619 11.6838 4.37946 11.6238 4.36517 11.5602C4.34998 11.4966 4.34753 11.4305 4.35791 11.3658C4.36835 11.3011 4.39136 11.2391 4.42578 11.1833C4.46014 11.1276 4.50525 11.0792 4.55835 11.0409C4.61151 11.0026 4.67169 10.9751 4.73547 10.9601C7.78094 10.2642 10.3987 10.5642 12.5057 11.8539C12.618 11.9227 12.6987 12.0332 12.7297 12.1612C12.7609 12.2893 12.74 12.4244 12.6716 12.5371ZM13.6485 10.3599C13.5593 10.4972 13.4207 10.5949 13.2615 10.6329C13.1023 10.6709 12.9346 10.6463 12.793 10.5642C10.3654 9.21005 7.49951 8.87482 4.82483 9.63205C4.74164 9.6785 4.64905 9.70566 4.55402 9.71164C4.45886 9.71759 4.36365 9.70221 4.27527 9.66656C4.18689 9.63092 4.1076 9.57599 4.04327 9.50574C3.97888 9.43549 3.93103 9.35168 3.90326 9.26056C3.87549 9.1694 3.86847 9.07321 3.88269 8.97897C3.89691 8.88477 3.93207 8.79495 3.98553 8.71606C4.039 8.63721 4.1095 8.57135 4.19171 8.52322C4.27399 8.47516 4.36597 8.44604 4.46094 8.43814C5.9538 8.00839 7.51752 7.88132 9.06018 8.06445C10.6028 8.24756 12.0934 8.73712 13.4442 9.50443C13.5814 9.5936 13.6791 9.73215 13.7172 9.89136C13.7552 10.0506 13.7306 10.2183 13.6485 10.3599ZM13.7314 8.09338C11.1776 6.56104 6.90631 6.42056 4.44177 7.16757C4.25214 7.22519 4.04736 7.20505 3.87256 7.11163C3.69775 7.01825 3.5672 6.85925 3.50964 6.66959C3.45203 6.47995 3.47217 6.27518 3.56555 6.10034C3.65894 5.92557 3.81793 5.79501 4.00763 5.73746C6.83606 4.8819 11.5287 5.04788 14.4977 6.80365C14.6503 6.9129 14.7562 7.07556 14.7944 7.25937C14.8325 7.44312 14.8 7.63452 14.7035 7.7955C14.6069 7.95642 14.4532 8.0751 14.2732 8.12793C14.0931 8.18079 13.8997 8.16388 13.7314 8.0806L13.7314 8.09338Z" fill="#1ED760" fill-opacity="1.000000" fill-rule="nonzero"/>
	<path id="Vector" d="M5.15222 0.863586Q4.5553 1.1459 4.00031 1.51675L4.00024 1.51675Q3.4455 1.88748 2.95642 2.33069Q2.46698 2.77426 2.04333 3.29047Q1.61987 3.80649 1.2804 4.37286Q0.940979 4.93918 0.685486 5.55582Q0.42981 6.17319 0.269287 6.81439Q0.109131 7.45425 0.0437622 8.11786Q-0.0216675 8.78241 0.0107422 9.44217Q0.0432129 10.1014 0.173401 10.7558Q0.303528 11.4102 0.525818 12.0316Q0.748352 12.6536 1.06311 13.2426Q1.37756 13.8309 1.77063 14.361Q2.16412 14.8917 2.63647 15.364Q3.10864 15.8361 3.63916 16.2296Q4.16937 16.6227 4.75787 16.9373Q5.34698 17.2522 5.96912 17.4747Q6.59039 17.6969 7.24463 17.8271Q7.89966 17.9574 8.55951 17.9897Q9.21869 18.0221 9.88257 17.9567Q10.5472 17.8912 11.1879 17.7307Q11.8281 17.5703 12.4446 17.3149Q13.0614 17.0594 13.6279 16.7198Q14.1941 16.3805 14.71 15.9571Q15.226 15.5336 15.6694 15.0444Q16.1128 14.5552 16.4836 14.0001Q16.8545 13.4452 17.1368 12.8483Q17.4191 12.2514 17.6129 11.6125Q17.8066 10.974 17.9035 10.3211Q18.0004 9.66779 18.0004 9Q18.0004 8.10471 17.8291 7.2435Q17.6578 6.38266 17.3154 5.55585Q16.9728 4.72891 16.4851 3.99899Q15.9974 3.26901 15.3644 2.63605Q14.7313 2.0029 14.001 1.51505Q13.2713 1.0275 12.4446 0.685089Q11.6178 0.34259 10.7569 0.171326Q9.89569 0 9.00043 0Q8.33282 0 7.67957 0.0969238Q7.02655 0.193787 6.38788 0.387543Q5.74908 0.581299 5.15222 0.863586ZM9.00043 1C7.41815 1 5.87146 1.46918 4.55585 2.34821C3.2403 3.22729 2.2149 4.47675 1.60938 5.93851C1.00391 7.40036 0.845459 9.00888 1.15417 10.5607C1.46283 12.1126 2.22473 13.538 3.34357 14.6569C4.4624 15.7757 5.88788 16.5376 7.4397 16.8463C8.99158 17.1549 10.6001 16.9966 12.0619 16.391C13.5237 15.7855 14.7731 14.7602 15.6522 13.4445C16.5312 12.129 17.0004 10.5823 17.0004 9C17.0004 6.87827 16.1576 4.84344 14.6573 3.34317C13.157 1.84283 11.1222 1 9.00043 1ZM14.3943 8.0806C14.5217 8.01755 14.6294 7.91895 14.7035 7.7955C14.8 7.63452 14.8325 7.44312 14.7944 7.25937C14.7562 7.07556 14.6503 6.9129 14.4977 6.80365C11.5287 5.04788 6.83606 4.8819 4.00763 5.73746C3.81793 5.79501 3.65894 5.92557 3.56555 6.10034C3.47217 6.27518 3.45203 6.47995 3.50964 6.66959C3.5672 6.85925 3.69775 7.01825 3.87256 7.11163C4.04736 7.20505 4.25214 7.22519 4.44177 7.16757C6.60699 6.51129 10.1669 6.54001 12.7314 7.59583C13.084 7.741 13.4178 7.90558 13.7266 8.09045C13.7282 8.09143 13.7299 8.09241 13.7314 8.09338L13.7314 8.0806C13.7335 8.08157 13.7354 8.08255 13.7374 8.0835C13.9042 8.16428 14.0952 8.18018 14.2732 8.12793C14.3151 8.11563 14.3557 8.09976 14.3943 8.0806ZM4.46094 8.43814C4.36597 8.44604 4.27399 8.47516 4.19171 8.52322C4.1095 8.57135 4.039 8.63721 3.98553 8.71606C3.93207 8.79495 3.89691 8.88477 3.88269 8.97897C3.86847 9.07321 3.87549 9.1694 3.90326 9.26056C3.93103 9.35168 3.97888 9.43549 4.04327 9.50574C4.1076 9.57599 4.18689 9.63092 4.27527 9.66656C4.36365 9.70221 4.45886 9.71759 4.55402 9.71164C4.64905 9.70566 4.74164 9.6785 4.82483 9.63205C7.49951 8.87482 10.3654 9.21005 12.793 10.5642C12.9346 10.6463 13.1023 10.6709 13.2615 10.6329C13.4207 10.5949 13.5593 10.4972 13.6485 10.3599C13.7306 10.2183 13.7552 10.0506 13.7172 9.89136C13.6791 9.73215 13.5814 9.5936 13.4442 9.50443C12.0934 8.73712 10.6028 8.24756 9.06018 8.06445C7.51752 7.88132 5.9538 8.00839 4.46094 8.43814ZM13.2822 9.69223Q13.2883 9.69568 13.2945 9.69913Q13.2883 9.69556 13.2822 9.69223ZM12.4622 11.8275C10.3781 10.5694 7.79797 10.2732 4.80157 10.9451C4.77954 10.9501 4.75751 10.955 4.73547 10.9601C4.67169 10.9751 4.61151 11.0026 4.55835 11.0409C4.50525 11.0792 4.46014 11.1276 4.42578 11.1833C4.39136 11.2391 4.36835 11.3011 4.35791 11.3658C4.34753 11.4305 4.34998 11.4966 4.36517 11.5602C4.37946 11.6238 4.40619 11.6838 4.44385 11.7369C4.48157 11.79 4.52942 11.8351 4.58466 11.8695C4.63983 11.904 4.70142 11.9271 4.76562 11.9376C4.82996 11.9481 4.89557 11.9457 4.95892 11.9306C4.97992 11.9258 5.00092 11.9211 5.02185 11.9164C5.75354 11.7534 6.45599 11.652 7.12799 11.6123C8.21655 11.5481 9.22528 11.6458 10.1491 11.9059C10.7877 12.0858 11.3858 12.3433 11.9417 12.6786C11.9551 12.6867 11.9686 12.6949 11.9821 12.7031C12.0381 12.738 12.1005 12.7613 12.1656 12.7718C12.2308 12.7823 12.2974 12.7798 12.3616 12.7643C12.4257 12.7489 12.4862 12.7209 12.5394 12.6819C12.5927 12.6429 12.6376 12.5937 12.6716 12.5371C12.74 12.4244 12.7609 12.2893 12.7297 12.1612C12.6987 12.0332 12.618 11.9227 12.5057 11.8539C12.4912 11.8451 12.4767 11.8363 12.4622 11.8275Z" fill="#000000" fill-opacity="1.000000" fill-rule="evenodd"/>
</svg>
