<svg width="146.324951" height="151.263123" viewBox="0 0 146.325 151.263" fill="none" xmlns="http://www.w3.org/2000/svg" xmlns:xlink="http://www.w3.org/1999/xlink">
	<desc>
			Created with Pixso.
	</desc>
	<defs/>
	<path id="Star 4" d="M61.7821 4.59034L65.3777 39.5061C65.7762 43.3762 70.1793 45.4011 73.3768 43.1848L109.61 18.0707C114.151 14.9235 119.764 20.2157 116.89 24.9337L99.3354 53.7458C97.5337 56.703 99.1306 60.5582 102.496 61.3752L142.418 71.0683C147.326 72.2601 147.718 79.0897 142.979 80.8354L101.746 96.0219C98.5758 97.1895 97.3892 101.056 99.3585 103.801L114.792 125.312C118.039 129.838 112.734 135.558 107.976 132.659L80.0233 115.628C77.0662 113.826 73.2109 115.423 72.3939 118.788L65.4578 147.356C64.1122 152.897 56.0769 152.41 55.4106 146.747L50.4567 104.638C49.9841 100.622 45.2567 98.7176 42.1322 101.285L15.0981 123.498C10.5436 127.241 4.31702 121.577 7.61218 116.689L32.8214 79.2935C35.1803 75.7942 32.524 71.1051 28.3098 71.3293L5.39075 72.5487C-0.712891 72.8735 -2.13953 64.1536 3.74939 62.5163L23.282 57.0856C26.8773 56.0859 28.2255 51.6964 25.8112 48.851L8.52844 28.4821C4.77234 24.0552 10.1299 17.7865 15.0878 20.8073L37.453 34.4337C40.4102 36.2354 44.2654 34.6385 45.0824 31.2735L51.7268 3.90768C53.0823 -1.67487 61.1937 -1.12418 61.7821 4.59034Z" fill="#000000" fill-opacity="1.000000" fill-rule="nonzero"/>
</svg>
