<svg width="28.785126" height="19.813522" viewBox="0 0 28.7851 19.8135" fill="none" xmlns="http://www.w3.org/2000/svg" xmlns:xlink="http://www.w3.org/1999/xlink">
	<desc>
			Created with Pixso.
	</desc>
	<defs/>
	<path id="Vector 2825" d="M9.01248 3.573C12.4463 3.573 16.899 2.77148 20.237 3.74648C22.1868 4.31598 23.2197 5.55473 24.6194 6.8689C26.2772 8.42528 28.2597 10.5013 28.0145 12.9576C27.7152 15.9543 23.8547 17.4281 21.4495 18.231C18.0164 19.377 13.4497 19.1665 9.87857 18.63C7.06335 18.2071 2.08102 17.3191 0.975159 14.1198C0.0765686 11.5202 2.01517 10.1299 4.23166 9.5056C7.65961 8.5401 11.247 7.78282 14.7633 7.25052C16.4671 6.9926 20.3385 5.85246 22.0385 7.00766C22.751 7.4919 23.4686 9.60663 23.632 10.425C23.8947 11.74 23.1965 12.4698 22.0904 13.079C19.6661 14.4143 16.7143 15.0325 14.0531 14.0331C10.5241 12.7078 15.018 9.65849 16.9805 9.52295C19.2931 9.36322 20.1781 10.2868 20.9991 12.4546C21.5794 13.9866 21.5623 14.9474 19.6307 15.1086C17.3322 15.3004 14.9392 15.1014 12.754 14.3627C9.35181 13.2125 4.93668 11.2019 2.60342 8.32602C1.51645 6.9863 1.52948 5.19409 1.52948 3.573C1.52948 0.884476 1.55222 1.10231 4.61273 1.07507C9.90543 1.02795 15.1852 0.762833 20.4795 0.762833C22.1372 0.762833 23.6742 0.593719 25.1564 1.4567C26.1768 2.05081 26.2164 2.30545 26.161 3.46892C25.9619 7.6566 21.3235 8.72659 18.0544 9.81784" stroke="#4D4D4D" stroke-opacity="1.000000" stroke-width="1.500000" stroke-linecap="round"/>
</svg>
