<svg width="17.090057" height="16.368744" viewBox="0 0 17.0901 16.3687" fill="none" xmlns="http://www.w3.org/2000/svg" xmlns:xlink="http://www.w3.org/1999/xlink">
	<desc>
			Created with Pixso.
	</desc>
	<defs/>
	<path id="Vector 2827" d="M13.5328 15.6067C9.84494 15.6067 6.60471 15.909 3.55597 13.6639C1.47131 12.1288 0.75 10.666 0.75 8.04353C0.75 6.18144 0.960541 4.68332 2.30887 3.25581C3.5618 1.92932 4.70435 1.89355 6.46588 1.48645C7.11563 1.33627 11.7143 0.0704041 12.2164 1.24359C12.9506 2.95937 11.9756 5.88676 11.0386 7.34966C9.99945 8.97186 9.08188 10.5677 7.29727 11.4782C6.90054 11.6806 3.92108 12.8211 3.86774 11.8598C3.76788 10.0594 4.02689 8.71651 5.11484 7.24557C5.76868 6.36157 8.23737 6.81615 9.16791 6.86394C12.5402 7.03714 11.0351 15.4323 7.36655 11.617C6.5788 10.7977 6.4541 9.16182 7.02014 8.217C9.08243 4.77467 12.7485 3.28665 16.3387 2.18031" stroke="#4D4D4D" stroke-opacity="1.000000" stroke-width="1.500000" stroke-linecap="round"/>
</svg>
