<svg width="20.565796" height="35.384094" viewBox="0 0 20.5658 35.3841" fill="none" xmlns="http://www.w3.org/2000/svg" xmlns:xlink="http://www.w3.org/1999/xlink">
	<desc>
			Created with Pixso.
	</desc>
	<defs/>
	<path id="Vector 2826" d="M4.80328 28.6984C4.31744 26.2048 2.75595 23.9169 1.82394 21.5168C1.01315 19.429 0.75 16.7188 0.75 14.4741C0.75 10.1817 1.3526 5.5452 5.18439 2.78235C8.11963 0.665894 13.5138 -0.359833 16.4089 2.53949C19.2239 5.35852 18.7963 9.79791 19.6134 13.3986C20.464 17.1465 18.5837 22.9772 14.4688 24.1362C13.1282 24.5138 9.69846 25.3636 8.70068 23.9801C7.25357 21.9735 6.77582 18.9611 6.11975 16.6251C5.41507 14.1159 2.92728 8.10767 6.96851 6.89352C11.9879 5.38556 14.0855 13.6864 14.3996 17.0761C14.5837 19.0638 14.7366 20.8167 13.3949 22.3842C12.8358 23.0375 10.3958 24.8514 9.63608 23.6679C8.58173 22.0254 7.81271 14.1438 10.1038 14.023C10.644 13.9946 12.2074 13.7881 12.5288 14.3353C13.108 15.3214 12.4032 16.8817 11.4895 17.2842C9.6933 18.0757 9.1684 17.9617 9.1684 16.0526C9.1684 14.3139 9.92065 12.9978 11.9052 13.8496C12.8827 14.2691 12.9953 16.1894 13.1524 17.0414C13.6474 19.7266 13.5335 22.477 13.5335 25.1944C13.5335 29.3907 10.3981 31.6914 7.60944 34.631" stroke="#4D4D4D" stroke-opacity="1.000000" stroke-width="1.500000" stroke-linecap="round"/>
</svg>
