<svg width="24.000000" height="24.000000" viewBox="0 0 24 24" fill="none" xmlns="http://www.w3.org/2000/svg" xmlns:xlink="http://www.w3.org/1999/xlink">
	<desc>
			Created with Pixso.
	</desc>
	<defs/>
	<path id="Vector" d="M10.5 7.63672L10.5 11.2734L10.5 12.7271L10.5 16.3643L13.5001 16.3643L13.5001 12.7271L13.5001 11.2734L13.5001 7.63672L10.5 7.63672Z" fill="#000000" fill-opacity="1.000000" fill-rule="nonzero"/>
	<path id="Vector" d="M1.5 12.6826C2.32843 12.6826 3 12.0112 3 11.1826C3 10.354 2.32843 9.68262 1.5 9.68262C0.67157 9.68262 0 10.354 0 11.1826C0 12.0112 0.67157 12.6826 1.5 12.6826Z" fill="#000000" fill-opacity="1.000000" fill-rule="nonzero"/>
	<path id="Vector" d="M1.5 14.3174C2.32843 14.3174 3 13.646 3 12.8174C3 11.9888 2.32843 11.3174 1.5 11.3174C0.67157 11.3174 0 11.9888 0 12.8174C0 13.646 0.67157 14.3174 1.5 14.3174Z" fill="#000000" fill-opacity="1.000000" fill-rule="nonzero"/>
	<path id="Vector" d="M3 11.1826L0 11.1826L0 12.8188L3 12.8188L3 11.1826Z" fill="#000000" fill-opacity="1.000000" fill-rule="nonzero"/>
	<path id="Vector" d="M22.5 14.3174C23.3285 14.3174 24 13.646 24 12.8174C24 11.9888 23.3285 11.3174 22.5 11.3174C21.6716 11.3174 21 11.9888 21 12.8174C21 13.646 21.6716 14.3174 22.5 14.3174Z" fill="#000000" fill-opacity="1.000000" fill-rule="nonzero"/>
	<path id="Vector" d="M22.5 12.6826C23.3285 12.6826 24 12.0112 24 11.1826C24 10.354 23.3285 9.68262 22.5 9.68262C21.6716 9.68262 21 10.354 21 11.1826C21 12.0112 21.6716 12.6826 22.5 12.6826Z" fill="#000000" fill-opacity="1.000000" fill-rule="nonzero"/>
	<path id="Vector" d="M21 12.8188L24 12.8188L24 11.1826L21 11.1826L21 12.8188Z" fill="#000000" fill-opacity="1.000000" fill-rule="nonzero"/>
	<path id="Vector" d="M6.68152 17.5908C7.50995 17.5908 8.18152 16.9194 8.18152 16.0908C8.18152 15.2622 7.50995 14.5908 6.68152 14.5908C5.85309 14.5908 5.18152 15.2622 5.18152 16.0908C5.18152 16.9194 5.85309 17.5908 6.68152 17.5908Z" fill="#000000" fill-opacity="1.000000" fill-rule="nonzero"/>
	<path id="Vector" d="M6.68152 19.2275C7.50995 19.2275 8.18152 18.5562 8.18152 17.7275C8.18152 16.8994 7.50995 16.2275 6.68152 16.2275C5.85309 16.2275 5.18152 16.8994 5.18152 17.7275C5.18152 18.5562 5.85309 19.2275 6.68152 19.2275Z" fill="#000000" fill-opacity="1.000000" fill-rule="nonzero"/>
	<path id="Vector" d="M8.18152 16.0908L5.18152 16.0908L5.18152 17.7271L8.18152 17.7271L8.18152 16.0908Z" fill="#000000" fill-opacity="1.000000" fill-rule="nonzero"/>
	<path id="Vector" d="M6.68152 7.77246C7.50995 7.77246 8.18152 7.10107 8.18152 6.27246C8.18152 5.44385 7.50995 4.77246 6.68152 4.77246C5.85309 4.77246 5.18152 5.44385 5.18152 6.27246C5.18152 7.10107 5.85309 7.77246 6.68152 7.77246Z" fill="#000000" fill-opacity="1.000000" fill-rule="nonzero"/>
	<path id="Vector" d="M6.68152 13.0898C7.50995 13.0898 8.18152 12.4185 8.18152 11.5898C8.18152 10.7612 7.50995 10.0898 6.68152 10.0898C5.85309 10.0898 5.18152 10.7612 5.18152 11.5898C5.18152 12.4185 5.85309 13.0898 6.68152 13.0898Z" fill="#000000" fill-opacity="1.000000" fill-rule="nonzero"/>
	<path id="Vector" d="M8.18152 6.27246L5.18152 6.27246L5.18152 11.625L8.18152 11.625L8.18152 6.27246Z" fill="#000000" fill-opacity="1.000000" fill-rule="nonzero"/>
	<path id="Vector" d="M17.3185 9.41016C18.1469 9.41016 18.8185 8.73877 18.8185 7.91016C18.8185 7.08154 18.1469 6.41016 17.3185 6.41016C16.4901 6.41016 15.8185 7.08154 15.8185 7.91016C15.8185 8.73877 16.4901 9.41016 17.3185 9.41016Z" fill="#000000" fill-opacity="1.000000" fill-rule="nonzero"/>
	<path id="Vector" d="M17.3185 7.77246C18.1469 7.77246 18.8185 7.10107 18.8185 6.27246C18.8185 5.44385 18.1469 4.77246 17.3185 4.77246C16.4901 4.77246 15.8185 5.44385 15.8185 6.27246C15.8185 7.10107 16.4901 7.77246 17.3185 7.77246Z" fill="#000000" fill-opacity="1.000000" fill-rule="nonzero"/>
	<path id="Vector" d="M15.8179 7.90869L18.8179 7.90869L18.8179 6.27246L15.8179 6.27246L15.8179 7.90869Z" fill="#000000" fill-opacity="1.000000" fill-rule="nonzero"/>
	<path id="Vector" d="M12 4.63672C12.8285 4.63672 13.5001 3.96533 13.5001 3.13672C13.5001 2.30811 12.8285 1.63672 12 1.63672C11.1716 1.63672 10.5 2.30811 10.5 3.13672C10.5 3.96533 11.1716 4.63672 12 4.63672Z" fill="#000000" fill-opacity="1.000000" fill-rule="nonzero"/>
	<path id="Vector" d="M12 3C12.8285 3 13.5001 2.32861 13.5001 1.5C13.5001 0.671387 12.8285 0 12 0C11.1716 0 10.5 0.671387 10.5 1.5C10.5 2.32861 11.1716 3 12 3Z" fill="#000000" fill-opacity="1.000000" fill-rule="nonzero"/>
	<path id="Vector" d="M10.5 3.13623L13.5001 3.13623L13.5001 1.5L10.5 1.5L10.5 3.13623Z" fill="#000000" fill-opacity="1.000000" fill-rule="nonzero"/>
	<path id="Vector" d="M12 24C12.8285 24 13.5001 23.3286 13.5001 22.5C13.5001 21.6714 12.8285 21 12 21C11.1716 21 10.5 21.6714 10.5 22.5C10.5 23.3286 11.1716 24 12 24Z" fill="#000000" fill-opacity="1.000000" fill-rule="nonzero"/>
	<path id="Vector" d="M12 22.3643C12.8285 22.3643 13.5001 21.6929 13.5001 20.8643C13.5001 20.0356 12.8285 19.3643 12 19.3643C11.1716 19.3643 10.5 20.0356 10.5 20.8643C10.5 21.6929 11.1716 22.3643 12 22.3643Z" fill="#000000" fill-opacity="1.000000" fill-rule="nonzero"/>
	<path id="Vector" d="M10.5 22.5005L13.5001 22.5005L13.5001 20.8643L10.5 20.8643L10.5 22.5005Z" fill="#000000" fill-opacity="1.000000" fill-rule="nonzero"/>
	<path id="Vector" d="M17.3185 19.2275C18.1469 19.2275 18.8185 18.5562 18.8185 17.7275C18.8185 16.8994 18.1469 16.2275 17.3185 16.2275C16.4901 16.2275 15.8185 16.8994 15.8185 17.7275C15.8185 18.5562 16.4901 19.2275 17.3185 19.2275Z" fill="#000000" fill-opacity="1.000000" fill-rule="nonzero"/>
	<path id="Vector" d="M17.3185 13.9102C18.1469 13.9102 18.8185 13.2388 18.8185 12.4102C18.8185 11.5815 18.1469 10.9102 17.3185 10.9102C16.4901 10.9102 15.8185 11.5815 15.8185 12.4102C15.8185 13.2388 16.4901 13.9102 17.3185 13.9102Z" fill="#000000" fill-opacity="1.000000" fill-rule="nonzero"/>
	<path id="Vector" d="M15.8179 17.7275L18.8179 17.7275L18.8179 12.4092L15.8179 12.4092L15.8179 17.7275Z" fill="#000000" fill-opacity="1.000000" fill-rule="nonzero"/>
	<path id="Vector" d="M12 9.13672C12.8285 9.13672 13.5001 8.46533 13.5001 7.63672C13.5001 6.80811 12.8285 6.13672 12 6.13672C11.1716 6.13672 10.5 6.80811 10.5 7.63672C10.5 8.46533 11.1716 9.13672 12 9.13672Z" fill="#000000" fill-opacity="1.000000" fill-rule="nonzero"/>
	<path id="Vector" d="M12 17.8643C12.8285 17.8643 13.5001 17.1929 13.5001 16.3643C13.5001 15.5356 12.8285 14.8643 12 14.8643C11.1716 14.8643 10.5 15.5356 10.5 16.3643C10.5 17.1929 11.1716 17.8643 12 17.8643Z" fill="#000000" fill-opacity="1.000000" fill-rule="nonzero"/>
</svg>
