<svg width="24.000000" height="24.000000" viewBox="0 0 24 24" fill="none" xmlns="http://www.w3.org/2000/svg" xmlns:xlink="http://www.w3.org/1999/xlink">
	<desc>
			Created with Pixso.
	</desc>
	<defs/>
	<rect id="youtube" width="24.000000" height="24.000000" fill="#FFFFFF" fill-opacity="0"/>
	<path id="Subtract" d="M1.68335 7.45605C1.77979 5.97168 2.97296 4.80859 4.45837 4.73486C6.60931 4.62842 9.68359 4.5 12 4.5C14.3164 4.5 17.3907 4.62842 19.5416 4.73486C21.027 4.80859 22.2202 5.97168 22.3167 7.45605C22.409 8.87793 22.5 10.6274 22.5 12C22.5 13.3726 22.409 15.1221 22.3167 16.5439C22.2202 18.0283 21.027 19.1914 19.5416 19.2651C17.3907 19.3716 14.3164 19.5 12 19.5C9.68359 19.5 6.60931 19.3716 4.45837 19.2651C2.97296 19.1914 1.77979 18.0283 1.68335 16.5439C1.591 15.1221 1.5 13.3726 1.5 12C1.5 10.6274 1.591 8.87793 1.68335 7.45605ZM15.75 12L9.75 9L9.75 15L15.75 12Z" clip-rule="evenodd" fill="#000000" fill-opacity="1.000000" fill-rule="evenodd"/>
</svg>
