<svg width="24.000000" height="24.000000" viewBox="0 0 24 24" fill="none" xmlns="http://www.w3.org/2000/svg" xmlns:xlink="http://www.w3.org/1999/xlink">
	<desc>
			Created with Pixso.
	</desc>
	<defs>
		<clipPath id="clip301_2672">
			<rect id="spotify" width="24.000000" height="24.000000" fill="white" fill-opacity="0"/>
		</clipPath>
	</defs>
	<g clip-path="url(#clip301_2672)">
		<path id="spotify" d="M12.0001 0C9.62665 0 7.30652 0.703613 5.33313 2.02246C3.3598 3.34082 1.82172 5.21533 0.913452 7.40771C0.00518799 9.60059 -0.232422 12.0132 0.230591 14.3413C0.693604 16.6689 1.83649 18.8071 3.51471 20.4854C5.19293 22.1636 7.33118 23.3066 9.65894 23.7695C11.9867 24.2324 14.3995 23.9946 16.5922 23.0864C18.7849 22.1782 20.6591 20.6401 21.9777 18.667C23.2963 16.6934 24 14.3735 24 12C24 8.81738 22.7357 5.76514 20.4853 3.51465C18.2348 1.26416 15.1826 0 12.0001 0ZM17.5068 17.3057C17.4557 17.3906 17.3883 17.4644 17.3085 17.5229C17.2286 17.5815 17.1379 17.6235 17.0417 17.6465C16.9455 17.6699 16.8456 17.6733 16.7479 17.6577C16.6501 17.6421 16.5565 17.6069 16.4725 17.5547C13.6569 15.8306 10.1133 15.4478 5.93774 16.396C5.84277 16.4185 5.74426 16.4224 5.64783 16.4062C5.55151 16.3906 5.45917 16.356 5.37634 16.3042C5.29346 16.2524 5.22174 16.1851 5.16516 16.1055C5.10864 16.0259 5.06854 15.9355 5.04712 15.8403C5.02429 15.7446 5.02063 15.6455 5.03625 15.5488C5.05188 15.4517 5.08643 15.3584 5.138 15.2749C5.18958 15.1914 5.25726 15.1187 5.33691 15.0615C5.41663 15.0039 5.5069 14.9629 5.60254 14.9399C10.1708 13.896 14.0974 14.3462 17.2578 16.2808C17.4265 16.3838 17.5474 16.5498 17.594 16.7417C17.6407 16.9341 17.6093 17.1367 17.5068 17.3057ZM18.9721 14.04C18.8383 14.2456 18.6304 14.3926 18.3916 14.4492C18.1528 14.5063 17.9012 14.4697 17.6888 14.3462C14.0474 12.3149 9.7486 11.812 5.73663 12.9482C5.61182 13.0176 5.47296 13.0586 5.33032 13.0674C5.18762 13.0762 5.0448 13.0532 4.91223 13C4.77966 12.9463 4.66077 12.8638 4.56427 12.7588C4.46771 12.6533 4.39594 12.5273 4.35425 12.3906C4.31256 12.2539 4.302 12.1099 4.32336 11.9683C4.34473 11.8271 4.39746 11.6924 4.47766 11.5742C4.55786 11.4561 4.66357 11.3569 4.78693 11.2847C4.91034 11.2129 5.04828 11.1689 5.19073 11.1572C7.43005 10.5127 9.77557 10.3218 12.0896 10.5967C14.4036 10.8711 16.6395 11.6055 18.6656 12.7568C18.8715 12.8906 19.0181 13.0981 19.0751 13.3369C19.1321 13.5757 19.0952 13.8276 18.9721 14.04ZM19.0966 10.6401C15.2658 8.34131 8.85876 8.13086 5.16205 9.25146C4.87756 9.33789 4.57037 9.30762 4.30817 9.16748C4.04596 9.02734 3.85016 8.78906 3.76379 8.50439C3.67743 8.21973 3.70758 7.9126 3.84772 7.65039C3.98773 7.38818 4.22626 7.19238 4.51074 7.10596C8.75342 5.82275 15.7925 6.07178 20.2458 8.70557C20.4748 8.86914 20.6337 9.11328 20.6909 9.38916C20.748 9.66455 20.6994 9.95166 20.5546 10.1934C20.4097 10.4346 20.1793 10.6128 19.9092 10.6919C19.639 10.771 19.3489 10.7456 19.0966 10.6211L19.0966 10.6401Z" fill="#000000" fill-opacity="1.000000" fill-rule="nonzero"/>
	</g>
</svg>
