<svg width="24.000000" height="24.000000" viewBox="0 0 24 24" fill="none" xmlns="http://www.w3.org/2000/svg" xmlns:xlink="http://www.w3.org/1999/xlink">
	<desc>
			Created with Pixso.
	</desc>
	<defs>
		<clipPath id="clip301_120">
			<rect id="google podcast" width="24.000000" height="24.000000" fill="white" fill-opacity="0"/>
		</clipPath>
	</defs>
	<g clip-path="url(#clip301_120)">
		<path id="Vector" d="M10.5 7.63647L10.5 11.2733L10.5 12.7269L10.5 16.3638L13.5001 16.3638L13.5001 12.7269L13.5001 11.2733L13.5001 7.63647L10.5 7.63647Z" fill="#FFFFFF" fill-opacity="1.000000" fill-rule="nonzero"/>
		<path id="Vector" d="M1.50003 12.682C2.32846 12.682 3.00003 12.0105 3.00003 11.182C3.00003 10.3535 2.32846 9.68201 1.50003 9.68201C0.67157 9.68201 0 10.3535 0 11.182C0 12.0105 0.67157 12.682 1.50003 12.682Z" fill="#FFFFFF" fill-opacity="1.000000" fill-rule="nonzero"/>
		<path id="Vector" d="M1.50003 14.318C2.32846 14.318 3.00003 13.6465 3.00003 12.818C3.00003 11.9896 2.32846 11.318 1.50003 11.318C0.67157 11.318 0 11.9896 0 12.818C0 13.6465 0.67157 14.318 1.50003 14.318Z" fill="#FFFFFF" fill-opacity="1.000000" fill-rule="nonzero"/>
		<path id="Vector" d="M3.00003 11.182L0 11.182L0 12.8184L3.00003 12.8184L3.00003 11.182Z" fill="#FFFFFF" fill-opacity="1.000000" fill-rule="nonzero"/>
		<path id="Vector" d="M22.5 14.318C23.3285 14.318 24 13.6465 24 12.818C24 11.9896 23.3285 11.318 22.5 11.318C21.6716 11.318 21 11.9896 21 12.818C21 13.6465 21.6716 14.318 22.5 14.318Z" fill="#FFFFFF" fill-opacity="1.000000" fill-rule="nonzero"/>
		<path id="Vector" d="M22.5 12.682C23.3285 12.682 24 12.0105 24 11.182C24 10.3535 23.3285 9.68201 22.5 9.68201C21.6716 9.68201 21 10.3535 21 11.182C21 12.0105 21.6716 12.682 22.5 12.682Z" fill="#FFFFFF" fill-opacity="1.000000" fill-rule="nonzero"/>
		<path id="Vector" d="M21 12.8184L24 12.8184L24 11.182L21 11.182L21 12.8184Z" fill="#FFFFFF" fill-opacity="1.000000" fill-rule="nonzero"/>
		<path id="Vector" d="M6.68152 17.5911C7.50995 17.5911 8.18152 16.9196 8.18152 16.0911C8.18152 15.2627 7.50995 14.5911 6.68152 14.5911C5.85309 14.5911 5.18152 15.2627 5.18152 16.0911C5.18152 16.9196 5.85309 17.5911 6.68152 17.5911Z" fill="#FFFFFF" fill-opacity="1.000000" fill-rule="nonzero"/>
		<path id="Vector" d="M6.68152 19.2277C7.50995 19.2277 8.18152 18.556 8.18152 17.7277C8.18152 16.8992 7.50995 16.2275 6.68152 16.2275C5.85309 16.2275 5.18152 16.8992 5.18152 17.7277C5.18152 18.556 5.85309 19.2277 6.68152 19.2277Z" fill="#FFFFFF" fill-opacity="1.000000" fill-rule="nonzero"/>
		<path id="Vector" d="M8.18152 16.0911L5.18152 16.0911L5.18152 17.7274L8.18152 17.7274L8.18152 16.0911Z" fill="#FFFFFF" fill-opacity="1.000000" fill-rule="nonzero"/>
		<path id="Vector" d="M6.68152 7.77246C7.50995 7.77246 8.18152 7.10083 8.18152 6.27246C8.18152 5.44409 7.50995 4.77246 6.68152 4.77246C5.85309 4.77246 5.18152 5.44409 5.18152 6.27246C5.18152 7.10083 5.85309 7.77246 6.68152 7.77246Z" fill="#FFFFFF" fill-opacity="1.000000" fill-rule="nonzero"/>
		<path id="Vector" d="M6.68152 13.0905C7.50995 13.0905 8.18152 12.4189 8.18152 11.5905C8.18152 10.7621 7.50995 10.0905 6.68152 10.0905C5.85309 10.0905 5.18152 10.7621 5.18152 11.5905C5.18152 12.4189 5.85309 13.0905 6.68152 13.0905Z" fill="#FFFFFF" fill-opacity="1.000000" fill-rule="nonzero"/>
		<path id="Vector" d="M8.18152 6.27246L5.18152 6.27246L5.18152 11.6248L8.18152 11.6248L8.18152 6.27246Z" fill="#FFFFFF" fill-opacity="1.000000" fill-rule="nonzero"/>
		<path id="Vector" d="M17.3185 9.40955C18.1469 9.40955 18.8185 8.73804 18.8185 7.90955C18.8185 7.08118 18.1469 6.40955 17.3185 6.40955C16.4901 6.40955 15.8185 7.08118 15.8185 7.90955C15.8185 8.73804 16.4901 9.40955 17.3185 9.40955Z" fill="#FFFFFF" fill-opacity="1.000000" fill-rule="nonzero"/>
		<path id="Vector" d="M17.3185 7.77246C18.1469 7.77246 18.8185 7.10083 18.8185 6.27246C18.8185 5.44409 18.1469 4.77246 17.3185 4.77246C16.4901 4.77246 15.8185 5.44409 15.8185 6.27246C15.8185 7.10083 16.4901 7.77246 17.3185 7.77246Z" fill="#FFFFFF" fill-opacity="1.000000" fill-rule="nonzero"/>
		<path id="Vector" d="M15.8179 7.90881L18.818 7.90881L18.818 6.27246L15.8179 6.27246L15.8179 7.90881Z" fill="#FFFFFF" fill-opacity="1.000000" fill-rule="nonzero"/>
		<path id="Vector" d="M12 4.63647C12.8285 4.63647 13.5001 3.96497 13.5001 3.13647C13.5001 2.30811 12.8285 1.63647 12 1.63647C11.1716 1.63647 10.5 2.30811 10.5 3.13647C10.5 3.96497 11.1716 4.63647 12 4.63647Z" fill="#FFFFFF" fill-opacity="1.000000" fill-rule="nonzero"/>
		<path id="Vector" d="M12 3C12.8285 3 13.5001 2.32849 13.5001 1.5C13.5001 0.671631 12.8285 0 12 0C11.1716 0 10.5 0.671631 10.5 1.5C10.5 2.32849 11.1716 3 12 3Z" fill="#FFFFFF" fill-opacity="1.000000" fill-rule="nonzero"/>
		<path id="Vector" d="M10.5 3.13635L13.5001 3.13635L13.5001 1.5L10.5 1.5L10.5 3.13635Z" fill="#FFFFFF" fill-opacity="1.000000" fill-rule="nonzero"/>
		<path id="Vector" d="M12 24C12.8285 24 13.5001 23.3285 13.5001 22.5C13.5001 21.6716 12.8285 21 12 21C11.1716 21 10.5 21.6716 10.5 22.5C10.5 23.3285 11.1716 24 12 24Z" fill="#FFFFFF" fill-opacity="1.000000" fill-rule="nonzero"/>
		<path id="Vector" d="M12 22.364C12.8285 22.364 13.5001 21.6925 13.5001 20.864C13.5001 20.0356 12.8285 19.364 12 19.364C11.1716 19.364 10.5 20.0356 10.5 20.864C10.5 21.6925 11.1716 22.364 12 22.364Z" fill="#FFFFFF" fill-opacity="1.000000" fill-rule="nonzero"/>
		<path id="Vector" d="M10.5 22.5004L13.5001 22.5004L13.5001 20.864L10.5 20.864L10.5 22.5004Z" fill="#FFFFFF" fill-opacity="1.000000" fill-rule="nonzero"/>
		<path id="Vector" d="M17.3185 19.2277C18.1469 19.2277 18.8185 18.556 18.8185 17.7277C18.8185 16.8992 18.1469 16.2275 17.3185 16.2275C16.4901 16.2275 15.8185 16.8992 15.8185 17.7277C15.8185 18.556 16.4901 19.2277 17.3185 19.2277Z" fill="#FFFFFF" fill-opacity="1.000000" fill-rule="nonzero"/>
		<path id="Vector" d="M17.3185 13.9095C18.1469 13.9095 18.8185 13.238 18.8185 12.4095C18.8185 11.5812 18.1469 10.9095 17.3185 10.9095C16.4901 10.9095 15.8185 11.5812 15.8185 12.4095C15.8185 13.238 16.4901 13.9095 17.3185 13.9095Z" fill="#FFFFFF" fill-opacity="1.000000" fill-rule="nonzero"/>
		<path id="Vector" d="M15.8179 17.7272L18.818 17.7272L18.818 12.4089L15.8179 12.4089L15.8179 17.7272Z" fill="#FFFFFF" fill-opacity="1.000000" fill-rule="nonzero"/>
		<path id="Vector" d="M12 9.13647C12.8285 9.13647 13.5001 8.46484 13.5001 7.63647C13.5001 6.80811 12.8285 6.13647 12 6.13647C11.1716 6.13647 10.5 6.80811 10.5 7.63647C10.5 8.46484 11.1716 9.13647 12 9.13647Z" fill="#FFFFFF" fill-opacity="1.000000" fill-rule="nonzero"/>
		<path id="Vector" d="M12 17.864C12.8285 17.864 13.5001 17.1925 13.5001 16.364C13.5001 15.5356 12.8285 14.864 12 14.864C11.1716 14.864 10.5 15.5356 10.5 16.364C10.5 17.1925 11.1716 17.864 12 17.864Z" fill="#FFFFFF" fill-opacity="1.000000" fill-rule="nonzero"/>
	</g>
</svg>
