<svg width="19.740356" height="19.191284" viewBox="0 0 19.7404 19.1913" fill="none" xmlns="http://www.w3.org/2000/svg" xmlns:xlink="http://www.w3.org/1999/xlink">
	<desc>
			Created with Pixso.
	</desc>
	<defs/>
	<path id="Vector 2100" d="M7.4176 5.34766C5.23218 1.56262 -7.77942 12.7759 13.2452 15.4413" stroke="#CD4631" stroke-opacity="1.000000" stroke-width="0.750000" stroke-linecap="round"/>
	<path id="Vector 2101" d="M10.02 6.04504L9.32275 8.64758L11.3718 9.19653L10.8228 11.2456L11.8473 11.5201L11.5728 12.5447L13.2451 15.4414C21.449 -4.09912 5.2323 1.56262 7.4176 5.34766L10.02 6.04504Z" stroke="#CD4631" stroke-opacity="1.000000" stroke-width="0.750000" stroke-linejoin="round"/>
	<path id="Vector 2102" d="M3.35205 8.53113C3.49805 8.18738 3.78101 7.93372 3.95935 7.60938C4.17334 7.22034 4.49927 6.93652 4.78149 6.60718C4.85962 6.51611 5.30261 6.02795 5.13623 6.40833C4.86877 7.01965 4.58167 7.62158 4.32202 8.23816C4.18506 8.56348 4.0647 8.93616 3.83569 9.20825C3.69165 9.37927 3.92981 8.99719 3.95398 8.96631C4.23621 8.60559 4.66199 8.2522 5.02332 7.97217C5.41321 7.67017 5.75989 7.29004 6.03906 6.88391C6.07715 6.82861 6.31873 6.52795 6.16797 6.75769C5.78882 7.33557 5.39893 7.91638 5.07178 8.52576C4.91663 8.81458 4.73865 9.09521 4.55042 9.36401C4.45374 9.50208 4.36865 9.73169 4.22266 9.82617C4.21228 9.83289 4.06238 10.0009 4.11243 9.92297C4.3606 9.53699 4.85864 9.22546 5.19263 8.91528C5.60229 8.53491 6.06506 8.17834 6.40991 7.73572C6.63416 7.44775 6.87341 7.17261 7.12463 6.90808C7.48608 6.52759 6.60498 7.82007 6.33997 8.27307C6.01868 8.82251 5.698 9.37036 5.38342 9.92297C5.23315 10.1869 5.04675 10.4287 4.89978 10.686C4.82947 10.8091 4.81409 10.8612 4.93738 10.7183C5.35474 10.2341 5.73022 9.71802 6.15186 9.23779C6.3595 9.00122 6.56836 8.76575 6.81287 8.56873C6.89124 8.50562 7.10498 8.25854 6.95801 8.55261C6.60278 9.26294 6.11572 9.9585 5.67358 10.6216C5.57166 10.7745 5.56067 10.8323 5.68433 10.6243C5.87329 10.3066 6.18713 9.98169 6.46899 9.74023C6.72534 9.52051 6.96838 9.2937 7.18909 9.03625C7.54224 8.62415 7.22253 9.14868 7.10852 9.35327C6.73071 10.0306 6.3573 10.7004 6.0686 11.4222C6.05701 11.4514 5.83142 12.0626 5.87512 12.0698C5.94727 12.0819 6.17041 11.7117 6.20569 11.6641C6.38684 11.4199 6.58386 11.1954 6.7887 10.9708C7.10107 10.6285 7.48206 10.2136 7.6781 9.78589C7.75696 9.61389 7.80713 9.42773 7.8877 9.25659C7.97363 9.07397 7.78772 9.64844 7.7157 9.83691C7.54395 10.2871 7.45581 10.7528 7.3396 11.218C7.2804 11.4547 7.22266 11.5226 7.32886 11.2396C7.4729 10.8555 7.65295 10.4847 7.82056 10.1111C7.98584 9.74219 7.90088 10.0946 7.84204 10.3044C7.81848 10.3884 7.42676 11.3785 7.46582 11.3981C7.46863 11.3995 7.5636 11.1832 7.57068 11.1697C7.62073 11.0732 7.70288 10.9991 7.75073 10.9037C7.95654 10.4919 7.4696 12.7228 7.55994 12.2714C7.62256 11.958 7.89404 11.7162 8.04358 11.4546C8.11414 11.3309 8.09192 11.3643 8.09192 11.5029C8.09192 11.7867 8.05432 12.0613 8.04358 12.3412C8.03613 12.533 8.24988 12.0167 8.37134 11.8683C8.45752 11.7631 8.56018 11.5604 8.68311 11.4922C8.73279 11.4646 8.66101 12.1484 8.65088 12.2069C8.63818 12.2792 8.61633 12.7789 8.65625 12.7281C8.75232 12.6058 8.86938 12.4926 8.96252 12.3762C9.02258 12.3011 9.01086 12.6713 9.01086 12.712C9.01086 13.1316 9.34131 12.3856 9.34949 12.7281C9.35046 12.7731 9.33325 13.1652 9.39783 13.1044C9.48462 13.0227 9.56128 12.9139 9.63965 12.8357" stroke="#CD4631" stroke-opacity="1.000000" stroke-width="0.500000" stroke-linecap="round"/>
	<path id="Vector 2103" d="M9.63965 4.1781C10.1034 3.71436 10.5664 3.25671 11.0208 2.80237C11.181 2.64209 11.1577 2.79443 11.1149 2.96631C11.062 3.17725 11.0033 3.35437 10.9214 3.55469C10.7474 3.97986 10.7385 4.48425 10.4888 4.87671C10.1307 5.43921 11.2886 3.80969 11.6979 3.28333C12.0476 2.83374 11.2115 4.32349 11.0879 4.87939C11.0867 4.88513 11.3412 4.51672 11.4131 4.42529C11.6868 4.07751 11.9784 3.73096 12.2917 3.41772C12.3202 3.38928 12.5742 3.12122 12.5685 3.22693C12.5459 3.64001 12.2501 4.06494 12.058 4.41724C11.8616 4.77734 11.7009 5.15466 11.499 5.51086C11.4186 5.65283 11.3167 5.82495 11.2867 5.98914C11.2594 6.13989 11.4872 5.75537 11.4937 5.74731C11.8308 5.32837 12.2043 4.94006 12.5551 4.53284C12.9438 4.08118 12.6359 4.6499 12.5309 4.85522C12.3506 5.20789 12.186 5.56641 12.0096 5.91931C11.8607 6.21704 11.6995 6.51855 11.5259 6.80066C11.4073 6.99341 11.3798 7.30151 11.225 7.4563C10.933 7.74829 11.7836 6.84009 12.1171 6.59644C12.4742 6.33533 12.7407 5.87 12.9286 5.48401C13.0657 5.20203 13.2444 4.97717 13.4015 4.71008C13.4308 4.66028 13.5316 4.53174 13.525 4.54895C13.3909 4.89783 13.1266 5.18604 13.0253 5.55383C12.8573 6.16394 12.5217 6.77637 12.2515 7.34875C12.0592 7.75574 12.5116 7.16833 12.6088 7.06396C12.8297 6.82666 13.0613 6.61108 13.2644 6.3573C13.3589 6.23914 13.472 6.11841 13.5546 5.99451C13.8042 5.62012 13.0043 6.70703 12.7136 7.05054C12.52 7.2793 12.4178 7.58813 12.2299 7.82971C12.1473 7.93604 12.1144 8.07202 11.988 8.14417C11.9445 8.16907 12.2015 8.03113 12.2515 7.98828C12.485 7.7876 12.7162 7.58264 12.934 7.36487C13.1277 7.17114 13.3685 6.80933 13.6299 6.69312C13.8083 6.61377 13.8795 6.51819 13.6755 6.77112C13.4685 7.02783 13.3503 7.29688 13.2161 7.58789C13.105 7.82861 12.8888 8.02783 12.7834 8.26501C12.7583 8.32166 12.6339 8.56824 12.6678 8.52295C12.9329 8.16968 13.218 7.85461 13.5304 7.54224C13.7751 7.29761 13.3638 8.19263 13.3181 8.28381C13.2131 8.49377 13.0989 8.70935 12.9554 8.8938C12.7791 9.12061 12.6279 9.39563 12.504 9.64343C12.4468 9.75781 12.3859 9.84253 12.2998 9.93372C12.0518 10.1962 12.5062 9.79663 12.5792 9.74023C12.9121 9.48291 13.3192 9.27429 13.6165 8.97705C13.8658 8.72766 13.2386 9.57361 13.0736 9.88525C12.931 10.1548 12.7227 10.3545 12.5148 10.5624C12.3365 10.7406 12.9207 10.3739 12.9877 10.3206C13.0081 10.3044 13.212 10.1163 13.2402 10.1406C13.3496 10.2343 13.2205 10.5457 13.1919 10.6484C13.1648 10.7454 13.1219 10.8665 13.1219 10.9681C13.1219 11.0361 13.2074 10.8621 13.2563 10.8151C13.4414 10.6371 13.1704 11.3865 13.1704 11.4813C13.1704 11.5874 13.0413 12.0028 13.0629 11.9651C13.0811 11.9332 13.0253 12.2739 13.0253 12.3519" stroke="#CD4631" stroke-opacity="1.000000" stroke-width="0.500000" stroke-linecap="round"/>
</svg>
