<svg width="10.503418" height="17.328491" viewBox="0 0 10.5034 17.3285" fill="none" xmlns="http://www.w3.org/2000/svg" xmlns:xlink="http://www.w3.org/1999/xlink">
	<desc>
			Created with Pixso.
	</desc>
	<defs/>
	<path id="Vector 2098" d="M3.03418 2.46704C4.3374 1.43274 5.93768 0.670776 7.51489 0.758423C8.59161 0.818237 9.11847 3.23926 9.4632 4.01489C9.94214 5.09253 9.28851 5.8031 8.39026 6.43567C8.15649 6.81909 7.93732 7.26025 7.76538 7.64709C7.6731 7.85474 7.53601 8.0105 7.37848 8.14001C7.64575 8.89539 8.26636 9.81519 8.26636 10.2773C8.26636 11.2423 8.11884 11.5321 7.15308 10.9175C6.82104 10.7062 6.35736 10.543 6.03992 10.2655C5.9223 10.1626 5.82471 10.0441 5.76141 9.90161C5.06085 8.32532 6.742 7.5282 8.10333 6.63062C8.35815 6.38428 8.55774 6.10425 8.70331 5.80664C8.62183 5.4668 8.28735 4.70471 8.26636 4.51587C8.11365 3.14172 6.22467 3.51392 5.26038 3.51392C3.88721 3.51392 3.35901 4.68823 2.61627 5.64319C2.00104 6.4342 0.751465 6.86853 0.751465 5.39258C0.751465 3.77295 1.75256 2.91345 3.03418 2.46704ZM1.84387 4.69641L1.84747 4.72437C1.59045 5.05762 1.12665 5.11743 0.793457 4.86047C0.460266 4.60339 0.400391 4.13965 0.657471 3.8064L0.685486 3.80273L1.84387 4.69641ZM6.61908 11.6244L6.59222 11.6154C6.40405 11.239 6.55188 10.7954 6.92828 10.6072C7.30469 10.4189 7.74835 10.5668 7.93652 10.9432L7.92761 10.9701L6.61908 11.6244Z" fill="#CD4631" fill-opacity="1.000000" fill-rule="nonzero"/>
	<path id="Vector 2098" d="M1.25244 4.26538C2.62512 2.48596 5.09723 0.624146 7.51489 0.758423C8.59161 0.818237 9.11847 3.23926 9.4632 4.01489C10.6859 6.76599 4.5271 7.12451 5.76141 9.90161C5.99567 10.4287 6.698 10.6279 7.15308 10.9175C8.11884 11.5321 8.26636 11.2423 8.26636 10.2773C8.26636 9.5304 6.64526 7.58801 7.51489 7.07654C9.87469 5.68835 9.36615 2.01099 6.38763 2.01099C4.09845 2.01099 0.751465 2.43115 0.751465 5.39258C0.751465 6.86853 2.00104 6.4342 2.61627 5.64319C3.35901 4.68823 3.88721 3.51392 5.26038 3.51392C6.22467 3.51392 8.11365 3.14172 8.26636 4.51587C8.2923 4.74902 8.79572 5.85522 8.71167 5.96326C8.3634 6.41101 8.01465 7.08618 7.76538 7.64709C7.34741 8.58752 6.0119 8.46338 6.0119 9.65112C6.0119 10.4443 6.05475 10.5814 6.51288 11.1541C6.66443 11.3435 7.54944 11.8495 7.2644 11.2793" stroke="#CD4631" stroke-opacity="1.000000" stroke-width="1.502980" stroke-linejoin="round" stroke-linecap="round"/>
	<path id="Vector 2099" d="M9.01782 14.7863C9.06989 16.87 10.0902 15.5941 9.32397 14.9811C8.81659 14.5752 8.67474 15.6863 9.26831 15.983C9.93512 16.3165 9.78101 14.6354 9.57446 14.8419C9.03723 15.3792 10.1778 16.8297 9.01782 16.5397" stroke="#CD4631" stroke-opacity="1.000000" stroke-width="1.502980" stroke-linejoin="round" stroke-linecap="round"/>
</svg>
