<svg width="12.901550" height="24.421021" viewBox="0 0 12.9016 24.421" fill="none" xmlns="http://www.w3.org/2000/svg" xmlns:xlink="http://www.w3.org/1999/xlink">
	<desc>
	</desc>
	<defs/>
	<path id="Vector 2092" d="M5.78723 9.47339C5.89825 9.47339 6.00897 9.47107 6.1192 9.46631C7.40033 8.60718 9.1106 8.09961 9.77356 6.3949C9.95276 5.93408 10.2789 5.00562 10.0958 4.37402C10.0298 4.14636 9.89752 3.95715 9.66827 3.84253C8.94171 3.47925 7.13519 3.03406 6.4845 3.68469C5.26837 4.90088 4.06165 5.90869 2.32715 6.34229C0.704041 6.74805 0.364197 4.89233 1.03784 3.78992C2.16333 1.94824 3.18372 0.670288 5.4057 0.711426C7.10065 0.742798 10.2036 0.807983 11.3128 2.26379C12.6254 3.98669 12.3824 6.35242 11.1418 8.05261C10.5493 8.8645 9.62415 9.38782 8.68475 9.79675C8.53339 9.90479 8.38599 9.99622 8.24744 10.0654C7.8764 10.251 7.30951 10.3799 6.85333 10.6191C6.07477 11.2592 6.35297 12.3157 6.35297 13.4993C6.35297 14.087 6.3291 14.8383 6.23535 15.6041C6.20374 16.1144 6.12579 16.5969 5.96912 17.0121C5.79193 17.662 5.53613 18.2499 5.16888 18.6696C4.87006 19.0111 4.66235 18.7053 4.52216 18.2522C3.96844 18.1213 4.22162 16.7909 4.22162 16.3278C4.22162 14.8793 4.16681 13.4473 4.47235 12.0466C4.51477 10.9816 4.71564 9.47339 5.78723 9.47339ZM3.47742 3.88806L3.50055 3.9043C3.56915 4.29614 3.31512 4.65796 2.92322 4.72656C2.53137 4.79517 2.16956 4.54114 2.10095 4.14929L2.11725 4.1261L3.47742 3.88806ZM9.66876 5.38586L9.65613 5.41113C9.27869 5.53699 8.8833 5.33923 8.75751 4.96191C8.63171 4.58447 8.82941 4.18909 9.20685 4.06323L9.23212 4.07593L9.66876 5.38586Z" fill="#CD4631" fill-opacity="1.000000" fill-rule="nonzero"/>
	<path id="Vector 2092" d="M2.80078 4.02673C2.45312 2.04016 4.64874 1.82056 6.22137 1.42188C7.46967 1.10535 8.65869 0.842163 9.85248 1.5271C10.6292 1.97278 11.7213 3.11487 11.7864 4.02673C12.0288 7.4198 9.05518 9.47339 5.78723 9.47339C4.41858 9.47339 4.47034 11.9338 4.45844 12.7888C4.43927 14.1699 4.11407 15.5052 4.27429 16.8936C4.31836 17.2755 4.54517 19.3823 5.16888 18.6696C6.20203 17.4889 6.35297 14.9777 6.35297 13.4993C6.35297 12.0914 5.95941 10.8635 7.41858 10.3022C8.70941 9.80579 10.2786 9.23547 11.1418 8.05261C12.3824 6.35242 12.6254 3.98669 11.3128 2.26379C10.2036 0.807983 7.10065 0.742798 5.4057 0.711426C3.18372 0.670288 2.16333 1.94824 1.03784 3.78992C0.364197 4.89233 0.704041 6.74805 2.32715 6.34229C4.06165 5.90869 5.26837 4.90088 6.4845 3.68469C7.13519 3.03406 8.94171 3.47925 9.66827 3.84253C10.5332 4.27502 10.0174 5.76794 9.77356 6.3949C8.79803 8.90344 5.55457 8.81982 4.74786 11.0785C4.13849 12.7848 4.22162 14.5437 4.22162 16.3278C4.22162 16.8788 3.86322 18.6578 4.93207 18.1829C6.97021 17.277 6.01501 13.4253 6.11615 11.6047C6.17407 10.5615 7.55341 10.4125 8.24744 10.0654C9.0871 9.64563 10.2501 8.41516 10.6682 7.57898C11.2355 6.44421 11.3394 4.71411 10.4971 3.68469C9.44739 2.40173 7.66394 3.1875 6.58972 2.36914C5.65674 1.6582 3.69592 4.07886 3.0376 4.73718C2.77875 4.99609 2.48938 5.22314 2.20874 5.44763C2.08136 5.54956 1.70972 6.28967 1.6167 6.28967C1.32465 6.28967 1.96027 5.80481 2.19562 5.63184C2.98895 5.04846 3.73364 4.38269 4.31372 3.57947C4.95966 2.68506 6.00623 3.07947 7.06335 3.07947C7.67059 3.07947 9.04218 2.81616 9.54987 3.21106C10.3193 3.80945 10.5995 4.3479 9.43146 4.73718" stroke="#CD4631" stroke-opacity="1.000000" stroke-width="1.420866" stroke-linejoin="round" stroke-linecap="round"/>
	<path id="Vector 2093" d="M6.03424 23.5657C6.05475 23.5542 6.07446 23.542 6.09338 23.5289C5.95709 23.4203 5.49878 23.1582 5.41882 22.9718C5.10828 22.2471 6.08246 22.0016 6.30029 22.6824C6.43445 23.1016 6.32263 23.3713 6.09338 23.5289C6.15204 23.5758 6.151 23.5941 6.03424 23.5657ZM5.23462 21.829L5.24976 21.8051C5.63788 21.7177 6.01147 21.954 6.09882 22.3422C6.18616 22.7303 5.94977 23.1039 5.56165 23.1913L5.53772 23.1761L5.23462 21.829ZM5.44318 24.1067L5.41785 24.1194C5.04041 23.9935 4.84271 23.5981 4.96851 23.2207C5.09436 22.8433 5.48975 22.6456 5.86719 22.7714L5.87982 22.7968L5.44318 24.1067Z" fill="#CD4631" fill-opacity="1.000000" fill-rule="nonzero"/>
	<path id="Vector 2093" d="M5.4057 22.4982C1.95215 23.2751 6.94226 24.6884 6.30029 22.6824C6.08246 22.0016 5.10828 22.2471 5.41882 22.9718C5.55566 23.291 6.80109 23.8315 5.64252 23.4453" stroke="#CD4631" stroke-opacity="1.000000" stroke-width="1.420866" stroke-linejoin="round" stroke-linecap="round"/>
</svg>
