<svg width="24.000000" height="24.000000" viewBox="0 0 24 24" fill="none" xmlns="http://www.w3.org/2000/svg" xmlns:xlink="http://www.w3.org/1999/xlink">
	<desc>
			Created with Pixso.
	</desc>
	<defs>
		<clipPath id="clip301_149">
			<rect id="spotify" width="24.000000" height="24.000000" fill="white" fill-opacity="0"/>
		</clipPath>
	</defs>
	<g clip-path="url(#clip301_149)">
		<path id="spotify" d="M12.0001 0C9.62662 0 7.30655 0.703735 5.33313 2.02234C3.3598 3.34094 1.82172 5.21509 0.913422 7.40784C0.00518799 9.60046 -0.232452 12.0133 0.230591 14.3411C0.693604 16.6688 1.83646 18.807 3.51471 20.4854C5.19296 22.1635 7.33118 23.3064 9.65894 23.7694C11.9867 24.2324 14.3995 23.9949 16.5922 23.0865C18.7849 22.1782 20.6591 20.6403 21.9777 18.6669C23.2962 16.6935 24 14.3734 24 12C24 8.81738 22.7357 5.76514 20.4853 3.51477C18.2348 1.26428 15.1826 0 12.0001 0ZM17.5068 17.3057C17.4557 17.3905 17.3883 17.4642 17.3085 17.5228C17.2286 17.5813 17.138 17.6233 17.0417 17.6465C16.9455 17.6697 16.8456 17.6735 16.7479 17.6577C16.6501 17.642 16.5565 17.6069 16.4725 17.5547C13.6569 15.8308 10.1133 15.4478 5.93777 16.3959C5.84274 16.4186 5.74426 16.4221 5.64783 16.4064C5.55151 16.3906 5.45914 16.356 5.37634 16.3043C5.29349 16.2527 5.22171 16.1851 5.16516 16.1053C5.10861 16.0258 5.06854 15.9357 5.04712 15.8403C5.02429 15.7449 5.02066 15.6456 5.03622 15.5486C5.05185 15.4515 5.08643 15.3586 5.138 15.275C5.18961 15.1914 5.25726 15.1188 5.33691 15.0613C5.41663 15.0039 5.5069 14.9626 5.60254 14.9402C10.1708 13.8962 14.0974 14.3463 17.2578 16.2809C17.4264 16.384 17.5473 16.5498 17.594 16.7418C17.6407 16.934 17.6093 17.1367 17.5068 17.3057ZM18.9721 14.0399C18.8383 14.2458 18.6304 14.3923 18.3916 14.4493C18.1528 14.5065 17.9012 14.4695 17.6888 14.3463C14.0474 12.3151 9.7486 11.8123 5.73663 12.9481C5.61182 13.0177 5.47296 13.0585 5.33035 13.0675C5.18765 13.0764 5.0448 13.0533 4.91223 12.9999C4.77966 12.9464 4.6608 12.864 4.56424 12.7585C4.46768 12.6532 4.39594 12.5276 4.35425 12.3909C4.31256 12.2542 4.30203 12.1099 4.32339 11.9685C4.34476 11.8271 4.39746 11.6924 4.47766 11.5741C4.55789 11.4558 4.66357 11.3571 4.78693 11.2848C4.91037 11.2128 5.04831 11.1691 5.19073 11.1572C7.43002 10.5126 9.7756 10.322 12.0896 10.5967C14.4036 10.8713 16.6394 11.6057 18.6656 12.7566C18.8715 12.8904 19.018 13.0983 19.0751 13.337C19.1321 13.5759 19.0952 13.8275 18.9721 14.0399ZM19.0966 10.64C15.2658 8.34155 8.85876 8.13086 5.16202 9.25134C4.87756 9.33777 4.57037 9.30762 4.30817 9.16748C4.04596 9.02734 3.85016 8.78882 3.76379 8.50439C3.67743 8.21997 3.70758 7.91272 3.84772 7.65051C3.98773 7.38831 4.22629 7.1925 4.51077 7.1062C8.75342 5.82288 15.7925 6.0719 20.2458 8.70544C20.4748 8.86938 20.6337 9.1134 20.6909 9.38904C20.7481 9.66467 20.6994 9.95178 20.5546 10.1932C20.4097 10.4347 20.1793 10.6127 19.9092 10.6919C19.639 10.7712 19.3489 10.7458 19.0966 10.621L19.0966 10.64Z" fill="#FFFFFF" fill-opacity="1.000000" fill-rule="nonzero"/>
	</g>
</svg>
