<svg width="132.742126" height="65.084595" viewBox="0 0 132.742 65.0846" fill="none" xmlns="http://www.w3.org/2000/svg" xmlns:xlink="http://www.w3.org/1999/xlink">
	<desc>
			Created with Pixso.
	</desc>
	<defs/>
	<path id="Vector 2853" d="M0.808533 0.75C0.808533 3.57288 0.808533 6.39587 0.808533 9.21875C0.808533 11.1772 0.504395 13.3876 1.13055 15.2661C1.95331 17.7344 2.50671 20.2128 3.55194 22.6018C4.49231 24.7512 6.00385 26.7775 7.46423 28.6134C10.3018 32.1807 14.623 34.4446 18.7241 36.283C20.4713 37.0662 22.3163 37.9211 23.9843 38.8594C24.5344 39.1688 25.1486 39.4537 25.7257 39.7063C26.0656 39.855 27.0036 39.8812 27.2167 40.1476C27.6835 40.7311 27.6855 42.0984 27.9085 42.879C28.2065 43.9219 28.2902 44.7574 28.2902 45.8372C28.2902 46.6283 28.2902 47.4196 28.2902 48.2108C28.2902 49.6812 29.344 51.1036 30.1152 52.29C31.0327 53.7017 31.8151 55.077 32.799 56.4052C34.0158 58.048 35.8849 59.1722 37.4746 60.4368C39.0944 61.7252 40.5474 62.7916 42.5082 63.3949C46.6157 64.6588 51.4037 64.3014 55.6526 64.3014C57.2632 64.3014 59.2224 64.4054 60.4476 63.1802C61.2688 62.359 61.7825 61.274 62.4753 60.3413C64.2936 57.8938 65.6254 54.1417 65.8509 51.0973C65.9665 49.5374 65.8629 47.9397 65.8629 46.3739C65.8629 45.5206 66.6587 45.8645 67.3657 45.8252C68.384 45.7687 69.3915 45.3882 70.3596 45.0857C73.4243 44.1281 76.5515 43.0146 79.723 42.402C82.8176 41.8041 86.267 42.1873 89.4084 42.1873C91.2691 42.1873 93.1298 42.1873 94.9905 42.1873C97.3423 42.1873 99.5474 41.4644 101.837 41.0063C105.791 40.2156 109.809 39.8446 113.693 38.7521C116.12 38.0696 118.445 37.1696 120.826 36.3903C122.323 35.9004 123.793 35.5231 125.192 34.7682C126.03 34.3158 126.865 33.7441 127.744 33.3845C129.187 32.7944 130.565 31.7128 131.991 31.2375" stroke="#F7EDE8" stroke-opacity="1.000000" stroke-width="1.500000" stroke-linecap="round"/>
</svg>
