<svg width="173.804382" height="44.483643" viewBox="0 0 173.804 44.4836" fill="none" xmlns="http://www.w3.org/2000/svg" xmlns:xlink="http://www.w3.org/1999/xlink">
	<desc>
			Created with Pixso.
	</desc>
	<defs/>
	<path id="Vector 2852" d="M0.751526 21.09C2.8446 20.3638 4.77014 19.3317 6.99805 19.2681C9.35901 19.2006 9.6073 19.8197 11.4227 20.8876C12.6864 21.6309 13.1561 23.5651 14.2856 24.271C14.9847 24.708 15.3903 25.8384 15.9774 26.4255C16.9274 27.3755 17.9216 28.4498 18.9706 29.274C22.0124 31.6641 25.0707 34.4777 27.8198 37.2268C29.0615 38.4684 30.58 39.3942 32.042 40.3501C32.8596 40.8846 33.474 41.3911 34.4568 41.3911C35.6397 41.3911 35.9276 40.7354 36.9293 40.2344C38.3423 39.528 39.6672 39.0487 41.2238 39.0487C41.9125 39.0487 45.1049 39.9 43.6386 41.0731C42.8624 41.694 44.2855 41.3911 44.9833 41.3911C45.9216 41.3911 46.7313 41.1653 47.6583 41.1309C48.9872 41.0817 50.5673 40.8347 51.8806 40.5959C52.3571 40.5093 53.9537 39.9629 54.3676 40.4802C54.9216 41.1727 55.1484 41.1985 55.1484 42.172C55.1484 42.9341 54.8619 43.7336 55.7991 43.7336C57.7143 43.7336 59.1606 43.3469 60.8744 42.4901C62.9044 41.4751 64.1005 40.0562 66.3401 39.5115C67.9285 39.125 69.5189 38.7885 71.1551 38.7885C72.8171 38.7885 74.6248 38.9406 76.216 38.3835C80.9627 36.7222 85.3915 34.8462 89.6489 32.1371C92.5982 30.2601 95.8882 29.045 98.8886 27.1919C102.364 25.0453 105.827 23.1371 109.227 20.8297C111.869 19.0369 115.044 17.9542 117.672 16.2026C118.28 15.7971 120.027 15.8292 120.795 15.6821C121.415 15.5634 122.081 15.7449 122.689 15.6097C123.694 15.3864 124.896 15.2224 125.812 14.7133C127.244 13.9177 128.852 13.3007 130.251 12.501C132.296 11.3325 133.788 9.5011 135.168 7.61365C135.944 6.55188 139.002 5.79993 140.257 5.73389C141.954 5.64453 144.238 4.58972 145.593 3.53601C147.605 1.97095 150.184 0.788696 152.75 0.788696C155.364 0.788696 158.004 0.692017 160.616 0.788696C162.01 0.840332 162.837 2.56848 162.901 3.65173C163.007 5.45288 163.47 6.55786 164.202 8.20642C165.012 10.028 167.675 10.4441 169.408 10.9393C171.23 11.4598 172.12 13.4452 173.052 14.8434" stroke="#F7EDE8" stroke-opacity="1.000000" stroke-width="1.500000" stroke-linecap="round"/>
</svg>
