<svg width="88.944550" height="90.400635" viewBox="0 0 88.9445 90.4006" fill="none" xmlns="http://www.w3.org/2000/svg" xmlns:xlink="http://www.w3.org/1999/xlink">
	<desc>
			Created with Pixso.
	</desc>
	<defs/>
	<path id="Star 2" d="M2.01288 45.8434C-1.92908 43.5004 0.392731 37.4402 4.89111 38.3308L21.9127 41.701C24.9592 42.3042 27.5365 39.4192 26.595 36.4597L19.31 13.5607C17.973 9.35815 23.3271 6.31555 26.2533 9.61511L37.8732 22.7174C39.7072 24.7854 43.0233 24.4707 44.4355 22.0946L56.3785 2.00146C58.4385 -1.46448 63.7417 -0.162598 63.9626 3.86328L65.3477 29.1077C65.4954 31.8003 68.1674 33.6122 70.7236 32.7529L82.7276 28.7181C86.9427 27.3014 90.0632 32.6903 86.7362 35.6409L74.2346 46.728C72.1666 48.562 72.4812 51.8781 74.8573 53.2904L86.9326 60.4677C90.8456 62.7935 88.5902 68.8105 84.1125 67.9912L62.2794 63.9963C59.104 63.4153 56.5427 66.576 57.7692 69.5621L64.0021 84.7367C65.79 89.0894 60.009 92.5128 57.0518 88.8527L42.6751 71.0587C40.558 68.4384 36.3573 69.366 35.5405 72.634L33.9119 79.1498C32.7288 83.8832 25.7407 82.9275 25.8719 78.0503L26.0144 72.7552C26.0945 69.7776 23.0612 67.7197 20.324 68.8949L9.58719 73.5045C5.32867 75.3329 1.80148 69.7753 5.26874 66.7003L13.8625 59.0787C15.9306 57.2448 15.6159 53.9287 13.2398 52.5164L2.01288 45.8434Z" fill="#000000" fill-opacity="1.000000" fill-rule="nonzero"/>
	<path id="Star 2" d="M2.01288 45.8434C-1.92908 43.5004 0.392731 37.4402 4.89111 38.3308L21.9127 41.701C24.9592 42.3042 27.5365 39.4192 26.595 36.4597L19.31 13.5607C17.973 9.35815 23.3271 6.31555 26.2533 9.61511L37.8732 22.7174C39.7072 24.7854 43.0233 24.4707 44.4355 22.0946L56.3785 2.00146C58.4385 -1.46448 63.7417 -0.162598 63.9626 3.86328L65.3477 29.1077C65.4954 31.8003 68.1674 33.6122 70.7236 32.7529L82.7276 28.7181C86.9427 27.3014 90.0632 32.6903 86.7362 35.6409L74.2346 46.728C72.1666 48.562 72.4812 51.8781 74.8573 53.2904L86.9326 60.4677C90.8456 62.7935 88.5902 68.8105 84.1125 67.9912L62.2794 63.9963C59.104 63.4153 56.5427 66.576 57.7692 69.5621L64.0021 84.7367C65.79 89.0894 60.009 92.5128 57.0518 88.8527L42.6751 71.0587C40.558 68.4384 36.3573 69.366 35.5405 72.634L33.9119 79.1498C32.7288 83.8832 25.7407 82.9275 25.8719 78.0503L26.0144 72.7552C26.0945 69.7776 23.0612 67.7197 20.324 68.8949L9.58719 73.5045C5.32867 75.3329 1.80148 69.7753 5.26874 66.7003L13.8625 59.0787C15.9306 57.2448 15.6159 53.9287 13.2398 52.5164L2.01288 45.8434ZM4.49472 40.3328L21.5163 43.703C22.6588 43.9292 23.7095 43.8817 24.6687 43.5605C25.6279 43.2394 26.4954 42.6445 27.2713 41.776C28.0472 40.9075 28.5408 39.9786 28.7522 38.9895C28.9636 38.0004 28.8928 36.9508 28.5397 35.8411L21.2548 12.942C21.0876 12.4166 21.0821 11.9546 21.2382 11.5558C21.3943 11.1569 21.712 10.8213 22.1913 10.549C22.6705 10.2766 23.1214 10.1754 23.5439 10.2455C23.9665 10.3156 24.3606 10.5568 24.7264 10.9691L36.3463 24.0715C37.0341 24.847 37.8079 25.4042 38.6678 25.7429C39.5276 26.0818 40.4734 26.2021 41.5053 26.1042C42.5372 26.0063 43.4435 25.7101 44.2243 25.2156C45.0051 24.7212 45.6602 24.0284 46.1898 23.1373L58.1328 3.04419C58.3903 2.61096 58.7058 2.31604 59.0793 2.15955C59.4527 2.00293 59.8842 1.98474 60.3737 2.10498C60.8631 2.2251 61.2371 2.44104 61.4956 2.75269C61.7542 3.06445 61.8972 3.47192 61.9249 3.9751L63.3099 29.2195C63.3654 30.2292 63.6161 31.1284 64.0623 31.9171C64.5085 32.7057 65.1501 33.3838 65.9871 33.9513C66.8241 34.5189 67.6915 34.864 68.5893 34.9867C69.4871 35.1094 70.4153 35.0096 71.3738 34.6874L83.3778 30.6526C83.9047 30.4756 84.3695 30.463 84.7722 30.6149C85.1749 30.7668 85.5155 31.0834 85.7941 31.5645C86.0726 32.0454 86.1776 32.4984 86.1089 32.9233C86.0403 33.3483 85.798 33.7451 85.3821 34.1139L72.8804 45.2012C72.1049 45.8889 71.5478 46.6627 71.209 47.5226C70.8702 48.3823 70.7498 49.3282 70.8477 50.3601C70.9456 51.3921 71.2418 52.2983 71.7363 53.0791C72.2308 53.8599 72.9236 54.5151 73.8146 55.0447L85.8898 62.2219C86.379 62.5127 86.6959 62.8639 86.8406 63.2756C86.9853 63.6875 86.9578 64.1598 86.7581 64.6926C86.5584 65.2253 86.2687 65.5994 85.889 65.8146C85.5092 66.0298 85.0395 66.0862 84.4798 65.9838L62.6467 61.9888C61.4559 61.771 60.3723 61.8427 59.3959 62.204C58.4194 62.5653 57.5501 63.2162 56.788 64.1567C56.0259 65.0972 55.5693 66.0825 55.4182 67.1127C55.2671 68.1428 55.4215 69.2178 55.8814 70.3375L62.1144 85.5121C62.3379 86.0562 62.3789 86.5392 62.2376 86.9611C62.0963 87.3829 61.7726 87.7438 61.2665 88.0435C60.7604 88.3431 60.2884 88.4536 59.8505 88.3746C59.4126 88.2958 59.0088 88.0276 58.6392 87.5701L44.2626 69.7761C43.4687 68.7935 42.5648 68.1246 41.5511 67.7695C40.5374 67.4144 39.4138 67.373 38.1802 67.6454C36.9467 67.9177 35.9449 68.4285 35.175 69.1774C34.405 69.9264 33.8669 70.9137 33.5606 72.1393L31.932 78.6549C31.7841 79.2466 31.5222 79.6697 31.1461 79.9242C30.77 80.1787 30.2798 80.2646 29.6756 80.182C29.0713 80.0994 28.6222 79.885 28.3283 79.5388C28.0344 79.1927 27.8956 78.7148 27.912 78.1051L28.0545 72.8102C28.0845 71.6935 27.8759 70.6992 27.4288 69.8274C26.9816 68.9556 26.2958 68.2061 25.3714 67.579C24.447 66.9518 23.4971 66.5917 22.5217 66.4984C21.5463 66.4053 20.5453 66.579 19.5189 67.0197L8.78207 71.6293C8.24976 71.8578 7.77292 71.907 7.35156 71.7766C6.93021 71.6464 6.5643 71.3367 6.25391 70.8475C5.94348 70.3585 5.81903 69.8955 5.88049 69.4589C5.94202 69.0221 6.18945 68.6115 6.62286 68.2272L15.2167 60.6056C15.9922 59.9178 16.5493 59.144 16.8881 58.2843C17.2269 57.4244 17.3473 56.4785 17.2494 55.4467C17.1515 54.4147 16.8553 53.5084 16.3608 52.7277C15.8663 51.9469 15.1736 51.2916 14.2825 50.7621L3.0556 44.0891C2.56287 43.7963 2.2446 43.4427 2.10074 43.0287C1.95691 42.6146 1.98755 42.1399 2.1926 41.6046C2.39767 41.0693 2.69208 40.6957 3.07574 40.4838C3.45944 40.2717 3.93243 40.2214 4.49472 40.3328Z" fill="#000000" fill-opacity="1.000000" fill-rule="evenodd"/>
</svg>
